
<svg version="1.1" id="Capa_1" xmlns="http://www.w3.org/2000/svg"  x="0px" y="0px"
	 viewBox="0 0 416 416" style="enable-background:new 0 0 416 416;" xml:space="preserve">
<g>
	<g>
		<path d="M343.5,0H72.6C32.5,0,0.1,32.5,0,72.5v270.9c0,40.1,32.5,72.5,72.5,72.6h270.9c40.1,0,72.5-32.5,72.6-72.5V72.6
			C416,32.5,383.5,0,343.5,0z M396,343.5c0,29-23.5,52.5-52.5,52.5H72.6c-29,0-52.5-23.5-52.6-52.5V72.6c0-29,23.5-52.5,52.5-52.6
			h270.9c29,0,52.5,23.5,52.6,52.5V343.5z"/>
	</g>
</g>
<g>
	<g>
		<path d="M155.9,281H119v-31.3c0-5.5-4.5-10-10-10s-10,4.5-10,10V281H62.1c-5.5,0-10,4.5-10,10s4.5,10,10,10H99v37.3
			c0,5.5,4.5,10,10,10s10-4.5,10-10V301h36.9c5.5,0,10-4.5,10-10S161.4,281,155.9,281z"/>
	</g>
</g>
<g>
	<g>
		<path d="M155.9,109H62.1c-5.5,0-10,4.5-10,10s4.5,10,10,10h93.8c5.5,0,10-4.5,10-10S161.4,109,155.9,109z"/>
	</g>
</g>
<g>
	<g>
		<path d="M343.5,313h-93.8c-5.5,0-10,4.5-10,10s4.5,10,10,10h93.8c5.5,0,10-4.5,10-10S349,313,343.5,313z"/>
	</g>
</g>
<g>
	<g>
		<path d="M343.5,266h-93.8c-5.5,0-10,4.5-10,10s4.5,10,10,10h93.8c5.5,0,10-4.5,10-10S349,266,343.5,266z"/>
	</g>
</g>
<g>
	<g>
		<path d="M339.6,144.3c0,0,0,0-0.1-0.1l-26.8-26.8l26.8-26.8c3.9-3.9,3.9-10.2,0-14.1s-10.2-3.9-14.1,0l-26.8,26.8l-26.8-26.8
			c-3.9-3.9-10.2-3.9-14.1-0.1c-3.9,3.9-3.9,10.2-0.1,14.1c0,0,0,0,0.1,0.1l26.8,26.8l-26.8,26.8c-3.9,3.8-3.9,10.2,0,14.1
			c3.9,3.9,10.2,3.9,14.1,0l26.8-26.8l26.8,26.8c3.9,3.9,10.2,3.9,14.1,0.1C343.4,154.5,343.4,148.2,339.6,144.3z"/>
	</g>
</g>
<g>
</g>
<g>
</g>
<g>
</g>
<g>
</g>
<g>
</g>
<g>
</g>
<g>
</g>
<g>
</g>
<g>
</g>
<g>
</g>
<g>
</g>
<g>
</g>
<g>
</g>
<g>
</g>
<g>
</g>
</svg>
