
<svg version="1.1" id="Layer_1" xmlns="http://www.w3.org/2000/svg"  x="0px" y="0px"
	 viewBox="0 0 512 512" style="enable-background:new 0 0 512 512;" height="512"   width="512" xml:space="preserve">
<g>
	<g>
		<path fill="#929292" d="M256,0C114.51,0,0,114.497,0,256c0,141.49,114.497,256,256,256c141.49,0,256-114.497,256-256C512,114.51,397.503,0,256,0z
			 M256,477.867c-122.337,0-221.867-99.529-221.867-221.867S133.663,34.133,256,34.133S477.867,133.663,477.867,256
			S378.337,477.867,256,477.867z"/>
	</g>
</g>
<g>
	<g>
		<path fill="#929292" d="M280.136,256l79.986-79.987c6.665-6.664,6.665-17.471,0-24.136c-6.664-6.664-17.471-6.664-24.136,0L256,231.864
			l-79.986-79.987c-6.664-6.665-17.469-6.665-24.136,0c-6.665,6.664-6.665,17.471,0,24.136L231.864,256l-79.986,79.987
			c-6.665,6.664-6.665,17.471,0,24.136s17.471,6.665,24.136,0L256,280.136l79.986,79.987c6.663,6.664,17.469,6.666,24.136,0
			c6.665-6.664,6.665-17.471,0-24.136L280.136,256z"/>
	</g>
</g>
<g>
</g>
<g>
</g>
<g>
</g>
<g>
</g>
<g>
</g>
<g>
</g>
<g>
</g>
<g>
</g>
<g>
</g>
<g>
</g>
<g>
</g>
<g>
</g>
<g>
</g>
<g>
</g>
<g>
</g>
</svg>
