<?xml version="1.0"?>
<svg xmlns="http://www.w3.org/2000/svg" id="outline" viewBox="0 0 512 512" width="512" height="512">
    <path d="M488,192a8,8,0,0,0,7.28271-11.31055l-40-88A8,8,0,0,0,448,88H64a8,8,0,0,0-7.28271,4.68945l-40,88A8,8,0,0,0,24,192H40v32H32a8.00008,8.00008,0,0,0-8,8V336a8.00008,8.00008,0,0,0,8,8h8v24h.01172a7.98344,7.98344,0,0,0,.09717,1.31543l8,48A8,8,0,0,0,56,424h48a8,8,0,0,0,7.89111-6.68457L116.11035,392H200v16a8.00008,8.00008,0,0,0,8,8h96a8.00008,8.00008,0,0,0,8-8V392h83.88965l4.21924,25.31543A8,8,0,0,0,408,424h48a8,8,0,0,0,7.89111-6.68457l8-48A7.98344,7.98344,0,0,0,471.98828,368H472V344h8a8.00008,8.00008,0,0,0,8-8V232a8.00008,8.00008,0,0,0-8-8h-8V192ZM40,240H57.57764a18.91091,18.91091,0,0,1,15.76611,8.4375A34.87629,34.87629,0,0,0,102.42236,264H120v64H88v-4.686l13.65674-13.65673A8.00076,8.00076,0,0,0,104,304V288H88v12.68652l-8,8-8-8V272H56v32a8.00076,8.00076,0,0,0,2.34326,5.65723L72,323.314V328H40ZM72,344v16H56V344Zm25.22314,64H62.77686l-5.333-32h45.1123ZM118.104,362.8291A7.99789,7.99789,0,0,0,112,360H88V344h40a8.00008,8.00008,0,0,0,8-8V256a8.00008,8.00008,0,0,0-8-8H102.42236a18.91091,18.91091,0,0,1-15.76611-8.4375A34.87629,34.87629,0,0,0,57.57764,224H56V192H160V376H118.7771l1.114-6.68457A7.999,7.999,0,0,0,118.104,362.8291ZM304,336H264V224h40Zm-96,0V224h40V336Zm96-128H208V184h96ZM256,352h40v16H216V352Zm-40,48V384h80v16Zm120-24H312V352a8.00008,8.00008,0,0,0,8-8V176a8.00008,8.00008,0,0,0-8-8H200a8.00008,8.00008,0,0,0-8,8V344a8.00008,8.00008,0,0,0,8,8v24H176V152H336ZM168,136a8.00008,8.00008,0,0,0-8,8v32H36.42383l32.72754-72H442.84863l32.72754,72H352V144a8.00008,8.00008,0,0,0-8-8ZM449.22314,408H414.77686l-5.333-32h45.1123ZM456,360H440V344h16Zm16-32H440v-4.686l13.65674-13.65673A8.00076,8.00076,0,0,0,456,304V272H440v28.68652l-8,8-8-8V288H408v16a8.00076,8.00076,0,0,0,2.34326,5.65723L424,323.314V328H392V264h17.57764a34.87629,34.87629,0,0,0,29.07861-15.5625A18.91091,18.91091,0,0,1,454.42236,240H472ZM456,224h-1.57764a34.87629,34.87629,0,0,0-29.07861,15.5625A18.91091,18.91091,0,0,1,409.57764,248H384a8.00008,8.00008,0,0,0-8,8v80a8.00008,8.00008,0,0,0,8,8h40v16H400a8.00034,8.00034,0,0,0-7.89111,9.31543L393.2229,376H352V192H456Z"/>
</svg>
