<svg xmlns="http://www.w3.org/2000/svg" viewBox="0 0 1950.33 386.44"><defs><style>.cls-1{fill:#ed7f22;}.cls-2{fill:#faaf40;}.cls-3{fill:#fff;}</style></defs><title>logo-svg</title><g id="Шар_2" data-name="Шар 2"><g id="Слой_1" data-name="Слой 1"><polygon class="cls-1" points="257.99 245.56 167.33 193.22 167.33 88.54 257.99 140.88 257.99 245.56"/><polygon class="cls-2" points="167.33 297.9 76.67 245.56 167.33 193.22 257.99 245.56 167.33 297.9"/><polygon class="cls-3" points="76.67 245.56 76.67 140.88 167.33 88.54 167.33 193.22 76.67 245.56"/><polygon class="cls-1" points="167.33 386.44 167.33 297.9 167.33 297.9 76.67 245.56 76.67 140.88 76.68 140.88 0 96.61 0 289.83 167.33 386.44"/><polygon class="cls-2" points="167.33 88.54 257.98 140.88 334.66 96.61 167.33 0 0 96.61 76.68 140.88 167.33 88.54"/><polygon class="cls-3" points="257.99 140.88 257.99 245.56 167.33 297.9 167.33 386.44 334.66 289.83 334.66 96.61 257.98 140.88 257.99 140.88"/><path class="cls-3" d="M537.58,241.32v16a32.15,32.15,0,0,1-31.9,31.91H473.77a32.15,32.15,0,0,1-31.91-31.91V129.65A30.58,30.58,0,0,1,451.27,107a31,31,0,0,1,22.5-9.25h31.91A31,31,0,0,1,528.17,107a30.58,30.58,0,0,1,9.41,22.66V145.6h-31.9v-8.29a7.14,7.14,0,0,0-2.4-5.43,8,8,0,0,0-5.58-2.23H481.75a8,8,0,0,0-5.59,2.23,7.17,7.17,0,0,0-2.39,5.43V249a8,8,0,0,0,2.39,5.91,7.69,7.69,0,0,0,5.59,2.39H497.7a7.67,7.67,0,0,0,5.58-2.39,8,8,0,0,0,2.4-5.91v-7.66Z"/><path class="cls-3" d="M675.75,289.19H641.29l-29-79.77h-2.87v79.77H577.47V97.74h31.91v79.77h2.87L641,99h34.46L641,193.46Z"/><path class="cls-1" d="M821.76,289.19H789.85V129.65A30.58,30.58,0,0,1,799.26,107a31,31,0,0,1,22.5-9.25h31.91A31,31,0,0,1,876.16,107a30.58,30.58,0,0,1,9.41,22.66V289.19h-31.9V225.37H821.76Zm31.91-95.73V137.31a7.14,7.14,0,0,0-2.4-5.43,8,8,0,0,0-5.58-2.23h-16a8,8,0,0,0-5.59,2.23,7.17,7.17,0,0,0-2.39,5.43v56.15Z"/><path class="cls-1" d="M957.37,289.19H925.46V97.74h63.81a31,31,0,0,1,22.5,9.25,30.58,30.58,0,0,1,9.41,22.66v55.84a30.55,30.55,0,0,1-7.82,20.74,32,32,0,0,1-19.3,10.85l-36.69.31Zm31.9-151.88a7.13,7.13,0,0,0-2.39-5.43,8,8,0,0,0-5.58-2.23H957.37v55.84H981.3a8.19,8.19,0,0,0,8-8Z"/><path class="cls-1" d="M1054.69,97.74h95.72v31.91H1118.5V289.19h-31.91V129.65h-31.9Z"/><path class="cls-1" d="M1193.65,209.42V177.51h83.59v31.91Z"/><path class="cls-1" d="M1472.36,97.74h79.77v31.91h-47.86v47.86h38.29v31.91h-38.29v47.86h47.86v31.91h-79.77Z"/><path class="cls-1" d="M1690.29,289.19h-34.46l-29-79.77h-2.87v79.77H1592V97.74h31.91v79.77h2.87L1655.51,99H1690l-34.46,94.44Z"/><path class="cls-1" d="M1782.82,97.74a31,31,0,0,1,22.49,9.25,30.59,30.59,0,0,1,9.42,22.66V257.28a32.17,32.17,0,0,1-31.91,31.91h-31.91A32.15,32.15,0,0,1,1719,257.28V129.65a30.58,30.58,0,0,1,9.41-22.66,31,31,0,0,1,22.5-9.25Zm0,39.57a7.14,7.14,0,0,0-2.4-5.43,8,8,0,0,0-5.58-2.23h-15.95a8,8,0,0,0-5.59,2.23,7.17,7.17,0,0,0-2.39,5.43V249a8,8,0,0,0,2.39,5.91,7.69,7.69,0,0,0,5.59,2.39h15.95a7.67,7.67,0,0,0,5.58-2.39,8,8,0,0,0,2.4-5.91Z"/><path class="cls-1" d="M1886.52,289.19h-31.91V97.74h63.82a31,31,0,0,1,22.49,9.25,30.58,30.58,0,0,1,9.41,22.66v55.84a30.54,30.54,0,0,1-7.81,20.74,32,32,0,0,1-19.31,10.85l-36.69.31Zm31.91-151.88a7.14,7.14,0,0,0-2.4-5.43,8,8,0,0,0-5.58-2.23h-23.93v55.84h23.93a8.2,8.2,0,0,0,8-8Z"/><path class="cls-1" d="M1352.39,289.19h95.72V257.28h-15.95V97.74h-63.82a32.15,32.15,0,0,0-31.91,31.91V249a8,8,0,0,1-2.39,5.91,7.67,7.67,0,0,1-5.58,2.39h-8v31.91Zm15.95-151.25a8.06,8.06,0,0,1,2.39-5.9,7.69,7.69,0,0,1,5.59-2.39h23.93V257.28h-31.91Z"/></g></g></svg>