<svg xmlns="http://www.w3.org/2000/svg" xmlns:xlink="http://www.w3.org/1999/xlink" viewBox="0 0 386.37 376.24"><defs><style>.cls-1{isolation:isolate;}.cls-2{opacity:0.3;fill:url(#Безымянный_градиент_538);}.cls-3{fill:#a29486;}.cls-4{fill:#c7bbad;}.cls-5{fill:#d6cbbd;}.cls-6{fill:#563e36;}.cls-46,.cls-7,.cls-8{fill:#5e4942;}.cls-18,.cls-8{opacity:0.4;}.cls-9{fill:#eaeaea;}.cls-10{fill:#e2dccf;}.cls-11{fill:#844f32;}.cls-12{fill:#af7248;}.cls-13{fill:#deb786;}.cls-14,.cls-19{fill:#9d633d;}.cls-15{fill:#e5b32b;}.cls-16{fill:#e2a921;}.cls-17{fill:#f1c23e;}.cls-18{fill:#826a57;}.cls-18,.cls-19,.cls-24,.cls-46{mix-blend-mode:multiply;}.cls-19{opacity:0.05;}.cls-20,.cls-24{fill:#d4cebb;}.cls-21{fill:#ddd6c7;}.cls-22{fill:#f0ece0;}.cls-23,.cls-46{opacity:0.5;}.cls-25{fill:#39363a;}.cls-26{fill:#e19b5d;}.cls-27{fill:#ec7e21;}.cls-28{fill:#ffb345;}.cls-29{fill:#ffcca9;}.cls-30{fill:#352920;}.cls-31{fill:#dd6e1b;}.cls-32{fill:#c1c1c1;}.cls-33{fill:#ededed;}.cls-34{fill:#dd6f1d;}.cls-35{fill:#f9c19b;}.cls-36{fill:#6b5651;}.cls-37{fill:#493732;}.cls-38{fill:#212020;}.cls-39{fill:#cac9c0;}.cls-40{fill:#ffcb57;}.cls-41{fill:#db7121;}.cls-42{fill:url(#Безымянный_градиент_522);}.cls-43{fill:#dedede;}.cls-44{fill:url(#Безымянный_градиент_521);}.cls-45{fill:#97ac37;}.cls-47{fill:#68534d;}.cls-48{fill:#c6bda7;}.cls-49{fill:#dbdbdb;}.cls-50{fill:#d86b19;}.cls-51{fill:#d86c1d;}.cls-52{fill:#d66a18;}.cls-53{fill:#db6a16;}.cls-54{fill:#955e3a;}.cls-55{fill:#d86e1e;}.cls-56{fill:#cf9a46;}.cls-57{fill:#383534;}.cls-58{fill:url(#Безымянный_градиент_194);}.cls-59{fill:url(#Безымянный_градиент_194-2);}.cls-60{fill:#282726;}.cls-61{fill:url(#Безымянный_градиент_194-3);}.cls-62{fill:#f3bc97;}.cls-63{fill:#efb289;}.cls-64{fill:#efefef;}.cls-65{fill:#e4e4e4;}.cls-66{fill:#f4f4f4;}.cls-67{fill:#e8972d;}.cls-68{fill:#969696;}.cls-69{fill:#6b6b6b;}</style><linearGradient id="Безымянный_градиент_538" x1="155.47" y1="199.37" x2="237.81" y2="341.99" gradientUnits="userSpaceOnUse"><stop offset="0" stop-color="#4a4e55"/><stop offset="1" stop-color="#7c8087"/></linearGradient><linearGradient id="Безымянный_градиент_522" x1="66.56" y1="203.84" x2="78.19" y2="203.84" gradientUnits="userSpaceOnUse"><stop offset="0" stop-color="#c2c2c2"/><stop offset="1" stop-color="#c4c4c4"/></linearGradient><linearGradient id="Безымянный_градиент_521" x1="67.91" y1="197.72" x2="76.83" y2="197.72" gradientUnits="userSpaceOnUse"><stop offset="0" stop-color="#c4c4c4"/><stop offset="1" stop-color="#c2c2c2"/></linearGradient><linearGradient id="Безымянный_градиент_194" x1="212.2" y1="219.13" x2="214.71" y2="219.13" gradientUnits="userSpaceOnUse"><stop offset="0" stop-color="#3f3d3c"/><stop offset="1" stop-color="#4a4846"/></linearGradient><linearGradient id="Безымянный_градиент_194-2" x1="199.36" y1="226.26" x2="202.85" y2="226.26" xlink:href="#Безымянный_градиент_194"/><linearGradient id="Безымянный_градиент_194-3" x1="186.11" y1="234.2" x2="188.62" y2="234.2" xlink:href="#Безымянный_градиент_194"/></defs><title>s404-img</title><g class="cls-1"><g id="Шар_2" data-name="Шар 2"><g id="_0" data-name="0"><g id="_1" data-name="1"><polygon id="Cube_face_-_top" data-name="Cube face - top" class="cls-2" points="182.37 376.24 0 270.94 204 153.17 386.37 258.46 182.37 376.24"/><g id="Axonometric_Cube" data-name="Axonometric Cube"><polygon id="Cube_face_-_left" data-name="Cube face - left" class="cls-3" points="182.37 352.61 0 247.31 0 239.17 182.37 344.46 182.37 352.61"/><polygon id="Cube_face_-_right" data-name="Cube face - right" class="cls-4" points="386.37 234.83 182.37 352.61 182.37 344.46 386.37 226.69 386.37 234.83"/><polygon id="Cube_face_-_top-2" data-name="Cube face - top" class="cls-5" points="182.37 344.46 0 239.17 101.3 180.69 106.51 181.28 152.54 153.61 153.32 150.65 204 121.39 386.37 226.69 182.37 344.46"/></g><polygon id="Cube_face_-_left-2" data-name="Cube face - left" class="cls-3" points="4.96 120.63 0 117.77 0 240.6 4.96 243.47 4.96 120.63"/><polygon class="cls-4" points="4.96 120.63 4.96 242.03 8.65 239.91 105.67 183.89 105.67 77.03 154.17 49.06 154.17 155.88 206.46 125.7 206.46 4.3 4.96 120.63"/><g id="Axonometric_Cube-2" data-name="Axonometric Cube"><polygon id="Cube_face_-_left-3" data-name="Cube face - left" class="cls-4" points="381.36 108.19 386.37 105.3 386.37 226.7 381.36 229.6 381.36 108.19"/><path class="cls-6" d="M203.92,5.75,191.69,39.21l12.23,87.94L381.36,229.6V108.19Z"/><polygon class="cls-5" points="386.37 105.3 203.98 0 0 117.77 4.96 120.63 203.93 5.76 381.36 108.19 386.37 105.3"/></g><polygon class="cls-7" points="81.45 76.47 81.45 85.94 71.9 91.45 71.9 110.27 70.54 111.06 70.54 115.4 60.98 120.92 60.98 133.98 59.68 134.74 59.68 138.44 56.22 140.44 56.22 146.79 55.45 147.24 55.45 159.89 51.81 161.99 51.81 167.8 50.45 168.59 50.45 172.93 40.9 178.45 40.9 221.29 55.45 212.89 106.01 183.7 106.01 76.7 154.34 48.9 154.34 155.79 203.93 127.16 203.93 5.76 81.45 76.47"/><polygon class="cls-8" points="73.54 113.86 63.99 119.37 63.99 114.84 73.54 109.33 73.54 113.86"/><polygon class="cls-8" points="77.44 129.02 63.65 136.99 58.5 139.96 58.5 135.43 77.44 124.49 77.44 129.02"/><polygon class="cls-8" points="73.58 113.42 67.1 117.16 67.1 107.98 73.58 104.24 73.58 113.42"/><polygon class="cls-8" points="77.43 141.98 58.49 152.92 58.49 125.67 77.43 114.73 77.43 141.98"/><polygon class="cls-8" points="74.39 151.75 55.45 162.69 55.45 135.44 74.39 124.5 74.39 151.75"/><polygon class="cls-8" points="70.76 165.65 51.81 176.59 51.81 149.34 70.76 138.4 70.76 165.65"/><polygon class="cls-8" points="69.39 179.08 50.45 190.02 50.45 162.77 69.39 151.83 69.39 179.08"/><polygon class="cls-8" points="80.02 127.77 61.07 138.7 61.07 111.45 80.02 100.52 80.02 127.77"/><polygon class="cls-8" points="86.04 110.54 67.1 121.48 67.1 94.23 86.04 83.29 86.04 110.54"/><polygon class="cls-8" points="90.85 98.3 71.91 109.23 71.91 81.98 90.85 71.05 90.85 98.3"/><path class="cls-9" d="M180.15,290.83c2.13-1.19,6.94-3.36,8.61-7,1-2.22-.13-4-3.12-5.75-2.1-1.25-7.22-1.68-7.76-4.07-.41-1.83,3.06-3.33,4.71-4.24,15.74-8.72,19-11.72,23.38-15.09,6.31-4.83-2.34-7.91-6.82-10.5-2.32-1.33-2.66-3.71,2.11-6,11.06-5.36,16.08-11.45,21.28-11,4.74.39,7.21,5.17,10.49,5.87a5.94,5.94,0,0,0,6-8.81,29.24,29.24,0,0,0-48.41-6.57c-4.25,4.88-6.74,11-9.65,16.76a120.38,120.38,0,0,1-16.76,25c-7.49,8.59-16.13,16.11-23.52,24.79a89.77,89.77,0,0,0-9.52,13.77c-1.66,2.9-3.92,13.37.73,16.31C144.64,315.93,147.4,309,180.15,290.83Z"/><polygon id="Cube_face_-_left-4" data-name="Cube face - left" class="cls-3" points="131.16 314.9 4.96 242.03 4.96 240.89 131.16 313.75 131.16 314.9"/><polygon class="cls-4" points="185.05 282.64 131.16 313.75 131.16 314.9 185.05 283.78 185.05 282.64"/><polygon class="cls-4" points="312.51 209.05 312.51 210.19 330.13 200.02 330.13 198.88 312.51 209.05"/><polygon class="cls-4" points="240 230.01 240 231.16 294.41 199.75 294.41 198.6 240 230.01"/><polygon class="cls-4" points="167.5 250.98 167.5 252.12 221.91 220.71 221.91 219.57 167.5 250.98"/><polygon class="cls-4" points="148.82 282.66 148.82 283.8 203.23 252.39 203.23 251.25 148.82 282.66"/><polygon class="cls-3" points="312.51 209.05 312.51 210.19 294.41 199.75 294.41 198.6 312.51 209.05"/><polygon class="cls-3" points="240.01 230.01 240.01 231.16 221.91 220.71 221.91 219.57 240.01 230.01"/><polygon class="cls-4" points="166.95 272.19 203.23 251.25 185.13 240.8 221.91 219.57 240.01 230.01 294.41 198.61 312.51 209.05 330.13 198.88 203.93 126.01 4.96 240.89 131.16 313.75 185.05 282.64 166.95 272.19"/><polygon class="cls-10" points="40.21 240.89 22.58 251.07 4.95 240.89 22.58 230.71 40.21 240.89"/><polygon class="cls-10" points="58.34 230.42 40.72 240.6 23.09 230.42 40.72 220.24 58.34 230.42"/><polygon class="cls-10" points="76.48 219.95 58.85 230.13 41.22 219.95 58.85 209.77 76.48 219.95"/><polygon class="cls-10" points="94.61 209.48 76.99 219.66 59.36 209.48 76.99 199.3 94.61 209.48"/><polygon class="cls-10" points="112.75 199.01 95.12 209.19 77.49 199.01 95.12 188.83 112.75 199.01"/><polygon class="cls-10" points="130.88 188.54 113.26 198.72 95.63 188.54 113.26 178.36 130.88 188.54"/><polygon class="cls-10" points="149.02 178.07 131.39 188.25 113.76 178.07 131.39 167.89 149.02 178.07"/><polygon class="cls-10" points="167.15 167.6 149.53 177.78 131.9 167.6 149.53 157.42 167.15 167.6"/><polygon class="cls-10" points="185.29 157.13 167.66 167.31 150.03 157.13 167.66 146.95 185.29 157.13"/><polygon class="cls-10" points="203.42 146.66 185.8 156.84 168.17 146.66 185.8 136.48 203.42 146.66"/><polygon class="cls-10" points="221.56 136.19 203.93 146.36 186.3 136.19 203.93 126.01 221.56 136.19"/><polygon class="cls-10" points="58.3 251.34 40.68 261.52 23.05 251.34 40.68 241.16 58.3 251.34"/><polygon class="cls-10" points="76.44 240.87 58.81 251.05 41.18 240.87 58.81 230.69 76.44 240.87"/><polygon class="cls-10" points="94.58 230.4 76.95 240.58 59.32 230.4 76.95 220.22 94.58 230.4"/><polygon class="cls-10" points="112.71 219.93 95.08 230.1 77.45 219.93 95.08 209.75 112.71 219.93"/><polygon class="cls-10" points="130.84 209.46 113.22 219.63 95.59 209.46 113.22 199.28 130.84 209.46"/><polygon class="cls-10" points="148.98 198.99 131.35 209.16 113.72 198.99 131.35 188.81 148.98 198.99"/><polygon class="cls-10" points="167.12 188.52 149.49 198.69 131.86 188.52 149.49 178.34 167.12 188.52"/><polygon class="cls-10" points="185.25 178.05 167.62 188.22 149.99 178.05 167.62 167.87 185.25 178.05"/><polygon class="cls-10" points="203.38 167.57 185.76 177.75 168.13 167.57 185.76 157.4 203.38 167.57"/><polygon class="cls-10" points="221.52 157.1 203.89 167.28 186.26 157.1 203.89 146.93 221.52 157.1"/><polygon class="cls-10" points="239.66 146.63 222.03 156.81 204.4 146.63 222.03 136.46 239.66 146.63"/><polygon class="cls-10" points="76.4 261.79 58.77 271.96 41.15 261.79 58.77 251.61 76.4 261.79"/><polygon class="cls-10" points="94.54 251.32 76.91 261.49 59.28 251.32 76.91 241.14 94.54 251.32"/><polygon class="cls-10" points="112.67 240.85 95.04 251.02 77.42 240.85 95.04 230.67 112.67 240.85"/><polygon class="cls-10" points="130.81 230.38 113.18 240.55 95.55 230.38 113.18 220.2 130.81 230.38"/><polygon class="cls-10" points="148.94 219.91 131.31 230.08 113.69 219.91 131.31 209.73 148.94 219.91"/><polygon class="cls-10" points="167.08 209.44 149.45 219.61 131.82 209.44 149.45 199.26 167.08 209.44"/><polygon class="cls-10" points="185.21 198.96 167.58 209.14 149.96 198.96 167.58 188.79 185.21 198.96"/><polygon class="cls-10" points="203.35 188.49 185.72 198.67 168.09 188.49 185.72 178.32 203.35 188.49"/><polygon class="cls-10" points="221.48 178.02 203.85 188.2 186.22 178.02 203.85 167.85 221.48 178.02"/><polygon class="cls-10" points="239.62 167.55 221.99 177.73 204.36 167.55 221.99 157.38 239.62 167.55"/><polygon class="cls-10" points="257.75 157.08 240.12 167.26 222.5 157.08 240.12 146.91 257.75 157.08"/><polygon class="cls-10" points="94.5 272.23 76.87 282.41 59.24 272.23 76.87 262.06 94.5 272.23"/><polygon class="cls-10" points="112.63 261.76 95 271.94 77.38 261.76 95 251.59 112.63 261.76"/><polygon class="cls-10" points="130.77 251.29 113.14 261.47 95.51 251.29 113.14 241.12 130.77 251.29"/><polygon class="cls-10" points="148.9 240.82 131.27 251 113.65 240.82 131.27 230.65 148.9 240.82"/><polygon class="cls-10" points="167.04 230.35 149.41 240.53 131.78 230.35 149.41 220.18 167.04 230.35"/><polygon class="cls-10" points="185.17 219.88 167.54 230.06 149.92 219.88 167.54 209.71 185.17 219.88"/><polygon class="cls-10" points="203.31 209.41 185.68 219.59 168.05 209.41 185.68 199.23 203.31 209.41"/><polygon class="cls-10" points="221.44 198.94 203.81 209.12 186.19 198.94 203.81 188.76 221.44 198.94"/><polygon class="cls-10" points="239.58 188.47 221.95 198.65 204.32 188.47 221.95 178.29 239.58 188.47"/><polygon class="cls-10" points="257.71 178 240.08 188.18 222.46 178 240.08 167.82 257.71 178"/><polygon class="cls-10" points="275.85 167.53 258.22 177.71 240.59 167.53 258.22 157.35 275.85 167.53"/><polygon class="cls-10" points="112.59 282.68 94.97 292.86 77.34 282.68 94.97 272.5 112.59 282.68"/><polygon class="cls-10" points="130.73 272.21 113.1 282.39 95.47 272.21 113.1 262.03 130.73 272.21"/><polygon class="cls-10" points="148.86 261.74 131.24 271.92 113.61 261.74 131.24 251.56 148.86 261.74"/><polygon class="cls-10" points="167 251.27 149.37 261.45 131.74 251.27 149.37 241.09 167 251.27"/><polygon class="cls-10" points="185.13 240.8 167.5 250.98 149.88 240.8 167.5 230.62 185.13 240.8"/><polygon class="cls-10" points="203.27 230.33 185.64 240.51 168.01 230.33 185.64 220.15 203.27 230.33"/><polygon class="cls-10" points="221.4 219.86 203.78 230.04 186.15 219.86 203.78 209.68 221.4 219.86"/><polygon class="cls-10" points="239.54 209.39 221.91 219.57 204.28 209.39 221.91 199.21 239.54 209.39"/><polygon class="cls-10" points="257.67 198.92 240.04 209.1 222.42 198.92 240.04 188.74 257.67 198.92"/><polygon class="cls-10" points="275.81 188.45 258.18 198.63 240.55 188.45 258.18 178.27 275.81 188.45"/><polygon class="cls-10" points="293.94 177.98 276.31 188.16 258.69 177.98 276.31 167.8 293.94 177.98"/><polygon class="cls-10" points="130.69 293.13 113.06 303.31 95.43 293.13 113.06 282.95 130.69 293.13"/><polygon class="cls-10" points="148.82 282.66 131.2 292.84 113.57 282.66 131.2 272.48 148.82 282.66"/><polygon class="cls-10" points="166.96 272.19 149.33 282.37 131.7 272.19 149.33 262.01 166.96 272.19"/><polygon class="cls-10" points="185.09 261.72 167.47 271.9 149.84 261.72 167.47 251.54 185.09 261.72"/><polygon class="cls-10" points="203.23 251.25 185.6 261.43 167.97 251.25 185.6 241.07 203.23 251.25"/><polygon class="cls-10" points="257.63 219.84 240.01 230.01 222.38 219.84 240.01 209.66 257.63 219.84"/><polygon class="cls-10" points="275.77 209.37 258.14 219.54 240.51 209.37 258.14 199.19 275.77 209.37"/><polygon class="cls-10" points="293.9 198.9 276.28 209.07 258.65 198.9 276.28 188.72 293.9 198.9"/><polygon class="cls-10" points="312.04 188.43 294.41 198.6 276.78 188.43 294.41 178.25 312.04 188.43"/><polygon class="cls-10" points="148.78 303.58 131.16 313.76 113.53 303.58 131.16 293.4 148.78 303.58"/><polygon class="cls-10" points="166.92 293.11 149.29 303.29 131.66 293.11 149.29 282.93 166.92 293.11"/><polygon class="cls-10" points="185.06 282.64 167.43 292.81 149.8 282.64 167.43 272.46 185.06 282.64"/><polygon class="cls-10" points="330.13 198.87 312.51 209.05 294.88 198.87 312.51 188.7 330.13 198.87"/><g id="_6" data-name="6"><path id="Cube_face_-_left-5" data-name="Cube face - left" class="cls-11" d="M154.37,154.09l-2.39-.92-1.37-1.25V49.45c0-1.5,1.92-2.29,3.27-1.63l1.81.89Z"/><polygon id="Cube_face_-_top-3" data-name="Cube face - top" class="cls-12" points="106.32 181.85 104.39 178.61 150.61 151.93 154.38 154.1 106.32 181.85"/><g id="Axonometric_Cube-3" data-name="Axonometric Cube"><polygon id="Cube_face_-_left-6" data-name="Cube face - left" class="cls-13" points="106.51 179.85 105 178.98 105 179.58 106.51 180.46 106.51 179.85"/><polygon id="Cube_face_-_right-2" data-name="Cube face - right" class="cls-14" points="153.1 153.37 106.34 180.37 106.34 179.76 153.1 152.76 153.1 153.37"/><polygon id="Cube_face_-_top-4" data-name="Cube face - top" class="cls-12" points="106.34 179.76 104.83 178.88 151.58 151.89 153.1 152.76 106.34 179.76"/></g><path class="cls-14" d="M103.63,74.48V183.91L157.18,153V43.56Zm50.74,79.61L107,181.42V76.18l47.34-27.33Z"/><g id="Axonometric_Cube-4" data-name="Axonometric Cube"><polygon id="Cube_face_-_left-7" data-name="Cube face - left" class="cls-15" points="155.8 158.43 153.86 157.31 150.38 159.32 152.32 160.44 155.8 158.43"/></g><g id="Axonometric_Cylinder" data-name="Axonometric Cylinder"><path id="Cylinder_face" data-name="Cylinder face" class="cls-16" d="M152.79,161a.88.88,0,0,0-.39-.68c-.22-.13-.39,0-.39.22a.85.85,0,0,0,.39.68C152.61,161.31,152.79,161.21,152.79,161Z"/><path id="Cylinder_body" data-name="Cylinder body" class="cls-17" d="M152.67,161.21l4.13-2.38a.28.28,0,0,0,.11-.26.83.83,0,0,0-.39-.67.25.25,0,0,0-.27,0l-4.13,2.38a.29.29,0,0,1,.28,0,.88.88,0,0,1,.39.68A.28.28,0,0,1,152.67,161.21Z"/></g><g id="Axonometric_Cube-5" data-name="Axonometric Cube"><polygon id="Cube_face_-_left-8" data-name="Cube face - left" class="cls-15" points="158.52 160 156.58 158.88 153.1 160.89 155.04 162.01 158.52 160"/></g><polygon class="cls-18" points="156 69.58 156 153.74 169.64 161.61 156 69.58"/><polygon class="cls-14" points="156.52 69.46 198.84 45.81 212.28 138.33 171.06 162.27 156.52 69.46"/><polygon class="cls-12" points="155.86 69.1 197.08 45.16 198.84 45.81 157.62 69.75 155.86 69.1"/><polygon class="cls-11" points="157.62 69.75 171.06 162.27 169.3 161.62 155.86 69.1 157.62 69.75"/><polygon class="cls-19" points="168.7 119.3 173.55 153.02 188.18 144.47 183.34 110.84 168.7 119.3"/><polygon class="cls-11" points="183.34 110.84 182.46 111.35 187.17 144.09 188.18 144.47 183.34 110.84"/><polygon class="cls-12" points="187.17 144.09 173.42 152.13 173.55 153.02 188.18 144.47 187.17 144.09"/><polygon class="cls-19" points="187.45 108.47 192.3 142.19 206.93 133.64 202.09 100.02 187.45 108.47"/><polygon class="cls-11" points="202.09 100.02 201.22 100.52 205.93 133.26 206.93 133.64 202.09 100.02"/><polygon class="cls-12" points="205.93 133.26 192.18 141.31 192.3 142.19 206.93 133.64 205.93 133.26"/><polygon class="cls-19" points="162.15 72.06 166.99 105.08 181.61 96.53 176.79 63.61 162.15 72.06"/><polygon class="cls-11" points="176.79 63.61 175.92 64.11 180.61 96.16 181.61 96.53 176.79 63.61"/><polygon class="cls-12" points="180.61 96.16 166.86 104.2 166.99 105.08 181.61 96.53 180.61 96.16"/><polygon class="cls-19" points="180.91 61.23 185.74 94.25 200.37 85.71 195.55 52.78 180.91 61.23"/><polygon class="cls-11" points="195.55 52.78 194.67 53.29 199.37 85.33 200.37 85.71 195.55 52.78"/><polygon class="cls-12" points="199.37 85.33 185.61 93.37 185.74 94.25 200.37 85.71 199.37 85.33"/><polygon class="cls-15" points="204.49 90.91 201.99 92.35 203.39 101.99 205.88 100.54 204.49 90.91"/><g id="Axonometric_Cube-6" data-name="Axonometric Cube"><polygon id="Cube_face_-_left-9" data-name="Cube face - left" class="cls-16" points="153.96 64.9 152.02 63.78 152.02 59.76 153.96 60.88 153.96 64.9"/></g><g id="Axonometric_Cylinder-2" data-name="Axonometric Cylinder"><ellipse id="Cylinder_face-2" data-name="Cylinder face" class="cls-17" cx="154.25" cy="60.81" rx="0.55" ry="0.32"/><path id="Cylinder_body-2" data-name="Cylinder body" class="cls-15" d="M154.8,60.81v4.76a.27.27,0,0,1-.16.23.89.89,0,0,1-.78,0,.3.3,0,0,1-.17-.22V60.81a.3.3,0,0,0,.17.22.83.83,0,0,0,.78,0A.26.26,0,0,0,154.8,60.81Z"/></g><g id="Axonometric_Cube-7" data-name="Axonometric Cube"><polygon id="Cube_face_-_left-10" data-name="Cube face - left" class="cls-15" points="156.68 66.47 154.74 65.35 154.74 61.34 156.68 62.46 156.68 66.47"/></g></g><ellipse class="cls-18" cx="138.15" cy="197.66" rx="6.55" ry="3.78"/><polygon class="cls-18" points="298.04 183.16 297 182.56 290.65 186.22 274.04 176.63 280.38 172.97 279.33 172.36 246.75 191.17 265.17 201.8 265.46 201.98 298.04 183.16"/><polygon class="cls-18" points="70.45 228.88 69.4 228.28 63.05 231.94 46.44 222.35 52.79 218.69 51.74 218.08 19.16 236.89 37.57 247.52 37.87 247.69 70.45 228.88"/><path class="cls-18" d="M334.06,216c-.38,1.41-3.28,2.21-7.59,3.37-4.05,1.09-6,0-7.74-1.38-2.83-2.21-5.88-2.1-6.83-4.14-.62-1.31.45-2.87,1.6-3.9,6-5.3,8.15.87,11.3,2S334.92,212.83,334.06,216Z"/><path class="cls-18" d="M81.4,201.27c.39,1.41,3.9,2.38,8.21,3.54,4,1.09,5.7,0,7.74-.79,3.15-1.18,7,.71,10-2.31,1-1-.47-4.6-1.63-5.63s-3.27-2.47-4.5-2.21c-1.94.41-5.21,2.21-10,3.48C88.08,198.2,80.54,198.1,81.4,201.27Z"/><path class="cls-18" d="M216.54,277.47c.45,1.68,3.17,2.48,8.22,3.57,8.38,1.82,12.19-4.39,19.05-3.2,1.79.31,10.67,4.79,15.47,7.22a10.94,10.94,0,0,0,4,1.4,2.53,2.53,0,0,0,2.59-3.8c-2.08-3.39-7.25-4.36-10.85-6.05-3.91-1.85-4.35-2.66-8.27-4.5-1.52-.72-2.57-2.3-4.8-1.72-16.59,4.35-16.17,4.08-19,3.42a7.38,7.38,0,0,0-4.45.48C217.26,274.88,216.15,276,216.54,277.47Z"/><path class="cls-18" d="M247.58,159.75c-.42,1.57-3,2.32-7.68,3.34-7.84,1.7-11.4-4.1-17.81-3-1.67.29-10,4.48-14.46,6.75a10.14,10.14,0,0,1-3.69,1.31,2.37,2.37,0,0,1-2.43-3.55c2-3.16,6.78-4.07,10.15-5.66,3.66-1.72,4.07-2.48,7.73-4.2,1.42-.68,2.4-2.15,4.48-1.61,15.52,4.07,15.12,3.82,17.72,3.19a7,7,0,0,1,4.16.46C246.91,157.33,248,158.36,247.58,159.75Z"/><path class="cls-18" d="M140.32,249.19c-4.75,2.05-10.22,2.46-8.32,8a9.61,9.61,0,0,0,2,3.46,4.62,4.62,0,0,0,5.13,1.39c3.85-1.23,2.15-5.66,9.36-6.77a13.09,13.09,0,0,0,4-.84,1.43,1.43,0,0,0,.57-2.33c-.58-.77-4.92-3.4-7.73-4.16a3.32,3.32,0,0,0-1.74,0A26.75,26.75,0,0,0,140.32,249.19Z"/><polygon class="cls-18" points="95.06 215.74 78.26 225.44 68.53 219.83 85.33 210.13 95.06 215.74"/><path class="cls-18" d="M210.55,271.5a10.55,10.55,0,0,0-9.57,0c-2.65,1.52-2.65,4,0,5.52a10.55,10.55,0,0,0,9.57,0C213.19,275.5,213.19,273,210.55,271.5Z"/><path class="cls-18" d="M76.29,204.56a9.32,9.32,0,0,0-8.42,0c-2.33,1.35-2.33,3.52,0,4.87a9.32,9.32,0,0,0,8.42,0C78.61,208.08,78.61,205.91,76.29,204.56Z"/><polygon class="cls-18" points="231.35 296.84 213.4 286.48 195.45 296.84 198.73 298.74 180.79 309.09 198.75 319.46 216.7 309.09 213.41 307.2 231.35 296.84"/><g id="Axonometric_Cube-8" data-name="Axonometric Cube"><polygon id="Cube_face_-_left-11" data-name="Cube face - left" class="cls-20" points="247.26 130.34 238.74 125.41 238.74 110.12 247.26 115.04 247.26 130.34"/><polygon id="Cube_face_-_right-3" data-name="Cube face - right" class="cls-21" points="248.05 129.88 247.26 130.34 247.26 115.04 248.05 114.59 248.05 129.88"/><polygon id="Cube_face_-_top-5" data-name="Cube face - top" class="cls-22" points="247.26 115.04 238.74 110.12 239.52 109.66 248.05 114.59 247.26 115.04"/></g><g class="cls-23"><polygon class="cls-24" points="246.45 116.19 239.43 112.13 239.43 111.39 246.45 115.45 246.45 116.19"/><polygon class="cls-24" points="239.43 112.13 239.43 111.39 239.7 111.55 239.43 112.13"/><polygon class="cls-24" points="246.45 117.78 239.43 113.72 239.43 112.98 246.45 117.04 246.45 117.78"/><polygon class="cls-24" points="239.43 113.72 239.43 112.98 239.7 113.14 239.43 113.72"/><polygon class="cls-24" points="246.45 119.37 239.43 115.32 239.43 114.57 246.45 118.63 246.45 119.37"/><polygon class="cls-24" points="239.43 115.32 239.43 114.57 239.7 114.73 239.43 115.32"/><polygon class="cls-24" points="246.45 120.96 239.43 116.91 239.43 116.16 246.45 120.22 246.45 120.96"/><polygon class="cls-24" points="239.43 116.91 239.43 116.16 239.7 116.32 239.43 116.91"/><polygon class="cls-24" points="246.45 122.56 239.43 118.5 239.43 117.76 246.45 121.81 246.45 122.56"/><polygon class="cls-24" points="239.43 118.5 239.43 117.76 239.7 117.91 239.43 118.5"/><polygon class="cls-24" points="246.45 124.15 239.43 120.09 239.43 119.35 246.45 123.4 246.45 124.15"/><polygon class="cls-24" points="239.43 120.09 239.43 119.35 239.7 119.5 239.43 120.09"/><polygon class="cls-24" points="246.45 125.74 239.43 121.68 239.43 120.94 246.45 125 246.45 125.74"/><polygon class="cls-24" points="239.43 121.68 239.43 120.94 239.7 121.09 239.43 121.68"/><polygon class="cls-24" points="246.45 127.33 239.43 123.27 239.43 122.53 246.45 126.59 246.45 127.33"/><polygon class="cls-24" points="239.43 123.27 239.43 122.53 239.7 122.69 239.43 123.27"/><polygon class="cls-24" points="246.45 128.92 239.43 124.86 239.43 124.12 246.45 128.18 246.45 128.92"/><polygon class="cls-24" points="239.43 124.86 239.43 124.12 239.7 124.28 239.43 124.86"/></g><path class="cls-25" d="M241.3,125.15a1,1,0,0,1-.37.79,7.81,7.81,0,0,1-2.38,1.4c-.79-.08-.43-2.11.15-2.87a12.46,12.46,0,0,1,2.6-1.5Z"/><path class="cls-26" d="M246.62,159.6c.73-.55.83-3.3-2.14-3.77-1.86-.29-7,1.56-9.34,2.75a3.2,3.2,0,0,0,.32,2.78,3.33,3.33,0,0,0,3,.79C240.36,161.93,245.36,160.55,246.62,159.6Z"/><path class="cls-25" d="M235,152.88l1.46-1.16,4.32,1.07.17,3.07a11.65,11.65,0,0,1,3.56-.35c3,.47,2.77,2.69,2,3.24-1.25.94-6.21,2.32-8.07,2.53a3.28,3.28,0,0,1-3-.79,2.3,2.3,0,0,1-.47-1.72c0-.44.06-.87.06-1.3Z"/><path class="cls-27" d="M241.17,156.32c-.36,2.23-5.93,2.57-6.32.33-.35-2,.29-9.59.29-9.59a50.47,50.47,0,0,1-6.35,2.42,5.41,5.41,0,0,1-3.82-.1c-.19,2.45-.58,7.5-.74,7.8-.84,1.49-8.65,5-10.94,5.64-2,.56-6.77-4.25-4.08-6,1.72-1.13,6.21-3.26,7.8-4.57,0,0,.4-17.25.43-14.22,0,1.32.17-4.63,1.49-4.67,2.7-.09,5.72-.78,8,.61,1.79,1.07,1.74,5.06,1.74,5.06s13.31-4.94,13.76.67C242.79,143.65,241.22,156,241.17,156.32Z"/><path class="cls-28" d="M221,123.35a5.7,5.7,0,0,1-2.66-.1,45.44,45.44,0,0,1-1.47-6.91c-.17-3.62,3.47-5.65,5.5-1.24.67,1.44,2.19,6.28,2.19,6.28A5.47,5.47,0,0,1,221,123.35Z"/><path class="cls-29" d="M223.46,122.14c.63-.18,6.56-2.34,6.63-2.39,1-.56,2.66-2.09,3.75-1.64a7.47,7.47,0,0,1,2.92,2c.14.2-.1.34-.31.31s-.66-.23-.89-.17a6.62,6.62,0,0,0-2,.6c-.16.19.44.52.44.52.54,0,1.58-.2,1.49.35-.14.92-3.37,0-4.14.35-1.45.6-5.68,2.34-7.4,3C223.91,124.09,223.47,123.13,223.46,122.14Z"/><path class="cls-28" d="M218,113.9a1.79,1.79,0,0,1,1.81-1.2c3.72.24,9.31,3.81,11.82,5.28,1.72,1.1,0,9.17,0,21.94,0,2.44-13.62,5.06-14.28-1C217.36,134.15,216.45,118.66,218,113.9Z"/><path class="cls-27" d="M231.7,136.72c0,1.29.13,7.57.13,7.57-5.88,4.39-12.37.62-14.59-1.56,0-2.66,0-7,0-10.43.2,1,.57,1.75.68.06.09-1.34-.09-5.26-.14-6.59-.15-3.78-.05-7.55.9-10.19a4.16,4.16,0,0,1,2.62-2.68,4,4,0,0,1,1.45.45,3.33,3.33,0,0,0-1.71.86c-1.36,1.38-1.59,4.92-1.66,7.71,0,1.33.22,4.84.39,6.76,0,.27,1,.84,1.06.57,2.24-7.17,3.36-12.22,8.88-12.53.82.14,1.76.76,1.73,1.12-.68-.5-1.81-.2-2.87.4a5.5,5.5,0,0,0-2.61,2.9,24,24,0,0,0-2.83,9.62C222.29,138.87,230.13,138.78,231.7,136.72Z"/><path class="cls-29" d="M221.8,113.71a.9.9,0,0,0,.12-.37c0-.32,0-.64,0-1a9.09,9.09,0,0,1,0-1.28c.09-.6.83-.47,1.3-.69a13.42,13.42,0,0,1,2.44-.71,2.83,2.83,0,0,0,.41-.14,3.76,3.76,0,0,1,.5-.31c.15-.05.31-.05.46-.1a10.68,10.68,0,0,0,1.07-.5,42.82,42.82,0,0,0-.51,6.94l.9.53c-.41.93-4.15.81-6.22-.64a1.83,1.83,0,0,1-.78-.87C221.42,114.21,221.64,114,221.8,113.71Z"/><path class="cls-29" d="M230,107c-.1,1.06-.21,2.13-.34,3.19s-.35,2-.47,3a1.71,1.71,0,0,1-.15.59,1.44,1.44,0,0,1-.49.49c-.94.65-1.79.46-2.87.36a7.81,7.81,0,0,1-2.59-.76c-.47-.23-1.11-.23-1.16-.74-.11-1.34-.43-2.06-.44-2.5-.06-2.07.9-3,1.77-4.89a6.1,6.1,0,0,1,.84-1.47,5.62,5.62,0,0,1,3.33-1.54,2.43,2.43,0,0,1,2.12.29,2.2,2.2,0,0,1,.55,1.5A15.1,15.1,0,0,1,230,107Z"/><path class="cls-30" d="M230.14,106.18c-.11.54-.55.93-.68,1.46a19,19,0,0,0-.29,2.14,1.12,1.12,0,0,1-.13.44c-.14.19-.38.21-.45.12s0-1.31,0-1.37c0-.38-.06-.64-.47-.73a.75.75,0,0,0-.49,0c-1.42.69,1,4.89-3.63,4.46-.38,0-.88.06-1.2-.17a2.28,2.28,0,0,0-1.12-.55c-.95-.29-.81-.82-1.23-1.76a6.44,6.44,0,0,1-.28-1.4,6.53,6.53,0,0,1,.08-1.16,5.05,5.05,0,0,1,0-1.86c.09-.21,0-.38.08-.61s-.07-.68-.08-1c0-.61.47-1.07.76-1.56a3.12,3.12,0,0,1,.35-.68c.19-.18.5-.16.7-.31a3.26,3.26,0,0,0,.29-.36c.36-.4.79-.25,1.24-.39s.73-.42,1.16-.39.77.36,1.2.38c.81,0,1.35-.53,2.13.13.61.52.83,1.28,1.51,1.79a2.94,2.94,0,0,1,.82,1.06,1.5,1.5,0,0,1,.27,1.21C230.52,105.5,230.24,105.7,230.14,106.18Z"/><path class="cls-29" d="M234.08,127.48l3.54-4.29c.55-2.33,2.4-4.08,3.69-3,.66.52.45,3.38-.33,3.91-.18.12-.18.12-.65.47a7.19,7.19,0,0,0-1.56,2.45c-.4.83-5,10-7.48,6.53-1.61-2.23-3.67-11.42-2.18-13.66,1.16-1.77,2.91-1.36,3.84.88C233.33,121.66,233.58,123.13,234.08,127.48Z"/><path class="cls-28" d="M231.58,128.93c-.91.1-2.62.11-2.77-.48a48.58,48.58,0,0,1-1-7.12c.08-3.67,3.81-5.7,5.49-.84a50.66,50.66,0,0,1,1.07,6.49C234.66,128,233,128.78,231.58,128.93Z"/><path class="cls-25" d="M212.58,162.85c-3,1.39-2.09.88-3.07,1.77-6.29,5.68-9.86,2.31-7.75-1.63a14.61,14.61,0,0,1,6.52-5.75c1.53-.69,1.79-.68,3.07.14C212.4,158.06,214.4,162,212.58,162.85Z"/><path class="cls-26" d="M210.58,161.31a12.5,12.5,0,0,1-1.76,1.8c-1.54,1.44-4.69,5-7.1,3.36-1.23-.84-.42-2.95.13-3.95a14.55,14.55,0,0,1,4.68-4.63C209.7,155.82,212.37,159,210.58,161.31Z"/><path class="cls-27" d="M222.09,107.34a12.13,12.13,0,0,0,9-1.44c2.8-1.74.72-4.35-1.71-4a3.86,3.86,0,0,0-5.16-.89C221.28,102.78,219,106.37,222.09,107.34Z"/><path class="cls-31" d="M220.19,103.73c.44-1.87,1.73-3.24,5.31-3.56a5.49,5.49,0,0,1,1.14,0,4.27,4.27,0,0,1,3.7,3.93,14.33,14.33,0,0,1,.07,2.19,11.25,11.25,0,0,1-3.34,1.14c-2.51.41-5.72.25-6.66-.91C219.93,106.13,219.91,105,220.19,103.73Z"/><path class="cls-25" d="M246.9,115.4a.06.06,0,0,0-.07,0l-4.94,2.86.13.22,4.94-2.86a.06.06,0,0,0,0-.06A.2.2,0,0,0,246.9,115.4Z"/><g id="Axonometric_Cylinder-3" data-name="Axonometric Cylinder"><path id="Cylinder_face-3" data-name="Cylinder face" class="cls-32" d="M244.66,117.67c0,.48-.33.67-.74.43a1.62,1.62,0,0,1-.74-1.28c0-.47.33-.66.74-.43A1.64,1.64,0,0,1,244.66,117.67Z"/><path id="Cylinder_body-3" data-name="Cylinder body" class="cls-32" d="M243.39,116.34l1.38-.79a.5.5,0,0,1,.52,0,1.64,1.64,0,0,1,.74,1.28.53.53,0,0,1-.21.48l-1.37.79a.53.53,0,0,0,.21-.48,1.64,1.64,0,0,0-.74-1.28A.52.52,0,0,0,243.39,116.34Z"/></g><path class="cls-27" d="M238.94,118.48a5.64,5.64,0,0,0-.84,3c0,.44.86.92,1.55.61l4.67-3a.81.81,0,0,0,.4-.53,12.21,12.21,0,0,0,0-2.34.6.6,0,0,0-.24-.39s-.61-.33-.66-.34a.7.7,0,0,0-.32,0A27.45,27.45,0,0,0,238.94,118.48Z"/><path class="cls-28" d="M242.09,119l-1.12.64c-.15.09-.28,0-.28-.12v-.06a.57.57,0,0,1,.28-.43l1.12-.65c.15-.09.27,0,.27.12v.06A.59.59,0,0,1,242.09,119Z"/><path class="cls-26" d="M99.33,198.13a2.46,2.46,0,0,1-.32-2.21,2.24,2.24,0,0,1,2-1.07c1.64,0,4.2,3.2,6.14,4.46a2.8,2.8,0,0,1-.53,2.39,2.93,2.93,0,0,1-2.71.4C102.31,201.74,100.67,199.78,99.33,198.13Z"/><path class="cls-25" d="M99.29,197.41c-.58-.55-.91-2.43,1.72-2.65,1-.09,4.21,2.31,6.15,3.57a2.8,2.8,0,0,1-.53,2.39,3,3,0,0,1-2.71.41C102.31,200.76,100.3,198.35,99.29,197.41Z"/><path class="cls-26" d="M82.85,201.73a1.41,1.41,0,0,1-.87-1.14c-.1-1.12.26-2.54,2.19-2.44a32.87,32.87,0,0,1,8.92,2.15.53.53,0,0,1,.26.42c.16,1,.37,2-.42,2.71A3.75,3.75,0,0,1,90,204,37.28,37.28,0,0,1,82.85,201.73Z"/><path class="cls-25" d="M93.24,199.78a21.86,21.86,0,0,0-3.8-1.36c-1,0-3.44-.36-5.11-.42-2.18-.07-3,1.91-1.74,2.79a7.4,7.4,0,0,0,1.67.71,32.38,32.38,0,0,0,5.86,1.6,3.06,3.06,0,0,0,2.82-.74A3,3,0,0,0,93.24,199.78Z"/><path class="cls-28" d="M103.85,132.27a18,18,0,0,0-2.86-3.38c-.76-1-5.6,3.24-4.73,4.53,2.26,3.31,8.2,8.24,8.2,8.24C105.23,139.77,105.45,135,103.85,132.27Z"/><path class="cls-33" d="M89.28,165.11c.33-16.2-2.29-24.28.54-26.76s9.12-6.08,10.73-6.07a3.44,3.44,0,0,1,3.59,2.84c.93,5.56.39,12.27.21,16.06-.27,5.53-.44,9.8-.45,12.46C103.86,167.69,89.36,168.57,89.28,165.11Z"/><path class="cls-28" d="M89.28,165.11c.33-16.2-2.29-24.28.54-26.76s9.12-6.08,10.73-6.07a3.44,3.44,0,0,1,3.59,2.84c.93,5.56.39,12.27.21,16.06-.27,5.53-.44,9.8-.45,12.46C103.86,167.69,89.36,168.57,89.28,165.11Z"/><path class="cls-34" d="M105.18,179.74s-.73-12.41-.72-12.41c0-1.29-.09-2.45-.12-3.5a.53.53,0,0,0-.72-.48,43.79,43.79,0,0,0-7.83,3.27l.91,4.9.55,7.55a17.48,17.48,0,0,0,.44,2.78l4.22,16.41c.38,1.77,5.43,1.78,5.47.08C106.83,193.31,105.18,179.74,105.18,179.74Z"/><path class="cls-27" d="M104.3,152.29c-.19.91-.7,1.74-.8.13-.08-1.25.08-5,.13-6.22.17-4.54,0-10.9-1.77-13.23a2.58,2.58,0,0,0-2.56-.49,6.78,6.78,0,0,1,1.25,1c1.29,1.3,1.5,6.47,1.57,9.11,0,1.26-.21,4.58-.37,6.39,0,.26-.92.79-1,.54-2.12-6.78-3.92-12.48-9.21-12.5-.77.14-1.47.77-1.44,1.12.64-.48,1.71-.19,2.72.37a7.83,7.83,0,0,1,3,3.28,22.83,22.83,0,0,1,2.72,9.16c.92,8.86-7.85,8.85-9.34,6.9,0,1-2.41,18.31-2.87,22.19a6.67,6.67,0,0,0,0,1.34c.29,3.24,1.16,18.16,1.32,18.88.35,1.67,5.6,1.73,5.62-.07,0-1.36,1.07-17.83,1.07-17.83l2.58-12a2.22,2.22,0,0,1,.85-1.34,44.4,44.4,0,0,1,6.59-4C104.11,156.86,104.27,156,104.3,152.29Z"/><path class="cls-35" d="M96.28,124.85c-.26-.41-5.27-8.79-5.41-9.29s-.25-1-.38-1.4c-.73-2.32-6.1-2.12-3.56,2.07.23.39.69.59,1,.88s5.31,9.38,5.92,10.59C94.19,128.39,96.82,127.23,96.28,124.85Z"/><g id="Axonometric_Cylinder-4" data-name="Axonometric Cylinder"><path class="cls-36" d="M84.85,92.49a1.1,1.1,0,0,0-1.12-.1L72.62,98.8l2.24,3.84L86,96.22a1.09,1.09,0,0,0,.45-1A3.46,3.46,0,0,0,84.85,92.49Z"/><path id="Cylinder_face-4" data-name="Cylinder face" class="cls-37" d="M75.31,101.63c0,1-.7,1.4-1.57.9a3.45,3.45,0,0,1-1.57-2.72c0-1,.7-1.4,1.57-.9A3.46,3.46,0,0,1,75.31,101.63Z"/><path id="Cylinder_face-5" data-name="Cylinder face" class="cls-38" d="M74.18,101c0,.28-.2.4-.44.26a1,1,0,0,1-.44-.76c0-.28.2-.4.44-.26A1,1,0,0,1,74.18,101Z"/></g><path class="cls-39" d="M85.12,108a.33.33,0,0,1-.3-.18l-3-5.88-6.55,2.16a.34.34,0,0,1-.4-.16l-1.63-3a.33.33,0,1,1,.58-.32l1.51,2.8,6.55-2.16a.33.33,0,0,1,.4.16l3.14,6.14a.33.33,0,0,1-.14.45A.4.4,0,0,1,85.12,108Z"/><path class="cls-28" d="M88.44,112.83c.32.83-1.06,1.3-1.33.72-1.91-4.27-3.65-7.56-3.65-7.56-.28-.56.92-1.2,1.21-.59Z"/><path class="cls-35" d="M92.86,143.46c-1.4-1.06-4-.89-4.32.93-.48,2.72-1,7.52-1.19,9.33a.83.83,0,0,1-.6.82c-1.09.41-6.29,2.44-6.29,2.44a3.5,3.5,0,0,1-1.57.17l-.84-.09c-.53,0-1.54-.1-1.71.58a3.71,3.71,0,0,1-.45.49c-1,.83.24,3,1.46,3.06a5,5,0,0,0,2.68-.66,3.49,3.49,0,0,1,1-.42s7.76-2.36,9.67-3a1.44,1.44,0,0,0,1-1.32C92.28,152.72,93.79,144.16,92.86,143.46Z"/><path class="cls-28" d="M93.59,148.74a35.07,35.07,0,0,0,.22-6c-.13-1.46-.44-3.72-2-4.37a2.6,2.6,0,0,0-2.43.21c-1.82,1.6-2.36,6.78-2.64,9C86.39,150.61,93.36,150.61,93.59,148.74Z"/><path class="cls-35" d="M100.09,133.6c0-.33,0-1.45,0-1.45a26.53,26.53,0,0,0,1.16-4.57c.1-.6-3.41-3.35-3.81-3.81a6,6,0,0,0-3.56-1.65c-2.19-.41-2.88.06-2.9,2.2,0,1.32.92,8,1.6,9.4a2.07,2.07,0,0,0,1.26.94c0,.31,0,.6,0,.85l-1,.67c-.08.68,3.62,1.63,6.91-.27a1.72,1.72,0,0,0,.84-.94c.12-.43-.12-.67-.29-1A1.06,1.06,0,0,1,100.09,133.6Z"/><path class="cls-40" d="M100.08,132.73c.07,1.17-1,1.82-2.27,2.29a6.45,6.45,0,0,1-4.08.08c-.5-.11-1.36.93-1.7,1.58,0,0,2.33,1.36,6.45.06,2-.62,2.63-2,2.51-2.75A1.55,1.55,0,0,0,100.08,132.73Z"/><path class="cls-30" d="M90.81,125.6c.35,1,1.15,1.87,1.25,2.76,0,.41-.06.87.2,1.23a.41.41,0,0,0,.62.09c.25-.16,0-1.08.61-1.35a.67.67,0,0,1,.93.46,10.62,10.62,0,0,1,.17,2.25s-.31,2,1.27,2.08a8.17,8.17,0,0,0,2.41-.29,5.3,5.3,0,0,0,.52-.17,3.45,3.45,0,0,0,2-2.22,31.75,31.75,0,0,0,1.1-5.84,4,4,0,0,0-2.78-3.94C95.21,119.43,89,120.68,90.81,125.6Z"/><path class="cls-27" d="M99.83,127a13.11,13.11,0,0,1-9.7-1.55c-3-1.87-.77-4.67,1.84-4.3a4.15,4.15,0,0,1,5.54-1C100.7,122.05,103.14,125.91,99.83,127Z"/><path class="cls-41" d="M101.87,123.08c-.46-2-1.85-3.49-5.69-3.83a6.38,6.38,0,0,0-1.23,0,4.6,4.6,0,0,0-4,4.22,15,15,0,0,0-.06,2.35,12,12,0,0,0,3.58,1.22c2.69.45,6.14.28,7.15-1C102.16,125.64,102.17,124.38,101.87,123.08Z"/><g id="Axonometric_Cylinder-5" data-name="Axonometric Cylinder"><path class="cls-42" d="M66.56,197.61v9.08a2.84,2.84,0,0,0,1.7,2.4,9,9,0,0,0,8.22,0,2.9,2.9,0,0,0,1.71-2.34v-9.08Z"/><ellipse id="Cylinder_face-6" data-name="Cylinder face" class="cls-43" cx="72.37" cy="197.64" rx="5.81" ry="3.36"/></g><ellipse id="Cylinder_face-7" data-name="Cylinder face" class="cls-44" cx="72.37" cy="197.72" rx="4.46" ry="2.57"/><path class="cls-45" d="M75.53,196.09a7,7,0,0,0-6.31,0,1.79,1.79,0,0,0,0,3.45,7,7,0,0,0,6.31,0,1.8,1.8,0,0,0,0-3.45Z"/><path class="cls-7" d="M75.53,196.09a7,7,0,0,0-6.31,0,1.79,1.79,0,0,0,0,3.45,7,7,0,0,0,6.31,0,1.8,1.8,0,0,0,0-3.45Z"/><path class="cls-46" d="M69.22,196.52a7,7,0,0,1,6.31,0,2.39,2.39,0,0,1,1.26,1.5.76.76,0,0,0,0-.21,2.23,2.23,0,0,0-1.29-1.72,7,7,0,0,0-6.31,0,2.27,2.27,0,0,0-1.3,1.72,1.52,1.52,0,0,0,0,.21A2.44,2.44,0,0,1,69.22,196.52Z"/><path class="cls-6" d="M77.65,198.83c-.49,0-.63,0-.75.09s-.05.06-.09.07l-.51,1.08a.1.1,0,0,1,.1.11v6.4c0,.1.08.14.18.08a.39.39,0,0,0,.18-.29v-1.49c0,.1.08.13.18.07a.42.42,0,0,0,.17-.2v.78c0,.1.08.13.18.08a.39.39,0,0,0,.18-.29v-1.61c0,.06.09.07.16,0a.38.38,0,0,0,.19-.28V199A.18.18,0,0,0,77.65,198.83Z"/><path class="cls-47" d="M77.65,198.83c-.49,0-.63,0-.75.09s-.05.06-.09.07-.87.3-.93.3l-.92.82a.66.66,0,0,1,.23,0H76.3l0,0,.13-.07a3.85,3.85,0,0,0,1.29-1.14A.17.17,0,0,0,77.65,198.83Z"/><path class="cls-7" d="M76.92,198.91c-.06.05-.07.07-.11.08H76l-2,1,.38.1a1,1,0,0,0,.48,0,6.06,6.06,0,0,0,1-.46A3.85,3.85,0,0,0,76.92,198.91Z"/><g class="cls-1"><polygon class="cls-20" points="50.75 219.84 49.94 219.37 36.3 189.48 37.11 189.95 50.75 219.84"/><polygon class="cls-21" points="38.93 188.9 52.56 218.79 50.75 219.84 37.11 189.95 37.11 188.56 40.26 186.74 40.26 188.14 38.93 188.9"/></g><g class="cls-1"><polygon class="cls-20" points="21.43 236.77 20.62 236.3 34.04 190.79 34.84 191.26 21.43 236.77"/><polygon class="cls-48" points="33.52 192.03 33.52 190.63 36.66 188.82 36.66 190.21 23.25 235.72 21.43 236.77 34.84 191.26 33.52 192.03"/></g><path class="cls-25" d="M44.68,203.93a51.08,51.08,0,0,1-15.87,9.16c-.52.18-.47.82-.41,1,.12.41.92,0,1.19-.15a61.74,61.74,0,0,0,15.64-9.21.49.49,0,0,0,.17-.51C45.26,203.65,45.3,203.5,44.68,203.93Z"/><path id="Axonometric_Ellipse" data-name="Axonometric Ellipse" class="cls-21" d="M45.07,204.29a.44.44,0,0,1-.2.36c-.12.07-.21,0-.21-.12a.43.43,0,0,1,.21-.35C45,204.11,45.07,204.16,45.07,204.29Z"/><path id="Axonometric_Ellipse-2" data-name="Axonometric Ellipse" class="cls-21" d="M29.18,213.54a.45.45,0,0,1-.21.36c-.12.07-.21,0-.21-.12a.46.46,0,0,1,.21-.36C29.08,213.36,29.18,213.41,29.18,213.54Z"/><g class="cls-1"><polygon class="cls-20" points="46.02 213.68 28.96 203.78 28.96 202.38 46.02 212.27 46.02 213.68"/><polygon class="cls-22" points="46.02 212.27 28.96 202.38 34.11 199.4 51.17 209.3 46.02 212.27"/><polygon class="cls-21" points="51.17 209.3 51.17 210.35 47.36 212.55 47.36 212.9 46.02 213.68 46.02 212.27 51.17 209.3"/><polygon class="cls-21" points="46.02 212.27 46.02 213.68 47.36 212.9 47.36 211.5 46.02 212.27"/></g><g class="cls-1"><polygon class="cls-20" points="42.64 225.12 25.58 215.23 25.58 213.82 42.63 223.72 42.64 225.12"/><polygon class="cls-22" points="42.63 223.72 25.58 213.82 30.73 210.85 47.78 220.75 42.63 223.72"/><polygon class="cls-21" points="47.78 220.75 47.79 221.8 43.98 224 43.98 224.35 42.64 225.12 42.63 223.72 47.78 220.75"/><polygon class="cls-21" points="42.63 223.72 42.64 225.12 43.98 224.35 43.98 222.94 42.63 223.72"/></g><g class="cls-1"><polygon class="cls-20" points="39.25 236.57 22.2 226.67 22.19 225.27 39.25 235.17 39.25 236.57"/><polygon class="cls-22" points="39.25 235.17 22.19 225.27 27.35 222.29 44.4 232.19 39.25 235.17"/><polygon class="cls-21" points="44.4 232.19 44.41 233.24 40.6 235.44 40.6 235.79 39.25 236.57 39.25 235.17 44.4 232.19"/><polygon class="cls-21" points="39.25 235.17 39.25 236.57 40.6 235.79 40.6 234.39 39.25 235.17"/></g><g class="cls-1"><polygon class="cls-20" points="68.33 230 67.53 229.53 53.89 199.64 54.7 200.11 68.33 230"/><polygon class="cls-21" points="56.52 199.06 70.15 228.95 68.33 230 54.7 200.11 55.47 199.4 56.52 199.06"/></g><g class="cls-1"><polygon class="cls-20" points="39.02 246.92 38.21 246.45 51.62 200.95 52.43 201.42 39.02 246.92"/><polygon class="cls-20" points="51.1 202.18 55.13 198.46 32.58 190.09 32.58 191.49 51.1 202.18"/><polygon class="cls-22" points="57.84 196.9 39.32 186.2 35.72 188.28 32.58 190.09 51.1 200.79 57.84 196.9"/><polygon class="cls-21" points="53.4 200.47 54.25 200.37 40.83 245.87 39.02 246.92 52.43 201.42 53.4 200.47"/><polygon class="cls-21" points="57.84 198.29 57.84 196.9 51.1 200.79 51.1 202.18 57.84 198.29"/></g><path class="cls-25" d="M62.33,214.11a50.93,50.93,0,0,1-15.87,9.17c-.52.18-.47.82-.41,1,.12.41.92,0,1.19-.14a61.51,61.51,0,0,0,15.63-9.21.5.5,0,0,0,.18-.51C62.9,213.84,62.94,213.69,62.33,214.11Z"/><path id="Axonometric_Ellipse-3" data-name="Axonometric Ellipse" class="cls-21" d="M62.72,214.48a.43.43,0,0,1-.21.36c-.11.07-.2,0-.2-.12a.47.47,0,0,1,.2-.36C62.63,214.3,62.72,214.35,62.72,214.48Z"/><path id="Axonometric_Ellipse-4" data-name="Axonometric Ellipse" class="cls-21" d="M46.82,223.73a.47.47,0,0,1-.2.36c-.12.07-.21,0-.21-.12a.46.46,0,0,1,.21-.36C46.73,223.55,46.82,223.6,46.82,223.73Z"/><g class="cls-1"><polygon class="cls-48" points="278.29 173.99 277.48 173.52 263.85 143.63 264.66 144.1 278.29 173.99"/><polygon class="cls-20" points="266.47 143.05 280.11 172.94 278.29 173.99 264.66 144.1 264.65 142.7 267.8 140.89 267.8 142.28 266.47 143.05"/></g><g class="cls-1"><polygon class="cls-20" points="248.97 190.91 248.16 190.44 261.58 144.94 262.39 145.41 248.97 190.91"/><polygon class="cls-21" points="261.06 146.17 261.06 144.78 264.2 142.96 264.2 144.36 250.79 189.86 248.97 190.91 262.39 145.41 261.06 146.17"/></g><path class="cls-25" d="M272.23,158.07a51.12,51.12,0,0,1-15.88,9.16c-.51.18-.46.82-.41,1,.12.41.93,0,1.19-.14a61.43,61.43,0,0,0,15.64-9.22.49.49,0,0,0,.17-.51C272.8,157.8,272.84,157.64,272.23,158.07Z"/><path id="Axonometric_Ellipse-5" data-name="Axonometric Ellipse" class="cls-20" d="M272.62,158.44a.49.49,0,0,1-.21.36c-.11.06-.21,0-.21-.12a.49.49,0,0,1,.21-.36C272.52,158.25,272.62,158.31,272.62,158.44Z"/><path id="Axonometric_Ellipse-6" data-name="Axonometric Ellipse" class="cls-20" d="M256.72,167.69a.46.46,0,0,1-.21.36c-.11.06-.2,0-.2-.12a.46.46,0,0,1,.2-.36C256.63,167.5,256.72,167.56,256.72,167.69Z"/><g class="cls-1"><polygon class="cls-20" points="273.56 167.82 256.51 157.92 256.5 156.52 273.56 166.42 273.56 167.82"/><polygon class="cls-22" points="273.56 166.42 256.5 156.52 261.65 153.55 278.71 163.44 273.56 166.42"/><polygon class="cls-21" points="278.71 163.44 278.71 164.5 274.9 166.69 274.9 167.04 273.56 167.82 273.56 166.42 278.71 163.44"/><polygon class="cls-21" points="273.56 166.42 273.56 167.82 274.9 167.04 274.9 165.64 273.56 166.42"/></g><g class="cls-1"><polygon class="cls-20" points="270.18 179.27 253.12 169.37 253.12 167.97 270.18 177.86 270.18 179.27"/><polygon class="cls-22" points="270.18 177.86 253.12 167.97 258.27 164.99 275.33 174.89 270.18 177.86"/><polygon class="cls-21" points="275.33 174.89 275.33 175.94 271.52 178.14 271.52 178.49 270.18 179.27 270.18 177.86 275.33 174.89"/><polygon class="cls-21" points="270.18 177.86 270.18 179.27 271.52 178.49 271.52 177.09 270.18 177.86"/></g><g class="cls-1"><polygon class="cls-20" points="266.8 190.71 249.74 180.81 249.74 179.41 266.79 189.31 266.8 190.71"/><polygon class="cls-22" points="266.79 189.31 249.74 179.41 254.89 176.44 271.95 186.34 266.79 189.31"/><polygon class="cls-21" points="271.95 186.34 271.95 187.39 268.14 189.59 268.14 189.94 266.8 190.71 266.79 189.31 271.95 186.34"/><polygon class="cls-21" points="266.79 189.31 266.8 190.71 268.14 189.94 268.14 188.53 266.79 189.31"/></g><g class="cls-1"><polygon class="cls-48" points="295.88 184.14 295.07 183.67 281.44 153.78 282.24 154.25 295.88 184.14"/><polygon class="cls-21" points="284.06 153.2 297.69 183.09 295.88 184.14 282.24 154.25 283.01 153.54 284.06 153.2"/></g><g class="cls-1"><polygon class="cls-20" points="266.56 201.06 265.75 200.6 279.17 155.09 279.98 155.56 266.56 201.06"/><polygon class="cls-20" points="278.65 156.32 282.67 152.61 260.12 144.24 260.13 145.63 278.65 156.32"/><polygon class="cls-22" points="285.38 151.04 266.86 140.34 263.27 142.42 260.12 144.24 278.64 154.93 285.38 151.04"/><polygon class="cls-21" points="280.95 154.61 281.79 154.51 268.38 200.02 266.56 201.06 279.98 155.56 280.95 154.61"/><polygon class="cls-21" points="285.39 152.43 285.38 151.04 278.64 154.93 278.65 156.32 285.39 152.43"/></g><path class="cls-25" d="M289.87,168.26A50.86,50.86,0,0,1,274,177.42c-.52.18-.47.82-.41,1,.12.41.92,0,1.19-.14a62.07,62.07,0,0,0,15.64-9.22.49.49,0,0,0,.17-.51C290.45,168,290.49,167.83,289.87,168.26Z"/><path id="Axonometric_Ellipse-7" data-name="Axonometric Ellipse" class="cls-20" d="M290.26,168.63a.47.47,0,0,1-.2.36c-.12.06-.21,0-.21-.12a.43.43,0,0,1,.21-.36C290.17,168.44,290.26,168.5,290.26,168.63Z"/><path id="Axonometric_Ellipse-8" data-name="Axonometric Ellipse" class="cls-20" d="M274.37,177.88a.45.45,0,0,1-.21.35c-.12.07-.21,0-.21-.11a.43.43,0,0,1,.21-.36C274.27,177.69,274.37,177.74,274.37,177.88Z"/><polygon class="cls-21" points="291.43 76 289.91 75.63 289.92 80.02 291.44 80.9 291.43 76"/><polygon class="cls-21" points="284.42 79.68 282.9 78.8 282.9 79.24 284.42 80.13 284.42 79.68"/><polygon class="cls-22" points="291.43 75.63 289.91 74.75 282.9 78.8 284.42 79.68 291.43 75.63"/><polygon class="cls-20" points="291.43 75.63 291.43 76.08 284.42 80.13 284.42 79.68 291.43 75.63"/><polygon class="cls-21" points="327.71 96.94 326.19 96.58 326.2 100.97 327.72 101.85 327.71 96.94"/><polygon class="cls-21" points="320.7 100.63 319.19 99.75 319.19 100.19 320.71 101.07 320.7 100.63"/><polygon class="cls-22" points="327.72 96.58 326.2 95.7 319.19 99.75 320.7 100.63 327.72 96.58"/><polygon class="cls-20" points="327.71 96.58 327.71 97.03 320.71 101.07 320.7 100.63 327.71 96.58"/><path class="cls-29" d="M274.42,88.92l7.3-2.76c.27-1.3,2.26-3.3,3.48-2.32.62.49.43,3.2-.31,3.69-.18.12-.18.12-.62.45S272,94.5,270.85,93.17c-1.68-2-4-6.27-4.07-8.82,0-2,1.54-2.61,3.46-1.37C271,83.5,272.23,85.4,274.42,88.92Z"/><path class="cls-28" d="M272.82,90.73c-.73.45-3.59,1.42-4,1A17.53,17.53,0,0,1,265,86.92c-1.42-3,2.23-7.82,5.89-4.1a49.28,49.28,0,0,1,3.53,5.11C275.07,88.65,274,90,272.82,90.73Z"/><path class="cls-25" d="M290.48,79.35a.07.07,0,0,0-.06,0L285.75,82l.12.21,4.67-2.7a.05.05,0,0,0,0,0A.19.19,0,0,0,290.48,79.35Z"/><g id="Axonometric_Cylinder-6" data-name="Axonometric Cylinder"><path id="Cylinder_face-8" data-name="Cylinder face" class="cls-49" d="M288.37,81.5c0,.45-.32.63-.7.4a1.52,1.52,0,0,1-.7-1.21c0-.44.31-.62.7-.4A1.55,1.55,0,0,1,288.37,81.5Z"/><path id="Cylinder_body-4" data-name="Cylinder body" class="cls-49" d="M287.17,80.24l1.3-.75a.51.51,0,0,1,.5.05,1.56,1.56,0,0,1,.69,1.21.48.48,0,0,1-.2.45l-1.29.75a.5.5,0,0,0,.2-.45,1.55,1.55,0,0,0-.7-1.21A.51.51,0,0,0,287.17,80.24Z"/></g><path class="cls-27" d="M283,82.27a5.34,5.34,0,0,0-.8,2.86c0,.42.82.88,1.48.58l4.41-2.84a.78.78,0,0,0,.38-.5,12.57,12.57,0,0,0,0-2.21.55.55,0,0,0-.23-.36,6.25,6.25,0,0,0-.63-.33.6.6,0,0,0-.3,0A24.57,24.57,0,0,0,283,82.27Z"/><path class="cls-28" d="M285.93,82.78l-1.05.61c-.15.08-.26,0-.26-.11v-.07a.54.54,0,0,1,.26-.41l1.05-.61c.15-.08.26,0,.26.11v.07A.54.54,0,0,1,285.93,82.78Z"/><path class="cls-26" d="M269.85,142.28a2.37,2.37,0,0,0,.32-2.2,2.19,2.19,0,0,0-2-1.07c-1.64,0-4.2,3.2-6.15,4.46a2.81,2.81,0,0,0,.54,2.38,2.89,2.89,0,0,0,2.71.41C266.88,145.9,268.51,143.94,269.85,142.28Z"/><path class="cls-25" d="M269.89,141.57c.59-.55.92-2.43-1.71-2.65-1-.09-4.21,2.31-6.16,3.57a2.84,2.84,0,0,0,.54,2.39,2.92,2.92,0,0,0,2.71.4C266.88,144.92,268.88,142.51,269.89,141.57Z"/><path class="cls-26" d="M284.28,150.91a1.41,1.41,0,0,0,.87-1.14c.1-1.12-.31-2.64-2.24-2.53a32.45,32.45,0,0,0-8.91,2.15.49.49,0,0,0-.27.42s-.32,2.13.47,2.8a3.76,3.76,0,0,0,2.91.53A37.28,37.28,0,0,0,284.28,150.91Z"/><path class="cls-25" d="M273.85,148.86a22.58,22.58,0,0,1,3.79-1.36c1,0,3.44-.36,5.12-.41,2.18-.08,2.94,1.91,1.73,2.78a6.86,6.86,0,0,1-1.66.72,34.13,34.13,0,0,1-5.86,1.6,3.11,3.11,0,0,1-2.82-.74A3,3,0,0,1,273.85,148.86Z"/><path class="cls-28" d="M279.64,114.41c-.19-2.66-.21-5-.18-7.25.17-11.57,2.56-17.46.19-19.55-3-2.6-9.12-6.07-10.73-6.06a3.44,3.44,0,0,0-3.59,2.84c-.93,5.56-.39,12.27-.21,16.06.27,5.52.44,9.79.45,12.46C265.61,117,279.56,117.87,279.64,114.41Z"/><path class="cls-50" d="M264.53,123.82s.42-1.12.54-7.07c.06-2.75.09-5.59.1-8.09,0,0,6.12,3.42,7,5.14l-.23,9.13-.29,2.59-4.26,17.11c-.38,1.77-5.55,1.52-5.58-.18C262.73,133.4,264.53,123.82,264.53,123.82Z"/><path class="cls-27" d="M265.13,112.55c0-2.22.07-7.14,0-11,.2.92.7,1.74.8.14.08-1.26-.08-5-.13-6.22-.17-4.54,0-10.9,1.77-13.24a2.6,2.6,0,0,1,2.56-.48c0-.09-1.06.78-1.25,1-1.28,1.31-1.5,6.48-1.57,9.12,0,1.26.21,4.57.37,6.38,0,.26.92.8,1,.55,2.12-6.78,3.92-12.48,9.21-12.51.77.14,1.47.78,1.44,1.12-.64-.48-1.71-.19-2.71.37A7.79,7.79,0,0,0,273.61,91a22.87,22.87,0,0,0-2.72,9.16c-.92,8.86,7.09,8.9,8.58,6.95.07,2.25,1,16.74,1.11,21.14,0,.64,0,1.26,0,1.9-.26,3.89-.78,18.46-.91,19.09-.35,1.67-6.08,1.63-6.1-.17,0-1.36-.7-19.47-.7-19.47-.31-3.62-.62-8.45-1.19-11.48C271.37,116.7,266,113,265.13,112.55Z"/><path class="cls-29" d="M275.78,91.58c1.15-1.32,3.72-1.71,4.42,0l1.29,3.21c.14.42,1.71-4.17,1.71-4.17a2.22,2.22,0,0,0-.25-1.26l-.31-.79c-.18-.5-.49-1.46.12-1.8a4.29,4.29,0,0,0,.35-.56c.54-1.17,2.57-.19,3,1a5,5,0,0,1,.06,2.76c-.09.36-3.23,17.21-6.17,12.55C278.3,99.86,275,92.47,275.78,91.58Z"/><path class="cls-28" d="M276.94,98.88c-.55-1.59-1.63-4.72-2-6.3-.49-2.19,2-7,4.52-5,1.48,1.17,2.77,6.57,3.53,8.68C283.93,98.87,277.55,100.66,276.94,98.88Z"/><path class="cls-29" d="M269.38,82.87c0-.34,0-1.46,0-1.46a26.46,26.46,0,0,1-1.16-4.56c-.1-.6,3.41-3.35,3.81-3.81a5.92,5.92,0,0,1,3.56-1.65c2.19-.41,2.88.06,2.9,2.2,0,1.32-.92,7.94-1.6,9.4a2,2,0,0,1-1.26.93c0,.31,0,.61,0,.86l1.05.66c.08.68-3.62,1.63-6.91-.26a1.8,1.8,0,0,1-.84-.94c-.12-.43.12-.68.29-1A1.06,1.06,0,0,0,269.38,82.87Z"/><path class="cls-40" d="M269.39,82c-.07,1.18,1.05,1.82,2.27,2.29a6.37,6.37,0,0,0,4.08.08c.5-.1,1.36.94,1.7,1.58,0,0-2.33,1.36-6.45.07-2-.63-2.62-2-2.51-2.75A1.57,1.57,0,0,1,269.39,82Z"/><path class="cls-30" d="M278.66,74.87c-.35.95-1.15,1.87-1.25,2.76,0,.41.06.86-.2,1.22a.41.41,0,0,1-.62.09c-.25-.16,0-1.08-.61-1.35a.68.68,0,0,0-.93.46,10.71,10.71,0,0,0-.17,2.26s.31,2-1.27,2.07a7.84,7.84,0,0,1-2.41-.28,3.52,3.52,0,0,1-.52-.18,3.41,3.41,0,0,1-2-2.21,31.9,31.9,0,0,1-1.1-5.84,4,4,0,0,1,2.78-3.94C274.26,68.7,280.48,70,278.66,74.87Z"/><path class="cls-27" d="M269.64,76.21a13,13,0,0,0,9.7-1.54c3-1.87.77-4.68-1.84-4.31a4.16,4.16,0,0,0-5.54-1C268.77,71.32,266.33,75.17,269.64,76.21Z"/><path class="cls-51" d="M267.6,72.34c.46-2,1.85-3.49,5.69-3.82a6.35,6.35,0,0,1,1.23,0,4.61,4.61,0,0,1,4,4.23,14.94,14.94,0,0,1,.06,2.35A12,12,0,0,1,275,76.33c-2.69.45-6.14.28-7.15-1C267.31,74.91,267.3,73.64,267.6,72.34Z"/><path class="cls-25" d="M284.27,88c.44-.33.44-.33.62-.45a1,1,0,0,0,.3-.39v1.42a.94.94,0,0,1-.35.75,7.12,7.12,0,0,1-2.25,1.32c-.46,0-.51-.81-.34-1.56C283.36,88.51,284.14,88.08,284.27,88Z"/><polygon class="cls-21" points="327.44 125.66 325.93 125.3 325.94 129.68 327.46 130.56 327.44 125.66"/><polygon class="cls-21" points="320.44 129.34 318.92 128.46 318.92 128.91 320.44 129.79 320.44 129.34"/><polygon class="cls-22" points="327.45 125.3 325.93 124.41 318.92 128.46 320.44 129.34 327.45 125.3"/><polygon class="cls-20" points="327.45 125.3 327.44 125.75 320.44 129.79 320.44 129.34 327.45 125.3"/><polygon class="cls-21" points="363.73 146.61 362.21 146.24 362.22 150.63 363.74 151.51 363.73 146.61"/><polygon class="cls-21" points="356.72 150.29 355.2 149.41 355.2 149.86 356.72 150.74 356.72 150.29"/><polygon class="cls-22" points="363.73 146.24 362.21 145.36 355.2 149.41 356.72 150.29 363.73 146.24"/><polygon class="cls-20" points="363.73 146.25 363.73 146.69 356.72 150.74 356.72 150.29 363.73 146.25"/><g id="Axonometric_Cube-9" data-name="Axonometric Cube"><polygon id="Cube_face_-_left-12" data-name="Cube face - left" class="cls-14" points="359.38 152.54 367.84 147.65 367.84 146.82 359.38 151.71 359.38 152.54"/><polygon id="Cube_face_-_right-4" data-name="Cube face - right" class="cls-11" points="312.11 125.25 359.38 152.54 359.38 151.71 312.11 124.42 312.11 125.25"/><polygon id="Cube_face_-_top-6" data-name="Cube face - top" class="cls-12" points="359.38 151.71 367.84 146.82 320.57 119.53 312.11 124.42 359.38 151.71"/></g><path class="cls-26" d="M319.74,210.25a2.43,2.43,0,0,0,.32-2.21,2.24,2.24,0,0,0-2-1.07c-1.64,0-4.2,3.2-6.15,4.46a2.81,2.81,0,0,0,.54,2.39,2.92,2.92,0,0,0,2.71.4C316.77,213.86,318.4,211.9,319.74,210.25Z"/><path class="cls-25" d="M319.78,209.53c.59-.55.91-2.43-1.72-2.65-1-.09-4.2,2.31-6.15,3.58a2.79,2.79,0,0,0,.54,2.38,2.89,2.89,0,0,0,2.71.41C316.77,212.88,318.77,210.47,319.78,209.53Z"/><path class="cls-26" d="M332.71,216.31a1.41,1.41,0,0,0,.87-1.14c.1-1.11-.31-2.63-2.24-2.53a32.9,32.9,0,0,0-8.91,2.15.52.52,0,0,0-.27.42s-.32,2.13.47,2.8a3.73,3.73,0,0,0,2.92.53A37,37,0,0,0,332.71,216.31Z"/><path class="cls-25" d="M322.28,214.27a22.84,22.84,0,0,1,3.79-1.37c1.05,0,3.44-.35,5.12-.41,2.18-.07,2.94,1.91,1.73,2.79a7.3,7.3,0,0,1-1.66.71,32.38,32.38,0,0,1-5.86,1.6,3.08,3.08,0,0,1-2.82-.74A3,3,0,0,1,322.28,214.27Z"/><path class="cls-28" d="M314.59,147.24a18,18,0,0,1,4.06-4.05c1.37-1,4.77,3.87,3.7,5-2.78,2.9-9.1,7.87-9.1,7.87C313,151.19,312.83,150.24,314.59,147.24Z"/><path class="cls-28" d="M328.07,179.82c-.19-2.66-.21-5-.17-7.25.16-11.58,2.55-17.47.19-19.55-3-2.61-9.13-6.08-10.74-6.07a3.42,3.42,0,0,0-3.58,2.84c-.94,5.56-.4,12.27-.21,16.06.26,5.53.43,9.8.44,12.46C314.05,182.36,328,183.27,328.07,179.82Z"/><path class="cls-52" d="M313,191.84s.41-3.74.54-9.69c.05-2.75.08-5.59.1-8.08,0,0,6.11,3.42,7,5.14l-.23,9.13-.55,4.83-2.54,17.42c-.38,1.77-5.55,1.53-5.58-.18C312.15,201.86,313,191.84,313,191.84Z"/><path class="cls-27" d="M313.56,178c0-2.22.07-7.14,0-11,.2.91.7,1.74.8.13.09-1.25-.08-5-.13-6.22-.17-4.54,0-10.9,1.77-13.23a2.6,2.6,0,0,1,2.57-.49,6.78,6.78,0,0,0-1.26,1c-1.28,1.3-1.5,6.47-1.57,9.11,0,1.26.21,4.58.37,6.39,0,.26.92.79,1,.54,2.12-6.78,3.92-12.48,9.21-12.5.77.14,1.47.77,1.45,1.12-.65-.48-1.72-.19-2.72.37a7.73,7.73,0,0,0-3,3.28,23,23,0,0,0-2.72,9.16c-.92,8.86,7.09,8.9,8.58,6.95.07,2.24,1,16.73,1.11,21.13a17.22,17.22,0,0,1,0,1.9c-.26,3.89-.78,18.47-.91,19.1-.35,1.66-6.08,1.63-6.1-.17,0-1.37-.7-19.48-.7-19.48-.31-3.62-.62-8.44-1.19-11.48C319.8,182.11,314.43,178.41,313.56,178Z"/><path class="cls-29" d="M320.25,142.46c.33-.36,6.63-7.82,6.84-8.28a3.5,3.5,0,0,1,.61-1.1c1.55-1.59,5.28-1.67,5.58,0,.1.6-1.22,1.3-2.27,2.24a13.92,13.92,0,0,1-1.26.85c-.22.14-6.77,8.39-7.56,9.49C321.74,146.29,319.33,144.72,320.25,142.46Z"/><path class="cls-29" d="M329,158.56c-1.24-1.24-1.44-3.83.32-4.41,2.63-.85,6.91-2.42,8.68-2.86.43-.11,7.85-5,7.85-5a3.46,3.46,0,0,0,.84-1.35c.07-.22.17-.49.29-.79.19-.5,1.13-2.35,2.32-2.13,2.41.43,2.16,2.16,1.7,3.3a5,5,0,0,1-1.76,2.12,3.62,3.62,0,0,0-.82.74s-8.53,7.27-9.18,7.49C336.28,156.62,329.84,159.39,329,158.56Z"/><path class="cls-28" d="M335.35,158.38c-1.63.44-7.34,1.76-8.94,2-2.22.33-4.59-2.73-2-5.67,1.59-1.82,6.74-2.33,8.9-2.92C336.19,151,337.16,157.9,335.35,158.38Z"/><path class="cls-29" d="M317.81,148.27c0-.33,0-1.45,0-1.45l4.08-3.24,2.17,5.75c0,.31,0,.6,0,.85l1.05.67c.08.68-3.62,1.63-6.91-.27a1.67,1.67,0,0,1-.83-.94C317.2,149,317.76,148.88,317.81,148.27Z"/><path class="cls-29" d="M326.32,142c-.1,1.09-.21,2.19-.34,3.28s-.37,2-.49,3.06a1.56,1.56,0,0,1-.15.6,1.62,1.62,0,0,1-.5.51c-1,.67-1.85.47-3,.36a8,8,0,0,1-2.66-.77c-.48-.24-1.14-.24-1.19-.77-.12-1.38-.44-2.11-.46-2.57-.06-2.12.93-3.09,1.82-5a6.18,6.18,0,0,1,.87-1.52,5.8,5.8,0,0,1,3.42-1.58,2.5,2.5,0,0,1,2.18.3,2.27,2.27,0,0,1,.57,1.54A15.92,15.92,0,0,1,326.32,142Z"/><path class="cls-30" d="M326.46,141.23c-.11.55-.57,1-.7,1.5a20.06,20.06,0,0,0-.3,2.2,1,1,0,0,1-.14.45c-.13.2-.38.22-.46.13s0-1.35,0-1.41c0-.39-.06-.66-.49-.75a.71.71,0,0,0-.5,0c-1.46.71,1,5-3.74,4.58-.39,0-.9.07-1.23-.17a2.19,2.19,0,0,0-1.15-.56c-1-.3-.83-.85-1.27-1.81a7.66,7.66,0,0,1-.29-1.44,8.08,8.08,0,0,1,.09-1.2,5.05,5.05,0,0,1,0-1.9c.09-.23,0-.4.09-.64s-.08-.7-.09-1.06c0-.63.48-1.1.78-1.6.12-.21.18-.53.36-.7s.51-.16.72-.32a2.69,2.69,0,0,0,.3-.37c.37-.41.82-.25,1.27-.4s.75-.43,1.19-.4.8.37,1.24.39c.83,0,1.39-.55,2.19.13.62.54.85,1.32,1.55,1.85a2.86,2.86,0,0,1,.85,1.09,1.57,1.57,0,0,1,.28,1.24C326.85,140.53,326.56,140.74,326.46,141.23Z"/><path class="cls-27" d="M318.19,142.42a12.46,12.46,0,0,0,9.28-1.48c2.88-1.79.74-4.47-1.76-4.12a4,4,0,0,0-5.3-.92C317.35,137.73,315,141.43,318.19,142.42Z"/><path class="cls-53" d="M316.23,138.72c.45-1.93,1.78-3.34,5.45-3.67a5.86,5.86,0,0,1,1.18,0,4.41,4.41,0,0,1,3.81,4.05,13.59,13.59,0,0,1,.06,2.24,11.63,11.63,0,0,1-3.43,1.17c-2.57.43-5.88.27-6.84-.93C316,141.17,315.94,140,316.23,138.72Z"/><path class="cls-29" d="M331.06,136.06a8.9,8.9,0,0,0,.79.59,3.2,3.2,0,0,1-1.07,0,8.75,8.75,0,0,1-1.46-.26c-.45-.34.13-.92.66-1.51.32-.35,1.1-.68,1,0S330.93,135.9,331.06,136.06Z"/><polygon class="cls-18" points="361.36 171.94 361.36 218.33 353.88 222.65 361.36 171.94"/><polygon class="cls-54" points="360.82 171.97 351.55 166.59 344.09 217.48 353.35 222.86 360.82 171.97"/><polygon class="cls-12" points="361.45 171.75 352.19 166.36 351.55 166.59 360.82 171.97 361.45 171.75"/><polygon class="cls-11" points="360.82 171.97 353.35 222.86 353.97 222.64 361.45 171.75 360.82 171.97"/><path class="cls-26" d="M217.71,277.54c-.78-.59-.89-3.51,2.28-4,2-.31,7.43,1.66,9.95,2.93a3.42,3.42,0,0,1-.34,3,3.54,3.54,0,0,1-3.23.84C224.38,280,219.06,278.55,217.71,277.54Z"/><path class="cls-25" d="M230.11,270.38l-1.56-1.24-4.6,1.14-.18,3.28a12.33,12.33,0,0,0-3.79-.37c-3.15.5-2.95,2.86-2.18,3.45,1.34,1,6.62,2.46,8.6,2.69,1.15.13,2.48.06,3.2-.84a2.47,2.47,0,0,0,.49-1.84c0-.46-.06-.92-.05-1.38Z"/><path class="cls-27" d="M223.52,274c.38,2.38,6.32,2.74,6.73.36.37-2.12-.32-10.22-.32-10.22a53,53,0,0,0,6.77,2.57,5.76,5.76,0,0,0,4.07-.1c.2,2.61.61,8,.79,8.31.9,1.58,9.21,5.33,11.65,6,2.11.59,7.21-4.53,4.34-6.42-1.82-1.2-6.61-3.47-8.3-4.87,0,0-.42-18.38-.46-15.15,0,1.41-.18-4.93-1.58-5-2.88-.1-6.1-.84-8.57.64-1.91,1.15-1.85,5.4-1.85,5.4s-14.18-5.26-14.66.71C221.79,260.55,223.46,273.69,223.52,274Z"/><path class="cls-25" d="M239.47,235.74a1.93,1.93,0,0,0,0-1.21,10,10,0,0,0-3.84-3.12,5.08,5.08,0,0,0-2.5.37c-1,.4.44,2.09,1.26,3.55.66,1.17,2.15,1.39,3.69,1.83C238.73,237.3,239.24,236.52,239.47,235.74Z"/><path class="cls-29" d="M246.39,236.83l-6.93-2.28c-.83-.37-2,2-1.53,2.37.09.05,8.77,4.59,10.89,3.06Z"/><polygon class="cls-4" points="225.85 248.3 225.85 248.85 243.48 238.67 243.48 238.13 225.85 248.3"/><polygon class="cls-3" points="225.85 248.3 225.85 248.85 208.26 238.69 208.26 238.15 225.85 248.3"/><polygon class="cls-10" points="243.48 238.13 225.85 248.3 208.22 238.13 225.85 227.95 243.48 238.13"/><path class="cls-25" d="M234.62,232.57a28,28,0,0,0,3.72,1.08,4.54,4.54,0,0,1,0,1.47,10.49,10.49,0,0,1-4.43-1.71C233.14,232.55,233.69,232.21,234.62,232.57Z"/><path class="cls-28" d="M244.71,227.8c4.31-1.92,6.29,5.5,4.08,9.15C247.92,238.4,243.11,228.52,244.71,227.8Z"/><path class="cls-28" d="M248.15,228.87a1.92,1.92,0,0,0-2-1.28c-3.71.26-8.8,3.42-12.08,5.57a2.43,2.43,0,0,0-1,1.42c-.73,3.06.53,10,.6,22,0,2.6,14.5,5.39,15.21-1.07C248.88,250.43,249.84,233.93,248.15,228.87Z"/><path class="cls-27" d="M233.6,253.17c0,1.38-.14,8.06-.14,8.06,6.26,4.68,13.18.66,15.54-1.66,0-2.83,0-7.45,0-11.11-.22,1-.61,1.86-.73.06-.09-1.42.1-5.59.15-7,.15-4,.06-8-1-10.86a4.45,4.45,0,0,0-2.79-2.85,4.33,4.33,0,0,0-1.54.47,3.7,3.7,0,0,1,1.82.93c1.45,1.47,1.69,5.23,1.77,8.2,0,1.42-.24,5.16-.42,7.2,0,.29-1,.9-1.13.61-2.25-7.21-3.35-12.29-8.41-13.12a3.16,3.16,0,0,0-2.21.41c-.35.24-.6.5-.58.69a2.64,2.64,0,0,1,2.72.16,6.88,6.88,0,0,1,2.87,2.93,26.2,26.2,0,0,1,3.17,10.54C243.62,255.46,235.28,255.36,233.6,253.17Z"/><path class="cls-29" d="M244.15,228.66a.9.9,0,0,1-.13-.4c0-.33,0-.67,0-1a10.3,10.3,0,0,0,0-1.36c-.09-.63-.88-.5-1.37-.73a14.87,14.87,0,0,0-2.6-.76,2.28,2.28,0,0,1-.44-.15,4.34,4.34,0,0,0-.54-.33c-.16,0-.32,0-.49-.11a10,10,0,0,1-1.14-.53,45,45,0,0,1,.54,7.4l-.91.64c.44,1,4.37.78,6.58-.76a1.85,1.85,0,0,0,.83-.94C244.55,229.2,244.31,229,244.15,228.66Z"/><path class="cls-29" d="M235.4,221.46c.11,1.13.23,2.27.36,3.4s.38,2.11.51,3.16a1.66,1.66,0,0,0,.15.63,1.61,1.61,0,0,0,.52.52c1,.7,1.91.49,3.07.38a8.29,8.29,0,0,0,2.75-.8c.5-.25,1.18-.24,1.23-.8.12-1.42.46-2.18.48-2.65.06-2.21-1-3.21-1.89-5.21a6.6,6.6,0,0,0-.9-1.57,6,6,0,0,0-3.54-1.64,2.64,2.64,0,0,0-2.26.31,2.32,2.32,0,0,0-.59,1.59A18.49,18.49,0,0,0,235.4,221.46Z"/><path class="cls-30" d="M235.26,220.64c.12.57.59,1,.73,1.55a21.91,21.91,0,0,1,.31,2.28,1.11,1.11,0,0,0,.14.47c.14.21.4.23.48.13s0-1.4,0-1.46c0-.41.07-.68.51-.78a.78.78,0,0,1,.52,0c1.51.73-1,5.21,3.86,4.74.41,0,.94.07,1.28-.18a2.34,2.34,0,0,1,1.19-.58c1-.31.86-.88,1.32-1.87a8.2,8.2,0,0,0,.3-1.49,10.34,10.34,0,0,0-.09-1.24,5.48,5.48,0,0,0,0-2c-.1-.23,0-.41-.09-.65s.08-.73.09-1.1c0-.65-.5-1.14-.81-1.66-.13-.22-.19-.55-.38-.73s-.52-.16-.74-.33a2.85,2.85,0,0,1-.31-.38c-.38-.43-.85-.26-1.32-.41s-.78-.45-1.23-.42-.83.38-1.29.4c-.86,0-1.44-.56-2.26.14-.65.56-.88,1.37-1.61,1.91a3.15,3.15,0,0,0-.88,1.13,1.65,1.65,0,0,0-.29,1.29C234.86,219.91,235.16,220.13,235.26,220.64Z"/><path class="cls-25" d="M217.24,246c-.34-.41-1.44-2.41-.21-2.26l2,1.16c.5.09,1.37-.58,2.11-.4a12,12,0,0,0,1.44.33c.77,0,.36,3.34-.53,3.38C221.21,248.63,218.43,247.43,217.24,246Z"/><path class="cls-29" d="M237.75,235.7c-.83-2.09-2.74-2-4.2.09-.6.88-1.8,5.21-3.27,9.64,0,0-6.3-.2-7.76-.35-1,0-1.22,2.73-.38,2.92s1.44.19,1.85.26c1.16.19,7.21,1.22,8.14.66C234.63,247.4,238.81,238.37,237.75,235.7Z"/><path class="cls-28" d="M233.72,244.5c.94.2,2.39.23,2.61-.38a22,22,0,0,0,2.25-7.28c.34-3.19-4-5.61-5.29-2.91-.72,1.56-3,8.18-3,8.18C229.85,243.11,232.26,244.19,233.72,244.5Z"/><path class="cls-25" d="M254,281c3.24,1.48,2.23.94,3.28,1.88,6.69,6.05,10.49,2.47,8.25-1.73-1.81-3.4-5.53-5.5-6.94-6.13-1.64-.73-1.91-.72-3.27.16C254.16,275.9,252,280.11,254,281Z"/><path class="cls-26" d="M256.1,279.36a13.53,13.53,0,0,0,1.87,1.91c1.64,1.54,5,5.33,7.57,3.58,1.3-.89.44-3.14-.14-4.2a15.42,15.42,0,0,0-5-4.93C257,273.51,254.19,276.91,256.1,279.36Z"/><path class="cls-27" d="M243.83,221.87a12.94,12.94,0,0,1-9.62-1.53c-3-1.85-.76-4.64,1.83-4.27a4.12,4.12,0,0,1,5.49-.95C244.7,217,247.11,220.84,243.83,221.87Z"/><path class="cls-55" d="M245.86,218c-.46-2-1.84-3.46-5.65-3.8a6.28,6.28,0,0,0-1.22,0,4.54,4.54,0,0,0-3.94,4.19,13.73,13.73,0,0,0-.07,2.33,12,12,0,0,0,3.56,1.21c2.66.44,6.09.27,7.08-1C246.14,220.58,246.16,219.33,245.86,218Z"/><path class="cls-25" d="M220.9,243.26c.78.77,1.24,1.07,1.52,1.66,0,0-1.62.55-2-.15-.26-.43-1.68-2-1.22-2.3S220.42,242.79,220.9,243.26Z"/><polygon class="cls-4" points="213.96 306.14 213.96 306.69 231.59 296.51 231.59 295.97 213.96 306.14"/><polygon class="cls-3" points="213.96 306.14 213.96 306.69 196.37 296.53 196.37 295.99 213.96 306.14"/><polygon class="cls-10" points="231.59 295.96 213.96 306.14 196.34 295.96 213.96 285.79 231.59 295.96"/><polygon class="cls-4" points="213.73 305.1 213.73 305.64 231.35 295.47 231.35 294.93 213.73 305.1"/><polygon class="cls-3" points="213.73 305.1 213.73 305.64 196.13 295.49 196.13 294.94 213.73 305.1"/><polygon class="cls-10" points="231.35 294.93 213.73 305.1 196.1 294.93 213.73 284.75 231.35 294.93"/><polygon class="cls-4" points="214.17 304.46 214.17 305 231.8 294.83 231.8 294.29 214.17 304.46"/><polygon class="cls-3" points="214.17 304.46 214.17 305 196.58 294.85 196.58 294.3 214.17 304.46"/><polygon class="cls-10" points="231.8 294.29 214.17 304.46 196.54 294.29 214.17 284.11 231.8 294.29"/><polygon class="cls-4" points="213.9 303.29 213.9 303.83 231.52 293.65 231.52 293.11 213.9 303.29"/><polygon class="cls-3" points="213.9 303.29 213.9 303.83 196.3 293.67 196.3 293.13 213.9 303.29"/><polygon class="cls-10" points="231.53 293.11 213.9 303.29 196.27 293.11 213.9 282.93 231.53 293.11"/><polygon class="cls-4" points="199.1 318.39 199.1 318.93 216.72 308.75 216.72 308.21 199.1 318.39"/><polygon class="cls-3" points="199.1 318.39 199.1 318.93 181.5 308.77 181.5 308.23 199.1 318.39"/><polygon class="cls-10" points="216.72 308.21 199.1 318.39 181.47 308.21 199.1 298.03 216.72 308.21"/><polygon class="cls-4" points="198.75 317.71 198.75 318.25 216.37 308.08 216.37 307.54 198.75 317.71"/><polygon class="cls-3" points="198.75 317.71 198.75 318.25 181.15 308.1 181.15 307.55 198.75 317.71"/><polygon class="cls-10" points="216.38 307.53 198.75 317.71 181.12 307.53 198.75 297.36 216.38 307.53"/><polygon class="cls-4" points="199.11 317.02 199.11 317.56 216.73 307.39 216.73 306.85 199.11 317.02"/><polygon class="cls-3" points="199.11 317.02 199.11 317.56 181.51 307.4 181.51 306.86 199.11 317.02"/><polygon class="cls-10" points="216.73 306.84 199.11 317.02 181.48 306.84 199.11 296.67 216.73 306.84"/><polygon class="cls-4" points="199.26 316.09 199.26 316.64 216.89 306.46 216.89 305.92 199.26 316.09"/><polygon class="cls-3" points="199.26 316.09 199.26 316.64 181.67 306.48 181.67 305.94 199.26 316.09"/><polygon class="cls-10" points="216.89 305.92 199.26 316.09 181.64 305.92 199.26 295.74 216.89 305.92"/><g id="Axonometric_Cube-10" data-name="Axonometric Cube"><polygon id="Cube_face_-_left-13" data-name="Cube face - left" class="cls-56" points="213.21 221.84 212.2 221.26 212.2 219.28 213.21 219.86 213.21 221.84"/><polygon id="Cube_face_-_right-5" data-name="Cube face - right" class="cls-57" points="214.71 220.97 213.21 221.84 213.21 219.86 214.71 218.99 214.71 220.97"/><polygon id="Cube_face_-_top-7" data-name="Cube face - top" class="cls-58" points="213.21 219.86 212.2 219.28 213.71 218.41 214.71 218.99 213.21 219.86"/></g><g id="Axonometric_Cube-11" data-name="Axonometric Cube"><polygon id="Cube_face_-_left-14" data-name="Cube face - left" class="cls-56" points="188.57 236.06 187.57 235.48 187.57 233.5 188.57 234.08 188.57 236.06"/><polygon id="Cube_face_-_right-6" data-name="Cube face - right" class="cls-28" points="213.3 221.78 188.57 236.06 188.57 234.08 213.3 219.8 213.3 221.78"/><polygon id="Cube_face_-_top-8" data-name="Cube face - top" class="cls-40" points="188.57 234.08 187.57 233.5 212.3 219.22 213.3 219.8 188.57 234.08"/><polygon class="cls-57" points="202.85 225.84 202.85 226.88 200.37 228.31 200.37 226.91 202.85 225.84"/><polygon id="Cube_face_-_top-9" data-name="Cube face - top" class="cls-59" points="200.36 227.27 199.36 226.69 201.85 225.26 202.85 225.84 200.36 227.27"/></g><g id="Axonometric_Cube-12" data-name="Axonometric Cube"><polygon id="Cube_face_-_left-15" data-name="Cube face - left" class="cls-60" points="187.11 236.9 186.11 236.32 186.11 234.34 187.11 234.92 187.11 236.9"/><polygon id="Cube_face_-_right-7" data-name="Cube face - right" class="cls-57" points="188.62 236.03 187.11 236.9 187.11 234.92 188.62 234.05 188.62 236.03"/><polygon id="Cube_face_-_top-10" data-name="Cube face - top" class="cls-61" points="187.11 234.92 186.11 234.34 187.62 233.47 188.62 234.05 187.11 234.92"/></g><path class="cls-57" d="M210.33,221.8c.21-.11.41-.11.53,0a1,1,0,0,1-.22,1.07,1.39,1.39,0,0,1-.3.26c-.21.12-.41.11-.52-.05a1,1,0,0,1,.22-1.06A1,1,0,0,1,210.33,221.8Z"/><path class="cls-57" d="M191.85,232.47c.21-.11.41-.11.53.05a1,1,0,0,1-.22,1.07,1.39,1.39,0,0,1-.3.26c-.21.12-.41.11-.52,0a1,1,0,0,1,.22-1.06A1,1,0,0,1,191.85,232.47Z"/><path class="cls-28" d="M199.52,263.92c0,.45,3.45.73,6.91.78s6.92-.33,6.92-.78l0,.3s0,0,0-.06l-.93,10a2.94,2.94,0,0,1-1.74,2.39,9.43,9.43,0,0,1-8.49,0,2.94,2.94,0,0,1-1.74-2.39l-.93-10s0,0,0,.06Z"/><path id="Cylinder_body-5" data-name="Cylinder body" class="cls-28" d="M199.07,262.85v.85a3.63,3.63,0,0,0,2.16,3.05,11.55,11.55,0,0,0,10.46,0,3.7,3.7,0,0,0,2.16-3v-.84a3.7,3.7,0,0,1-2.16,3,11.55,11.55,0,0,1-10.46,0A3.64,3.64,0,0,1,199.07,262.85Z"/><ellipse id="Cylinder_face-9" data-name="Cylinder face" class="cls-40" cx="206.46" cy="262.89" rx="7.39" ry="4.27"/><path id="Cylinder_face-10" data-name="Cylinder face" class="cls-28" d="M201.7,265.64a10.57,10.57,0,0,0,9.52,0c2.62-1.52,2.62-4,0-5.5a10.57,10.57,0,0,0-9.52,0C199.08,261.66,199.08,264.12,201.7,265.64Z"/><path class="cls-9" d="M201.7,260.93a10.57,10.57,0,0,1,9.52,0,2.4,2.4,0,0,1,0,4.71,10.57,10.57,0,0,1-9.52,0,2.4,2.4,0,0,1,0-4.71Z"/><path class="cls-25" d="M206,254.32a3.71,3.71,0,0,1,3.8-.27c1.33.77,2.1,2.54,2.1,4.86a9.9,9.9,0,0,1-.07,1l-.1-.07c-.18-.1-.38-.17-.57-.26,0-.23,0-.47,0-.7,0-2.07-.64-3.62-1.75-4.26a3,3,0,0,0-3.11.26c-2.87,1.66-5.21,6.24-5.21,10.2a9,9,0,0,0,.07.94v.06a.33.33,0,0,1-.31.35.38.38,0,0,1-.38-.33,8,8,0,0,1-.08-1C200.41,260.93,202.9,256.08,206,254.32Z"/><polygon class="cls-9" points="193.51 269.46 185.13 274.35 188.6 275.47 195.5 271.49 193.51 269.46"/><polygon class="cls-25" points="197.01 272.21 195.47 271.36 188.57 275.34 188.57 275.56 190.11 276.61 197.01 272.63 197.01 272.21"/><path class="cls-25" d="M198.54,276.34l-4.92-2.81a1.22,1.22,0,0,0-1.1,0c-.24.14-.28.35-.12.52-.16.17-.12.38.13.53l4.92,2.8a1.22,1.22,0,0,0,1.1,0A.58.58,0,0,0,198.54,276.34Z"/><g id="Axonometric_Cylinder-7" data-name="Axonometric Cylinder"><path id="Cylinder_body-6" data-name="Cylinder body" class="cls-28" d="M157.4,218.18v.68a2.9,2.9,0,0,1-1.72,2.43,9.21,9.21,0,0,1-8.31,0,2.94,2.94,0,0,1-1.72-2.37v-.67a2.94,2.94,0,0,0,1.72,2.37,9.21,9.21,0,0,0,8.31,0A2.9,2.9,0,0,0,157.4,218.18Z"/></g><path class="cls-28" d="M157,219c0,.35-2.74.57-5.5.62s-5.5-.27-5.49-.62l0,.23a.08.08,0,0,1,0,0l.74,7.92a2.36,2.36,0,0,0,1.38,1.9,7.6,7.6,0,0,0,6.75,0,2.36,2.36,0,0,0,1.38-1.9l.74-7.92a.08.08,0,0,1,0,0Z"/><ellipse id="Cylinder_face-11" data-name="Cylinder face" class="cls-40" cx="151.53" cy="218.22" rx="5.88" ry="3.39"/><path id="Cylinder_face-12" data-name="Cylinder face" class="cls-28" d="M155.31,220.4a8.35,8.35,0,0,1-7.57,0c-2.09-1.21-2.09-3.16,0-4.37a8.41,8.41,0,0,1,7.57,0C157.4,217.24,157.4,219.19,155.31,220.4Z"/><path class="cls-9" d="M155.31,216.66a8.35,8.35,0,0,0-7.57,0,1.91,1.91,0,0,0,0,3.74,8.35,8.35,0,0,0,7.57,0,1.91,1.91,0,0,0,0-3.74Z"/><path class="cls-25" d="M150,211.32a1.24,1.24,0,0,0,.12-.44,2.37,2.37,0,0,0-1.23.31c-1.06.61-1.67,2-1.67,3.86,0,.25,0,.52.06.82l.08-.05c.14-.08.3-.14.45-.21a5.46,5.46,0,0,1,0-.56c0-1.64.51-2.88,1.39-3.39a1.88,1.88,0,0,1,.8-.22A.28.28,0,0,1,150,211.32Z"/><path class="cls-62" d="M150.12,208.29a1.94,1.94,0,0,0,.45.6c.86.65,2.51,1.75,1.88,3.39-.06.15-.63-.14-.63-.14-.11.23-.23.5-.55.46a10.2,10.2,0,0,1-1.68-.36,1.38,1.38,0,0,1-.83-.59l-.19-.32c-.13-.23-.31-.69-.34-.72s-.65-1-.73-1.09A4.05,4.05,0,0,1,150.12,208.29Z"/><path class="cls-28" d="M150.76,208.37l-3-9c-.36-2.85-.74-10.87-1.85-11.66-.67-.48-1.14-.22-1.67-.16-1,.5-1.59.58-2,1.28-.82,1.33-1.33.84-1.12,2.23s1.82,7.84,2.44,9.82c.08.26,3.73,9.13,3.73,9.13C147.83,210.91,151.18,209.38,150.76,208.37Z"/><path class="cls-25" d="M151.92,211.4c-.28-.16-.56.31-.27.47,2.28,1.32,4.14,5,4.14,8.11a5.54,5.54,0,0,1-.06.74.27.27,0,0,0,.24.33.3.3,0,0,0,.3-.26,6.54,6.54,0,0,0,.06-.81C156.33,216.66,154.35,212.81,151.92,211.4Z"/><path class="cls-62" d="M150.22,212.55a1.13,1.13,0,0,0,1.49-.2.44.44,0,0,1-.33-.18,3.57,3.57,0,0,1-.48-.93,1.28,1.28,0,0,0-.3-.59c-.22-.2-1.08-.19-1,.19A5.8,5.8,0,0,0,150.22,212.55Z"/><path class="cls-26" d="M142.8,248.4a4.2,4.2,0,0,1-.07.49c0,.4,0,1.22.31,1.5a22,22,0,0,0,2.45,1.52,14.58,14.58,0,0,0,2.43,1.71,8.45,8.45,0,0,0,2.86.51c1.11-.06,2-.33,2.11-1.51a1.68,1.68,0,0,0-.59-1.3c-.56-.41-2.82-.57-4-1.15s-2.49-1.19-3.68-1.86C144.11,248,142.6,247.27,142.8,248.4Z"/><path class="cls-25" d="M143.28,249.8c-1-.92-.42-2.56-.3-3.93a7.72,7.72,0,0,0-.22-2.24l4.66-.58c0,.49.08,1,.11,1.46a9.53,9.53,0,0,0,.69,3.53c.5,1.05,4.47,2.13,4.67,4.37a1.08,1.08,0,0,1-.66,1c-1.42.58-3.3,0-4.61-.78-1.08-.64-1.91-1.66-3-2.19A5,5,0,0,1,143.28,249.8Z"/><path class="cls-26" d="M132,254.08a2.75,2.75,0,0,0-.16.39,4.18,4.18,0,0,0,.21,1.61c1.3,2.16,3.16,4.8,5,5.13,1.62.3,3.2-.18,3.57-1.09a2.54,2.54,0,0,0-.07-1.26,2.31,2.31,0,0,0-1.55-1.64,3.7,3.7,0,0,1-1.6-.93c-1-1-2.39-1.46-3.54-2.19C133.34,253.77,131.88,253,132,254.08Z"/><path class="cls-25" d="M132.34,255.75c-1-.93-.41-2.57-.29-3.94a2.69,2.69,0,0,1,2.31-2.54l2.14-.26c0,.49.08,1,.11,1.46a9.4,9.4,0,0,0,.68,3.53c.43.91,2.89,2.87,3.28,4.81a1.32,1.32,0,0,1-.76,1.41,5.33,5.33,0,0,1-2.24.39C135.34,260.44,132.71,256.07,132.34,255.75Z"/><path class="cls-28" d="M133.32,210.48c.05,1.22,0,2.81,0,2.81,4.16.73,13.19.81,14.38-4.23,0,0,.39-21-2.47-21.6-1.2-.27-11.9,3.33-12.85,6C130.63,198.46,133.05,203.58,133.32,210.48Z"/><path class="cls-27" d="M148,217.56c0-.32,0-.61,0-.83,0-1.4-.08-5.17-.22-9.06s-.45-9.87-.59-10.83a.31.31,0,0,0-.44-.24l-8.57,3.68a.31.31,0,0,0-.19.32c.62,5.92-.57,11.53-4.33,11.3a.32.32,0,0,0-.34.33c.06,1.2-.11,3-.23,5.34-.68,4.34-.58,10.22-.3,17.05l-1,18.92c.37,1.82,5.54,1.67,5.58,0,0,0,3.59-16.41,4.12-23,.44,6.08,1,15.95,1.22,17.61.17,1.49,5.19,1.14,5.55,0,.14-.88.77-16.59.77-16.59S148.7,225.43,148,217.56Z"/><path class="cls-27" d="M135.55,190.77c-.77,1.85.46,4.48,1.41,7a18.27,18.27,0,0,1,1,3.4.62.62,0,0,0,.61.54h.07a.6.6,0,0,0,.53-.68,18.48,18.48,0,0,0-1.11-3.68c-.83-2.23-1.86-5-1.24-6.36a3.77,3.77,0,0,1,4.08-2c1.29.22,4.46,1.41,5,8.15a.63.63,0,0,0,.66.56.61.61,0,0,0,.56-.66c-.47-5.56-2.71-7.77-4.42-8.69C142.15,188.06,136.14,189.35,135.55,190.77Z"/><path class="cls-63" d="M137,185.82c.29-.46,1.14-.29,1.65-.3.81,0,1.62,0,2.43,0,.2,0,1.2,0,1.26.28.11.51.78,1.59.84,2.11.25,1.28.71,2.46.17,3.26a2.71,2.71,0,0,1-.58-.12v3.16l-1.2-2.53c-1.29.7-3.6.69-4.46-1.14.16-1.9-.31-3.78-.19-4.5A.62.62,0,0,1,137,185.82Z"/><path class="cls-40" d="M143.36,188.68s.13,1,.15,1.17a1.39,1.39,0,0,1-.73,1.22c.63.57,1.14,1.08,1.8,1.79a11.08,11.08,0,0,0-.56-2.94A6.5,6.5,0,0,0,143.36,188.68Z"/><path class="cls-40" d="M141.58,191.7l-.76,2.76c-4.42-.54-4.61-3-4.87-3.83.1-.82.86-2,1.16-2,0,0,0,.33.07.88.24.94,1.47,1.56,2.21,1.82A6.19,6.19,0,0,0,141.58,191.7Z"/><path class="cls-62" d="M144,188c-.19.82-.39,1.92-1.18,2.09-1.47.31-4.59-.48-5-1.57-.66-1.82-1.29-3.71-.47-6.06a6,6,0,0,1,1.75-2.6,7.85,7.85,0,0,1,1.94-1.11c2-.85,3.67-.76,3.77,1.26a23.28,23.28,0,0,1,.08,3A17.61,17.61,0,0,1,144,188Z"/><path class="cls-30" d="M142.63,175.89c.32,0,.51.42,1.15.46.42,0,.59.33,1,1,.2.32.16.66.29,1s.24.25.34.6a8.41,8.41,0,0,1,.08,1c.08.51.29.56.17,1.13a14.81,14.81,0,0,1-.86,3c0-4.15.15-3.62-1.07-4-.39-.13-.61.12-1,.18-2.33.43-3.58,1.23-3.67,4,0,.21.08.86-.15,1s-.38-.9-.53-1.09a.71.71,0,0,0-1.07,0c-.56.53-.34,1.42-.15,2.22s.35,1.56.35,1.56a3.13,3.13,0,0,1-1.8-1.68,6,6,0,0,1-.21-.81c-.05-.16-.15-.29-.19-.45s0-.27,0-.39-.22-.34-.3-.53,0-.26-.06-.37-.24-.15-.3-.28,0-1.3,0-1.51a2.36,2.36,0,0,1-.08-1.55,11.17,11.17,0,0,0,.24-1.26c.11-.47.47-.15.6-.62a2.13,2.13,0,0,1,.56-1c.62-.59,1.32-1.52,2.12-1.48.64,0,1.22-.37,1.9-.33A22.4,22.4,0,0,0,142.63,175.89Z"/><g id="Axonometric_Cylinder-8" data-name="Axonometric Cylinder"><path id="Cylinder_body-7" data-name="Cylinder body" class="cls-28" d="M138.24,229.31V230a2.91,2.91,0,0,1-1.72,2.43,9.15,9.15,0,0,1-8.31,0,2.91,2.91,0,0,1-1.72-2.37v-.67a2.91,2.91,0,0,0,1.72,2.37,9.15,9.15,0,0,0,8.31,0A2.91,2.91,0,0,0,138.24,229.31Z"/></g><path class="cls-28" d="M137.88,230.16c0,.36-2.75.58-5.5.62s-5.5-.26-5.49-.62l0,.24s0,0,0-.05l.73,7.92a2.38,2.38,0,0,0,1.39,1.9,7.52,7.52,0,0,0,6.75,0,2.34,2.34,0,0,0,1.38-1.9l.74-7.92s0,0,0,.05Z"/><ellipse id="Cylinder_face-13" data-name="Cylinder face" class="cls-40" cx="132.36" cy="229.34" rx="5.88" ry="3.39"/><path id="Cylinder_face-14" data-name="Cylinder face" class="cls-28" d="M136.15,231.52a8.35,8.35,0,0,1-7.57,0c-2.09-1.2-2.09-3.16,0-4.36a8.35,8.35,0,0,1,7.57,0C138.23,228.36,138.23,230.32,136.15,231.52Z"/><path class="cls-9" d="M136.15,227.78a8.41,8.41,0,0,0-7.57,0,2.9,2.9,0,0,0-1.54,1.87,2.86,2.86,0,0,0,1.54,1.87,8.35,8.35,0,0,0,7.57,0,2.84,2.84,0,0,0,1.53-1.87A2.88,2.88,0,0,0,136.15,227.78Z"/><path class="cls-25" d="M132.76,222.52a3,3,0,0,0-3-.21c-1.06.61-1.67,2-1.67,3.86,0,.26,0,.53.06.83l.08-.06c.14-.08.3-.14.45-.21a5.09,5.09,0,0,1,0-.56c0-1.64.51-2.87,1.39-3.38a2.39,2.39,0,0,1,2.47.21c2.29,1.32,4.14,4.95,4.14,8.11a5.87,5.87,0,0,1-.05.74.27.27,0,0,0,.24.33.31.31,0,0,0,.3-.27,6.52,6.52,0,0,0,.06-.8C137.17,227.78,135.19,223.93,132.76,222.52Z"/><path class="cls-62" d="M132.3,220.19a5.84,5.84,0,0,0-.26-.62,10.24,10.24,0,0,0-.48-1.86,2.36,2.36,0,0,0-2.31.42,8.46,8.46,0,0,0,.23,4.19,2.48,2.48,0,0,0,2.59,1.64,1.86,1.86,0,0,0,1.13-.47c-.25-.28-.74-.44-.78-.61s.21-.28.39-.18.4.27.57.13C133.89,222.43,132.82,221.58,132.3,220.19Z"/><path class="cls-28" d="M132.35,218.38c0-.26.64-11,.64-11s2.68-10.54,1.87-12.94c-.47-1.38.07-2.89-.79-2.7a4.59,4.59,0,0,0-2.7,2.24,23.92,23.92,0,0,0-3.09,12.95s-.14,9.19.39,11.58C129,220,132.38,219.59,132.35,218.38Z"/><polygon class="cls-64" points="202.82 279.04 202.82 279.45 201.87 280 201.87 279.59 202.82 279.04"/><polygon class="cls-65" points="201.32 279.59 201.32 280 200.36 279.45 200.36 279.04 201.32 279.59"/><polygon class="cls-65" points="202.55 280.3 202.55 280.72 201.59 280.16 201.6 279.75 202.55 280.3"/><polygon class="cls-64" points="202.83 280.14 202.82 280.56 202.55 280.72 202.55 280.3 202.83 280.14"/><polygon class="cls-65" points="200.64 280.3 200.64 280.72 200.37 280.56 200.37 280.14 200.64 280.3"/><polygon class="cls-64" points="201.6 279.75 201.59 280.16 200.64 280.72 200.64 280.3 201.6 279.75"/><polygon class="cls-66" points="202.82 279.04 201.87 279.59 202.83 280.14 202.55 280.3 201.6 279.75 200.64 280.3 200.37 280.14 201.32 279.59 200.36 279.04 200.64 278.88 201.59 279.43 202.54 278.88 202.82 279.04"/><polygon class="cls-64" points="203.78 281.27 203.78 281.69 202.82 282.24 202.83 281.83 203.78 281.27"/><polygon class="cls-65" points="202.28 281.83 202.28 282.24 201.32 281.69 201.32 281.27 202.28 281.83"/><polygon class="cls-65" points="203.51 282.54 203.51 282.95 202.55 282.4 202.55 281.98 203.51 282.54"/><polygon class="cls-64" points="203.78 282.38 203.78 282.79 203.51 282.95 203.51 282.54 203.78 282.38"/><polygon class="cls-65" points="201.6 282.54 201.6 282.95 201.32 282.79 201.33 282.38 201.6 282.54"/><polygon class="cls-64" points="202.55 281.98 202.55 282.4 201.6 282.95 201.6 282.54 202.55 281.98"/><polygon class="cls-66" points="203.78 281.27 202.83 281.83 203.78 282.38 203.51 282.54 202.55 281.98 201.6 282.54 201.33 282.38 202.28 281.83 201.32 281.27 201.59 281.11 202.55 281.67 203.5 281.11 203.78 281.27"/><polygon class="cls-64" points="207.23 280.51 207.23 280.93 206.28 281.48 206.28 281.06 207.23 280.51"/><polygon class="cls-65" points="205.73 281.06 205.73 281.48 204.77 280.93 204.77 280.51 205.73 281.06"/><polygon class="cls-65" points="206.96 281.78 206.96 282.19 206 281.64 206 281.22 206.96 281.78"/><polygon class="cls-64" points="207.24 281.62 207.23 282.03 206.96 282.19 206.96 281.78 207.24 281.62"/><polygon class="cls-65" points="205.05 281.78 205.05 282.19 204.78 282.03 204.78 281.62 205.05 281.78"/><polygon class="cls-64" points="206 281.22 206 281.64 205.05 282.19 205.05 281.78 206 281.22"/><polygon class="cls-66" points="207.23 280.51 206.28 281.06 207.24 281.62 206.96 281.78 206 281.22 205.05 281.78 204.78 281.62 205.73 281.06 204.77 280.51 205.04 280.35 206 280.91 206.95 280.35 207.23 280.51"/><polygon class="cls-64" points="198.6 281.48 198.6 281.89 197.65 282.45 197.65 282.03 198.6 281.48"/><polygon class="cls-65" points="197.1 282.03 197.1 282.45 196.14 281.89 196.15 281.48 197.1 282.03"/><polygon class="cls-65" points="198.34 282.75 198.33 283.16 197.38 282.61 197.38 282.19 198.34 282.75"/><polygon class="cls-64" points="198.61 282.59 198.61 283 198.33 283.16 198.34 282.75 198.61 282.59"/><polygon class="cls-65" points="196.43 282.75 196.42 283.16 196.15 283 196.15 282.59 196.43 282.75"/><polygon class="cls-64" points="197.38 282.19 197.38 282.61 196.42 283.16 196.43 282.75 197.38 282.19"/><polygon class="cls-66" points="198.6 281.48 197.65 282.03 198.61 282.59 198.34 282.75 197.38 282.19 196.43 282.75 196.15 282.59 197.1 282.03 196.15 281.48 196.42 281.32 197.38 281.88 198.33 281.32 198.6 281.48"/><polygon class="cls-64" points="150.52 281.68 150.52 282.1 149.56 282.65 149.57 282.24 150.52 281.68"/><polygon class="cls-65" points="149.02 282.24 149.02 282.65 148.06 282.1 148.06 281.68 149.02 282.24"/><polygon class="cls-65" points="150.25 282.95 150.25 283.36 149.29 282.81 149.29 282.4 150.25 282.95"/><polygon class="cls-64" points="150.53 282.79 150.52 283.2 150.25 283.36 150.25 282.95 150.53 282.79"/><polygon class="cls-65" points="148.34 282.95 148.34 283.36 148.07 283.2 148.07 282.79 148.34 282.95"/><polygon class="cls-64" points="149.29 282.4 149.29 282.81 148.34 283.36 148.34 282.95 149.29 282.4"/><polygon class="cls-66" points="150.52 281.68 149.57 282.24 150.53 282.79 150.25 282.95 149.29 282.4 148.34 282.95 148.07 282.79 149.02 282.24 148.06 281.68 148.34 281.53 149.29 282.08 150.24 281.53 150.52 281.68"/><polygon class="cls-64" points="132.4 292.14 132.4 292.56 131.45 293.11 131.45 292.7 132.4 292.14"/><polygon class="cls-65" points="130.9 292.7 130.9 293.11 129.94 292.56 129.94 292.14 130.9 292.7"/><polygon class="cls-65" points="132.13 293.41 132.13 293.82 131.17 293.27 131.18 292.86 132.13 293.41"/><polygon class="cls-64" points="132.41 293.25 132.4 293.67 132.13 293.82 132.13 293.41 132.41 293.25"/><polygon class="cls-65" points="130.22 293.41 130.22 293.82 129.95 293.67 129.95 293.25 130.22 293.41"/><polygon class="cls-64" points="131.18 292.86 131.17 293.27 130.22 293.82 130.22 293.41 131.18 292.86"/><polygon class="cls-66" points="132.4 292.14 131.45 292.7 132.41 293.25 132.13 293.41 131.18 292.86 130.22 293.41 129.95 293.25 130.9 292.7 129.94 292.14 130.22 291.99 131.17 292.54 132.13 291.99 132.4 292.14"/><polygon class="cls-64" points="132.42 271.23 132.41 271.65 131.46 272.2 131.47 271.79 132.42 271.23"/><polygon class="cls-65" points="130.92 271.79 130.92 272.2 129.96 271.65 129.96 271.23 130.92 271.79"/><polygon class="cls-65" points="132.15 272.5 132.15 272.91 131.19 272.36 131.19 271.94 132.15 272.5"/><polygon class="cls-64" points="132.42 272.34 132.42 272.75 132.15 272.91 132.15 272.5 132.42 272.34"/><polygon class="cls-65" points="130.24 272.5 130.24 272.91 129.96 272.75 129.97 272.34 130.24 272.5"/><polygon class="cls-64" points="131.19 271.94 131.19 272.36 130.24 272.91 130.24 272.5 131.19 271.94"/><polygon class="cls-66" points="132.42 271.23 131.47 271.79 132.42 272.34 132.15 272.5 131.19 271.94 130.24 272.5 129.97 272.34 130.92 271.79 129.96 271.23 130.23 271.07 131.19 271.63 132.14 271.07 132.42 271.23"/><polygon class="cls-64" points="114.3 281.69 114.3 282.11 113.34 282.66 113.35 282.25 114.3 281.69"/><polygon class="cls-65" points="112.8 282.25 112.8 282.66 111.84 282.11 111.84 281.69 112.8 282.25"/><polygon class="cls-65" points="114.03 282.96 114.03 283.37 113.07 282.82 113.07 282.41 114.03 282.96"/><polygon class="cls-64" points="114.3 282.8 114.3 283.21 114.03 283.37 114.03 282.96 114.3 282.8"/><polygon class="cls-65" points="112.12 282.96 112.12 283.37 111.85 283.21 111.85 282.8 112.12 282.96"/><polygon class="cls-64" points="113.07 282.41 113.07 282.82 112.12 283.37 112.12 282.96 113.07 282.41"/><polygon class="cls-66" points="114.3 281.69 113.35 282.25 114.3 282.8 114.03 282.96 113.07 282.41 112.12 282.96 111.85 282.8 112.8 282.25 111.84 281.69 112.11 281.54 113.07 282.09 114.02 281.54 114.3 281.69"/><polygon class="cls-64" points="168.68 250.3 168.67 250.72 167.72 251.27 167.72 250.85 168.68 250.3"/><polygon class="cls-65" points="167.18 250.85 167.17 251.27 166.22 250.72 166.22 250.3 167.18 250.85"/><polygon class="cls-65" points="168.41 251.56 168.41 251.98 167.45 251.43 167.45 251.01 168.41 251.56"/><polygon class="cls-64" points="168.68 251.41 168.68 251.82 168.41 251.98 168.41 251.56 168.68 251.41"/><polygon class="cls-65" points="166.5 251.56 166.5 251.98 166.22 251.82 166.22 251.41 166.5 251.56"/><polygon class="cls-64" points="167.45 251.01 167.45 251.43 166.5 251.98 166.5 251.56 167.45 251.01"/><polygon class="cls-66" points="168.68 250.3 167.72 250.85 168.68 251.41 168.41 251.56 167.45 251.01 166.5 251.56 166.22 251.41 167.18 250.85 166.22 250.3 166.49 250.14 167.45 250.69 168.4 250.14 168.68 250.3"/><polygon class="cls-64" points="168.76 229.34 168.76 229.76 167.81 230.31 167.81 229.9 168.76 229.34"/><polygon class="cls-65" points="167.26 229.9 167.26 230.31 166.3 229.76 166.31 229.34 167.26 229.9"/><polygon class="cls-65" points="168.5 230.61 168.49 231.02 167.54 230.47 167.54 230.06 168.5 230.61"/><polygon class="cls-64" points="168.77 230.45 168.77 230.87 168.49 231.02 168.5 230.61 168.77 230.45"/><polygon class="cls-65" points="166.59 230.61 166.59 231.02 166.31 230.87 166.31 230.45 166.59 230.61"/><polygon class="cls-64" points="167.54 230.06 167.54 230.47 166.59 231.02 166.59 230.61 167.54 230.06"/><polygon class="cls-66" points="168.76 229.34 167.81 229.9 168.77 230.45 168.5 230.61 167.54 230.06 166.59 230.61 166.31 230.45 167.26 229.9 166.31 229.34 166.58 229.19 167.54 229.74 168.49 229.19 168.76 229.34"/><polygon class="cls-64" points="186.88 218.89 186.87 219.3 185.92 219.85 185.92 219.44 186.88 218.89"/><polygon class="cls-65" points="185.38 219.44 185.37 219.85 184.42 219.3 184.42 218.89 185.38 219.44"/><polygon class="cls-65" points="186.61 220.15 186.61 220.57 185.65 220.01 185.65 219.6 186.61 220.15"/><polygon class="cls-64" points="186.88 219.99 186.88 220.41 186.61 220.57 186.61 220.15 186.88 219.99"/><polygon class="cls-65" points="184.7 220.15 184.7 220.57 184.42 220.41 184.43 219.99 184.7 220.15"/><polygon class="cls-64" points="185.65 219.6 185.65 220.01 184.7 220.57 184.7 220.15 185.65 219.6"/><polygon class="cls-66" points="186.88 218.89 185.92 219.44 186.88 219.99 186.61 220.15 185.65 219.6 184.7 220.15 184.43 219.99 185.38 219.44 184.42 218.89 184.69 218.73 185.65 219.28 186.6 218.73 186.88 218.89"/><polygon class="cls-64" points="204.99 208.4 204.99 208.81 204.04 209.36 204.04 208.95 204.99 208.4"/><polygon class="cls-65" points="203.49 208.95 203.49 209.36 202.53 208.81 202.53 208.4 203.49 208.95"/><polygon class="cls-65" points="204.72 209.66 204.72 210.07 203.76 209.52 203.77 209.11 204.72 209.66"/><polygon class="cls-64" points="205 209.5 205 209.92 204.72 210.07 204.72 209.66 205 209.5"/><polygon class="cls-65" points="202.81 209.66 202.81 210.07 202.54 209.92 202.54 209.5 202.81 209.66"/><polygon class="cls-64" points="203.77 209.11 203.76 209.52 202.81 210.07 202.81 209.66 203.77 209.11"/><polygon class="cls-66" points="204.99 208.4 204.04 208.95 205 209.5 204.72 209.66 203.77 209.11 202.81 209.66 202.54 209.5 203.49 208.95 202.53 208.4 202.81 208.24 203.76 208.79 204.72 208.24 204.99 208.4"/><polygon class="cls-64" points="223.15 197.9 223.15 198.31 222.2 198.87 222.2 198.45 223.15 197.9"/><polygon class="cls-65" points="221.65 198.45 221.65 198.87 220.69 198.31 220.69 197.9 221.65 198.45"/><polygon class="cls-65" points="222.88 199.16 222.88 199.58 221.92 199.02 221.93 198.61 222.88 199.16"/><polygon class="cls-64" points="223.16 199 223.15 199.42 222.88 199.58 222.88 199.16 223.16 199"/><polygon class="cls-65" points="220.97 199.16 220.97 199.58 220.7 199.42 220.7 199 220.97 199.16"/><polygon class="cls-64" points="221.93 198.61 221.92 199.02 220.97 199.58 220.97 199.16 221.93 198.61"/><polygon class="cls-66" points="223.15 197.9 222.2 198.45 223.16 199 222.88 199.16 221.93 198.61 220.97 199.16 220.7 199 221.65 198.45 220.69 197.9 220.97 197.74 221.92 198.29 222.88 197.74 223.15 197.9"/><polygon class="cls-64" points="241.26 208.34 241.25 208.75 240.3 209.31 240.31 208.89 241.26 208.34"/><polygon class="cls-65" points="239.76 208.89 239.76 209.31 238.8 208.75 238.8 208.34 239.76 208.89"/><polygon class="cls-65" points="240.99 209.6 240.99 210.02 240.03 209.47 240.03 209.05 240.99 209.6"/><polygon class="cls-64" points="241.26 209.44 241.26 209.86 240.99 210.02 240.99 209.6 241.26 209.44"/><polygon class="cls-65" points="239.08 209.6 239.08 210.02 238.8 209.86 238.81 209.44 239.08 209.6"/><polygon class="cls-64" points="240.03 209.05 240.03 209.47 239.08 210.02 239.08 209.6 240.03 209.05"/><polygon class="cls-66" points="241.26 208.34 240.31 208.89 241.26 209.44 240.99 209.6 240.03 209.05 239.08 209.6 238.81 209.44 239.76 208.89 238.8 208.34 239.07 208.18 240.03 208.73 240.98 208.18 241.26 208.34"/><polygon class="cls-64" points="150.56 260.76 150.55 261.18 149.6 261.73 149.6 261.31 150.56 260.76"/><polygon class="cls-65" points="149.06 261.31 149.06 261.73 148.1 261.18 148.1 260.76 149.06 261.31"/><polygon class="cls-65" points="150.29 262.02 150.29 262.44 149.33 261.89 149.33 261.47 150.29 262.02"/><polygon class="cls-64" points="150.56 261.87 150.56 262.28 150.29 262.44 150.29 262.02 150.56 261.87"/><polygon class="cls-65" points="148.38 262.02 148.38 262.44 148.1 262.28 148.11 261.87 148.38 262.02"/><polygon class="cls-64" points="149.33 261.47 149.33 261.89 148.38 262.44 148.38 262.02 149.33 261.47"/><polygon class="cls-66" points="150.56 260.76 149.6 261.31 150.56 261.87 150.29 262.02 149.33 261.47 148.38 262.02 148.11 261.87 149.06 261.31 148.1 260.76 148.37 260.6 149.33 261.15 150.28 260.6 150.56 260.76"/><g class="cls-1"><polygon class="cls-67" points="78.39 223.3 67.9 217.21 67.9 216.61 95.79 212.65 88.5 218.15 78.39 223.3"/><polygon class="cls-40" points="78.39 222.7 67.9 216.61 85.54 206.42 96.04 212.51 78.39 222.7"/><polygon class="cls-67" points="68.63 216.61 85.53 206.85 95.21 212.48 78.31 222.24 68.63 216.61"/><polygon class="cls-7" points="69.28 216.99 78.31 222.24 94.56 212.85 85.53 207.6 69.28 216.99"/><polygon class="cls-28" points="96.04 212.51 78.39 222.7 78.39 223.3 80.24 223.79 94.05 215.82 96.04 213.11 96.04 212.51"/></g><path class="cls-39" d="M69.63,222.07a.33.33,0,0,1-.17-.62l5.32-3.07-2.28-3.8a.73.73,0,0,1-.08-.56.7.7,0,0,1,.34-.45l.89-.51a.87.87,0,0,1,.88,0l.75.43a.34.34,0,0,1,.13.46.34.34,0,0,1-.46.12l-.75-.44a.24.24,0,0,0-.22,0l-.89.52-.31.26.29-.18L75.35,218a.64.64,0,0,1,.08.52.73.73,0,0,1-.32.43L69.79,222A.33.33,0,0,1,69.63,222.07Z"/><g id="Axonometric_Cylinder-9" data-name="Axonometric Cylinder"><path id="Cylinder_face-15" data-name="Cylinder face" class="cls-6" d="M81.64,218.57c0,.61.43.86,1,.55a2.13,2.13,0,0,0,1-1.67c0-.61-.43-.86-1-.55A2.13,2.13,0,0,0,81.64,218.57Z"/><path id="Cylinder_face-16" data-name="Cylinder face" class="cls-68" d="M81.88,218.42c0,.46.32.64.72.41a1.57,1.57,0,0,0,.71-1.23c0-.46-.32-.64-.71-.41A1.55,1.55,0,0,0,81.88,218.42Z"/><path id="Cylinder_face-17" data-name="Cylinder face" class="cls-69" d="M82.09,218.3c0,.32.23.45.51.29a1.1,1.1,0,0,0,.5-.87c0-.32-.22-.45-.5-.29A1.11,1.11,0,0,0,82.09,218.3Z"/><path id="Cylinder_body-8" data-name="Cylinder body" class="cls-36" d="M83.28,216.83l-7.87-4.54a.68.68,0,0,0-.69.06,2.15,2.15,0,0,0-1,1.67.69.69,0,0,0,.28.62l7.87,4.55a.69.69,0,0,1-.27-.62,2.13,2.13,0,0,1,1-1.67A.66.66,0,0,1,83.28,216.83Z"/></g><g id="Axonometric_Cylinder-10" data-name="Axonometric Cylinder"><path class="cls-25" d="M73.52,218.74a.37.37,0,0,1,.35,0,1.11,1.11,0,0,1,.48.85.33.33,0,0,1-.14.31l-4.75,2.74-.69-1.18Z"/><path id="Cylinder_face-18" data-name="Cylinder face" class="cls-25" d="M69.6,222.36c0,.31-.22.43-.49.28a1.1,1.1,0,0,1-.48-.84c0-.31.22-.44.48-.28A1.06,1.06,0,0,1,69.6,222.36Z"/></g></g></g></g></g></svg>