<svg xmlns="http://www.w3.org/2000/svg" viewBox="0 0 218.91 224"><title>sCalculator-trovel</title><g id="Шар_2" data-name="Шар 2"><g id="Outline"><path d="M7.82,139.48,15.08,154c.86,1.74,1.82,3.45,2.84,5.13L3.39,205.6a8,8,0,0,0,5.23,10A8.18,8.18,0,0,0,11,216a8.07,8.07,0,0,0,2.4-.36l45.67-14.28,27.2,16.32A44.46,44.46,0,0,0,109.1,224h25.8a44.37,44.37,0,0,0,41.2-60.86L171.64,152A87.42,87.42,0,0,0,170,84.07l46.53-46.54a8,8,0,0,0,0-11.31L192.68,2.34a8,8,0,0,0-11.31,0L137.18,46.53a87,87,0,0,0-31.86-12.26l-6.55-1.1A87.28,87.28,0,0,0,84.51,32H73.94A74.3,74.3,0,0,0,7.82,139.48Zm38.87-18.8A41.4,41.4,0,0,1,86.08,91.75a39.89,39.89,0,0,1,4.07.2,40.8,40.8,0,0,1,18.76,6.85L93.37,114.34l11.31,11.31,15.54-15.54a40.8,40.8,0,0,1,6.85,18.76,41.37,41.37,0,0,1-28.73,43.45L23.21,195.8Zm110.06,25.45-1.16,2.9a8.12,8.12,0,0,0,0,5.94l5.65,14.11A28.37,28.37,0,0,1,134.9,208H109.1a28.55,28.55,0,0,1-14.6-4l-15-9,23.58-7.37A57.42,57.42,0,0,0,143,127.28,56.81,56.81,0,0,0,131.7,98.67l7.36-7.36,6.22,6.22a8,8,0,0,0,11.31,0l1.13-1.12a71.21,71.21,0,0,1-1,49.72ZM187,19.31l12.57,12.57L150.9,80.56,138.34,68ZM29.42,68.91A57.84,57.84,0,0,1,73.94,48H84.51a70.74,70.74,0,0,1,11.63,1l6.55,1.09A71.07,71.07,0,0,1,125.6,58.1l-4.23,4.24a8,8,0,0,0,0,11.31L127.71,80l-7.36,7.36A57,57,0,0,0,31.42,115.9L24.7,137.44l-2.56-5.12a58.47,58.47,0,0,1-5.08-14.94A57.73,57.73,0,0,1,29.42,68.87Z"/></g></g></svg>