<svg xmlns="http://www.w3.org/2000/svg" viewBox="0 0 512 512" style="enable-background:new 0 0 512 512" xml:space="preserve"><path d="M362.667 224H352v106.667h-96V352h106.667c5.891 0 10.667-4.776 10.667-10.667V234.667c-.001-5.891-4.776-10.667-10.667-10.667zM256 128v21.333c29.455 0 53.333 23.878 53.333 53.333C309.333 232.122 285.455 256 256 256v21.333c41.237 0 74.667-33.429 74.667-74.667 0-41.237-33.43-74.666-74.667-74.666zM490.667 384h-64c-29.441.035-53.298 23.893-53.333 53.333v64c0 5.891 4.776 10.667 10.667 10.667a10.67 10.67 0 0 0 7.541-3.125l106.667-106.667c1.999-2 3.122-4.711 3.123-7.539 0-5.891-4.774-10.668-10.665-10.669zm-96 91.584v-38.251c0-17.673 14.327-32 32-32h38.251l-70.251 70.251z"/><path d="M448 42.667H245.333V64H448c17.673 0 32 14.327 32 32v294.251L379.584 490.667H256V512h128a10.67 10.67 0 0 0 7.541-3.125l106.667-106.667c2.001-2 3.125-4.713 3.125-7.541V96c-.035-29.441-23.892-53.298-53.333-53.333zM21.333 309.333H64v21.333H21.333zM21.333 437.333H64v21.333H21.333zM21.333 53.333H64v21.333H21.333zM21.333 181.333H64v21.333H21.333z"/><path d="M117.333 21.333V0H32C20.218 0 10.667 9.551 10.667 21.333v469.333C10.667 502.449 20.218 512 32 512h53.333v-21.333H32V21.333h85.333z"/><path d="M21.333 245.333h64v21.333h-64zM21.333 373.333h64v21.333h-64zM21.333 117.333h64v21.333h-64zM160 106.667h21.333v330.667H160z"/><path d="M222.88 91.232 180.213 5.899a11.116 11.116 0 0 0-3.855-3.855c-5.273-3.143-12.095-1.418-15.239 3.855l-42.667 85.333a10.661 10.661 0 0 0-1.12 4.768v405.333c0 5.891 4.776 10.667 10.667 10.667h85.333c5.891 0 10.667-4.776 10.667-10.667V96a10.66 10.66 0 0 0-1.119-4.768zm-20.213 399.435h-64V98.517l32-64 32 64v392.15z"/><path d="M184.459 88.459C179.2 93.685 176.672 96 170.667 96s-8.565-2.315-13.792-7.541A38.013 38.013 0 0 0 128 74.667V96c5.995 0 8.533 2.315 13.792 7.541a38.013 38.013 0 0 0 28.875 13.792 38.014 38.014 0 0 0 28.875-13.792C204.8 98.315 207.328 96 213.333 96V74.667a38.012 38.012 0 0 0-28.874 13.792zM149.333 32H192v21.333h-42.667zM128 426.667h85.333V448H128z"/></svg>