<svg xmlns="http://www.w3.org/2000/svg" viewBox="0 0 512 512" style="enable-background:new 0 0 512 512" xml:space="preserve"><path d="M504 304H344v-16h8a8 8 0 0 0 0-16h-8v-8c0-17.673 14.327-32 32-32 17.673 0 32 14.327 32 32a8 8 0 0 0 16 0c0-26.51-21.49-48-48-48s-48 21.49-48 48v40H193.76a23.848 23.848 0 0 0 6.24-16v-48a8 8 0 0 0-8-8H72a8 8 0 0 0-8 8v48a23.848 23.848 0 0 0 6.24 16H8a8 8 0 0 0-8 8v192a8 8 0 0 0 8 8h496a8 8 0 0 0 8-8V312a8 8 0 0 0-8-8zM80 248h104v40a8 8 0 0 1-8 8H88a8 8 0 0 1-8-8v-40zm48 248H16v-96h112v96zm0-112H16v-64h24a8 8 0 0 0 8 8h48a8 8 0 0 0 8-8h24v64zm240 112H144V320h224v176zm128 0H384v-96h112v96zm0-112H384v-64h24a8 8 0 0 0 8 8h48a8 8 0 0 0 8-8h24v64z"/><path d="M160 440h192a8 8 0 0 0 8-8v-80a8 8 0 0 0-8-8H160a8 8 0 0 0-8 8v80a8 8 0 0 0 8 8zm8-80h176v64H168v-64zM304 464h-96a8 8 0 0 0 0 16h96a8 8 0 0 0 0-16zM88 120h336a8 8 0 0 0 8-8V8a8 8 0 0 0-8-8H88a8 8 0 0 0-8 8v104a8 8 0 0 0 8 8zM264 16h152v88H264V16zM96 16h152v88H96V16z"/><path d="M200 56h-64a8 8 0 0 0 0 16h64a8 8 0 0 0 0-16zM376 56h-64a8 8 0 0 0 0 16h64a8 8 0 0 0 0-16zM91.2 197.6A22.4 22.4 0 0 0 80 216a8 8 0 0 0 16 0c0-1.688.8-2.576 4.8-5.6A22.4 22.4 0 0 0 112 192a22.4 22.4 0 0 0-11.2-18.4c-4.04-3.032-4.8-3.92-4.8-5.6s.8-2.56 4.8-5.6A22.4 22.4 0 0 0 112 144a8 8 0 0 0-16 0c0 1.672-.8 2.56-4.8 5.6A22.4 22.4 0 0 0 80 168a22.4 22.4 0 0 0 11.2 18.4c4 3.032 4.8 3.92 4.8 5.6s-.8 2.56-4.8 5.6zM140.8 162.4A22.4 22.4 0 0 0 152 144a8 8 0 0 0-16 0c0 1.672-.8 2.56-4.8 5.6A22.4 22.4 0 0 0 120 168a22.4 22.4 0 0 0 11.2 18.4c4 3.032 4.8 3.92 4.8 5.6s-.8 2.576-4.8 5.6A22.4 22.4 0 0 0 120 216a8 8 0 0 0 16 0c0-1.688.8-2.576 4.8-5.6A22.4 22.4 0 0 0 152 192a22.4 22.4 0 0 0-11.2-18.4c-4-3.032-4.8-3.92-4.8-5.6s.8-2.584 4.8-5.6zM180.8 162.4A22.4 22.4 0 0 0 192 144a8 8 0 0 0-16 0c0 1.672-.8 2.56-4.8 5.6A22.4 22.4 0 0 0 160 168a22.4 22.4 0 0 0 11.2 18.4c4 3.032 4.8 3.92 4.8 5.6s-.8 2.576-4.8 5.6A22.4 22.4 0 0 0 160 216a8 8 0 0 0 16 0c0-1.688.8-2.576 4.8-5.6A22.4 22.4 0 0 0 192 192a22.4 22.4 0 0 0-11.2-18.4c-4-3.032-4.8-3.92-4.8-5.6s.8-2.584 4.8-5.6z"/></svg>