<svg xmlns="http://www.w3.org/2000/svg" viewBox="0 0 512 512" style="enable-background:new 0 0 512 512" xml:space="preserve"><path d="M452.005 166H286.008c-11.248 0-21.639 3.736-30.001 10.028V10c0-5.523-4.477-10-10-10H19.993c-5.523 0-10 4.477-10 10v246c0 5.523 4.477 10 10 10s10-4.477 10-10V20h206.013v472H29.993V348.131c0-5.523-4.477-10-10-10s-10 4.477-10 10V502c0 5.523 4.477 10 10 10h452.013c5.523 0 10-4.477 10-10V264.28c11.639-4.128 20-15.244 20-28.28v-19.998c.001-27.571-22.43-50.002-50.001-50.002zm10.002 120h-57.5c-5.523 0-10 4.477-10 10s4.477 10 10 10h57.5v186h-206V216.001c0-16.543 13.458-30.001 30.001-30.001s30.001 13.458 30.001 30.001V236c0 5.514-4.486 10-10 10-5.515 0-10.001-4.486-10.001-10v-6.75c0-5.523-4.477-10-10-10s-10 4.477-10 10V236c0 16.542 13.458 30 30.001 30h155.998v20zm20.001-50c-.001 5.514-4.487 10-10.001 10H417.55a10.076 10.076 0 0 0-2.802-5.57 10.076 10.076 0 0 0-7.07-2.93c-2.64 0-5.21 1.07-7.07 2.93-1.512 1.504-2.482 3.48-2.803 5.57h-63.514a29.861 29.861 0 0 0 1.72-10v-19.998c0-11.248-3.736-21.639-10.028-30.001h71.737a9.983 9.983 0 0 0-.042.83c0 2.64 1.06 5.21 2.93 7.07 1.86 1.87 4.43 2.93 7.07 2.93 2.63 0 5.21-1.06 7.07-2.93 1.86-1.86 2.93-4.43 2.93-7.07 0-.278-.018-.554-.042-.83h34.371c16.543 0 30.001 13.458 30.001 30.001V236z"/><path d="M373.077 288.93a10.077 10.077 0 0 0-7.07-2.93c-2.63 0-5.21 1.07-7.07 2.93s-2.93 4.44-2.93 7.07 1.07 5.21 2.93 7.07c1.86 1.86 4.44 2.93 7.07 2.93s5.21-1.07 7.07-2.93c1.86-1.86 2.93-4.44 2.93-7.07s-1.07-5.21-2.93-7.07zM79.406 120.93a10.058 10.058 0 0 0-7.07-2.93c-2.63 0-5.21 1.07-7.07 2.93-1.86 1.86-2.93 4.44-2.93 7.07s1.07 5.21 2.93 7.07c1.86 1.86 4.44 2.93 7.07 2.93 2.64 0 5.21-1.07 7.07-2.93 1.87-1.86 2.93-4.44 2.93-7.07a10.025 10.025 0 0 0-2.93-7.07zM109.746 120.93c-1.87-1.86-4.44-2.93-7.07-2.93s-5.21 1.07-7.08 2.93a10.066 10.066 0 0 0-2.92 7.07 10.075 10.075 0 0 0 2.92 7.07 10.1 10.1 0 0 0 7.08 2.93c2.63 0 5.21-1.07 7.07-2.93 1.86-1.86 2.93-4.44 2.93-7.07s-1.07-5.21-2.93-7.07zM140.077 120.93c-1.86-1.86-4.44-2.93-7.07-2.93s-5.21 1.07-7.07 2.93-2.93 4.44-2.93 7.07 1.07 5.21 2.93 7.07 4.439 2.93 7.07 2.93c2.63 0 5.21-1.07 7.07-2.93s2.93-4.44 2.93-7.07-1.07-5.21-2.93-7.07zM109.747 90.59a10.066 10.066 0 0 0-7.07-2.92c-2.64 0-5.21 1.06-7.08 2.92a10.09 10.09 0 0 0-2.92 7.08c0 2.63 1.06 5.21 2.92 7.07 1.87 1.86 4.45 2.93 7.08 2.93s5.21-1.07 7.07-2.93 2.93-4.44 2.93-7.07a10.1 10.1 0 0 0-2.93-7.08zM109.747 151.26a10.076 10.076 0 0 0-7.07-2.93c-2.64 0-5.21 1.07-7.07 2.93a10.033 10.033 0 0 0-2.93 7.07c0 2.64 1.06 5.21 2.93 7.07 1.86 1.87 4.44 2.93 7.07 2.93s5.21-1.06 7.07-2.93c1.86-1.86 2.93-4.43 2.93-7.07 0-2.63-1.07-5.21-2.93-7.07zM222.867 120.93a10.058 10.058 0 0 0-7.07-2.93c-2.63 0-5.21 1.07-7.07 2.93s-2.93 4.44-2.93 7.07 1.07 5.21 2.93 7.07a10.074 10.074 0 0 0 7.07 2.93c2.64 0 5.21-1.07 7.07-2.93 1.87-1.86 2.93-4.44 2.93-7.07s-1.06-5.21-2.93-7.07zM222.867 376.93a10.058 10.058 0 0 0-7.07-2.93c-2.63 0-5.21 1.07-7.07 2.93s-2.93 4.44-2.93 7.07a10.08 10.08 0 0 0 2.93 7.07c1.86 1.86 4.44 2.93 7.07 2.93 2.64 0 5.21-1.07 7.07-2.93 1.87-1.86 2.93-4.44 2.93-7.07s-1.061-5.21-2.93-7.07zM140.067 248.93a10.076 10.076 0 0 0-7.07-2.93c-2.64 0-5.21 1.07-7.07 2.93a10.033 10.033 0 0 0-2.93 7.07 10.025 10.025 0 0 0 2.93 7.07c1.86 1.86 4.44 2.93 7.07 2.93s5.21-1.07 7.07-2.93 2.93-4.44 2.93-7.07-1.07-5.21-2.93-7.07zM170.398 248.93c-1.86-1.86-4.44-2.93-7.07-2.93s-5.21 1.07-7.07 2.93-2.93 4.44-2.93 7.07a10.067 10.067 0 0 0 2.93 7.07c1.86 1.86 4.44 2.93 7.07 2.93s5.21-1.07 7.07-2.93 2.93-4.44 2.93-7.07-1.071-5.21-2.93-7.07zM200.726 248.93a10.058 10.058 0 0 0-7.07-2.93c-2.63 0-5.21 1.07-7.07 2.93s-2.93 4.44-2.93 7.07 1.07 5.21 2.93 7.07c1.86 1.86 4.44 2.93 7.07 2.93 2.641 0 5.21-1.07 7.07-2.93 1.87-1.86 2.93-4.44 2.93-7.07s-1.06-5.21-2.93-7.07zM61.077 248.93a10.077 10.077 0 0 0-7.07-2.93c-2.63 0-5.21 1.07-7.07 2.93s-2.93 4.44-2.93 7.07 1.07 5.21 2.93 7.07c1.86 1.86 4.44 2.93 7.07 2.93s5.21-1.07 7.07-2.93c1.86-1.86 2.93-4.44 2.93-7.07s-1.07-5.21-2.93-7.07zM170.398 218.6c-1.86-1.87-4.44-2.93-7.07-2.93s-5.21 1.06-7.07 2.93a10.058 10.058 0 0 0-2.93 7.07 10.067 10.067 0 0 0 2.93 7.07c1.86 1.86 4.44 2.93 7.07 2.93s5.21-1.07 7.07-2.93 2.93-4.44 2.93-7.07a10.066 10.066 0 0 0-2.93-7.07zM170.398 279.26c-1.86-1.86-4.44-2.93-7.07-2.93s-5.21 1.07-7.07 2.93-2.93 4.44-2.93 7.07a10.108 10.108 0 0 0 2.93 7.08c1.86 1.86 4.44 2.92 7.07 2.92s5.21-1.06 7.07-2.92c1.86-1.87 2.93-4.45 2.93-7.08a10.084 10.084 0 0 0-2.93-7.07zM170.396 56.93c-1.86-1.86-4.44-2.93-7.07-2.93s-5.21 1.07-7.07 2.93c-1.86 1.86-2.93 4.44-2.93 7.07s1.07 5.21 2.93 7.07a10.077 10.077 0 0 0 7.07 2.93c2.63 0 5.21-1.07 7.07-2.93 1.86-1.86 2.93-4.44 2.93-7.07s-1.07-5.21-2.93-7.07zM170.398 454.87c-1.86-1.86-4.44-2.93-7.07-2.93s-5.21 1.07-7.07 2.93-2.93 4.44-2.93 7.07 1.069 5.21 2.93 7.07c1.86 1.86 4.44 2.93 7.07 2.93s5.21-1.07 7.07-2.93 2.93-4.44 2.93-7.07-1.071-5.21-2.93-7.07zM79.407 376.93a10.06 10.06 0 0 0-7.07-2.93c-2.63 0-5.21 1.07-7.07 2.93-1.86 1.86-2.93 4.44-2.93 7.07s1.07 5.21 2.93 7.07c1.86 1.86 4.44 2.93 7.07 2.93 2.64 0 5.21-1.07 7.07-2.93 1.87-1.86 2.93-4.44 2.93-7.07s-1.06-5.21-2.93-7.07zM109.746 376.93a10.076 10.076 0 0 0-7.07-2.93 10.1 10.1 0 0 0-7.08 2.93 10.066 10.066 0 0 0-2.92 7.07 10.075 10.075 0 0 0 2.92 7.07 10.1 10.1 0 0 0 7.08 2.93c2.63 0 5.21-1.07 7.07-2.93 1.86-1.86 2.93-4.44 2.93-7.07s-1.07-5.21-2.93-7.07zM140.077 376.93a10.077 10.077 0 0 0-7.07-2.93c-2.63 0-5.21 1.07-7.07 2.93s-2.93 4.44-2.93 7.07 1.07 5.21 2.93 7.07c1.86 1.86 4.44 2.93 7.07 2.93s5.21-1.07 7.07-2.93 2.93-4.44 2.93-7.07-1.07-5.21-2.93-7.07zM109.747 346.6a10.033 10.033 0 0 0-7.07-2.93c-2.64 0-5.21 1.06-7.07 2.93a10.016 10.016 0 0 0-2.93 7.07c0 2.63 1.06 5.21 2.93 7.07 1.86 1.86 4.43 2.93 7.07 2.93 2.63 0 5.21-1.07 7.07-2.93 1.86-1.87 2.93-4.44 2.93-7.07s-1.07-5.21-2.93-7.07zM109.747 407.26a10.076 10.076 0 0 0-7.07-2.93c-2.64 0-5.21 1.07-7.07 2.93a10.033 10.033 0 0 0-2.93 7.07c0 2.64 1.06 5.21 2.93 7.07 1.86 1.87 4.43 2.93 7.07 2.93 2.63 0 5.21-1.06 7.07-2.93 1.86-1.86 2.93-4.43 2.93-7.07 0-2.63-1.07-5.21-2.93-7.07zM446.976 376.93a10.076 10.076 0 0 0-7.07-2.93c-2.64 0-5.21 1.07-7.07 2.93-1.87 1.86-2.93 4.44-2.93 7.07s1.06 5.21 2.93 7.07c1.86 1.86 4.43 2.93 7.07 2.93 2.63 0 5.21-1.07 7.07-2.93s2.93-4.44 2.93-7.07-1.07-5.21-2.93-7.07zM384.408 210.1a10.017 10.017 0 0 0-7.07-2.93c-2.63 0-5.21 1.06-7.07 2.93a10.058 10.058 0 0 0-2.93 7.07c0 2.63 1.07 5.21 2.93 7.07s4.44 2.93 7.07 2.93c2.64 0 5.21-1.07 7.07-2.93 1.87-1.86 2.93-4.44 2.93-7.07a10.024 10.024 0 0 0-2.93-7.07zM414.747 210.1a10.037 10.037 0 0 0-7.07-2.93c-2.64 0-5.21 1.06-7.07 2.93a10.016 10.016 0 0 0-2.93 7.07c0 2.63 1.06 5.2 2.93 7.07 1.86 1.86 4.43 2.93 7.07 2.93 2.63 0 5.21-1.07 7.07-2.93 1.86-1.87 2.93-4.44 2.93-7.07 0-2.64-1.07-5.21-2.93-7.07zM445.077 210.1a10.035 10.035 0 0 0-7.07-2.93c-2.63 0-5.21 1.06-7.07 2.93a10.058 10.058 0 0 0-2.93 7.07c0 2.63 1.07 5.21 2.93 7.07s4.44 2.93 7.07 2.93 5.21-1.07 7.07-2.93c1.86-1.86 2.93-4.44 2.93-7.07 0-2.64-1.07-5.21-2.93-7.07zM394.497 454.87a10.06 10.06 0 0 0-7.07-2.93c-2.63 0-5.21 1.07-7.07 2.93-1.86 1.86-2.93 4.44-2.93 7.07s1.07 5.21 2.93 7.07c1.86 1.86 4.44 2.93 7.07 2.93s5.21-1.07 7.07-2.93c1.87-1.86 2.93-4.44 2.93-7.07s-1.06-5.21-2.93-7.07zM303.517 376.93a10.08 10.08 0 0 0-7.07-2.93c-2.64 0-5.21 1.07-7.07 2.93-1.87 1.86-2.93 4.44-2.93 7.07s1.06 5.21 2.93 7.07c1.86 1.86 4.43 2.93 7.07 2.93 2.63 0 5.21-1.07 7.07-2.93 1.86-1.86 2.93-4.44 2.93-7.07s-1.07-5.21-2.93-7.07zM333.848 376.93a10.077 10.077 0 0 0-7.07-2.93c-2.63 0-5.21 1.07-7.07 2.93s-2.93 4.44-2.93 7.07 1.07 5.21 2.93 7.07c1.86 1.86 4.44 2.93 7.07 2.93s5.21-1.07 7.07-2.93c1.86-1.86 2.93-4.44 2.93-7.07s-1.071-5.21-2.93-7.07zM364.177 376.93a10.06 10.06 0 0 0-7.07-2.93c-2.63 0-5.21 1.07-7.07 2.93-1.86 1.86-2.93 4.44-2.93 7.07s1.07 5.21 2.93 7.07c1.86 1.86 4.44 2.93 7.07 2.93 2.64 0 5.21-1.07 7.07-2.93 1.87-1.86 2.93-4.44 2.93-7.07s-1.06-5.21-2.93-7.07zM333.848 346.6a10.035 10.035 0 0 0-7.07-2.93c-2.63 0-5.21 1.06-7.07 2.93a10.058 10.058 0 0 0-2.93 7.07c0 2.63 1.07 5.21 2.93 7.07s4.44 2.93 7.07 2.93 5.21-1.07 7.07-2.93c1.86-1.86 2.93-4.44 2.93-7.07a10.066 10.066 0 0 0-2.93-7.07zM333.848 407.26a10.077 10.077 0 0 0-7.07-2.93c-2.63 0-5.21 1.07-7.07 2.93s-2.93 4.44-2.93 7.07c0 2.64 1.07 5.21 2.93 7.07 1.86 1.87 4.44 2.93 7.07 2.93s5.21-1.06 7.07-2.93c1.86-1.86 2.93-4.43 2.93-7.07a10.084 10.084 0 0 0-2.93-7.07zM27.066 296.79a10.066 10.066 0 0 0-7.07-2.92c-2.64 0-5.21 1.06-7.07 2.92a10.033 10.033 0 0 0-2.93 7.07c0 2.64 1.06 5.21 2.93 7.07a10.017 10.017 0 0 0 7.07 2.93c2.63 0 5.21-1.06 7.07-2.93a10.04 10.04 0 0 0 2.93-7.07c0-2.63-1.07-5.21-2.93-7.07z"/></svg>