<svg xmlns="http://www.w3.org/2000/svg" viewBox="0 0 512 512" style="enable-background:new 0 0 512 512" xml:space="preserve"><path d="M189.085 293.006h15.208v15.208h-15.208zM158.669 293.006h15.208v15.208h-15.208zM155.918 0H51.924L18.809 186.55h62.3v50.693h45.624V186.55h62.3L155.918 0zm-44.393 222.036H96.317V186.55h15.208v35.486zm-74.572-50.693L64.67 15.208h78.501l27.717 156.135H36.953z"/><path d="M451.168 239.778v5.069c0 4.193-3.411 7.604-7.604 7.604h-70.97c-4.193 0-7.604-3.411-7.604-7.604v-5.069h-15.208v5.069c0 12.579 10.234 22.812 22.812 22.812h12.673v17.743c0 4.193-3.411 7.604-7.604 7.604h-98.852v-29.402h-15.208v-16.103c14.513-3.443 25.347-16.504 25.347-32.055 0-18.168-14.781-32.951-32.951-32.951-18.169 0-32.951 14.782-32.951 32.951 0 15.552 10.833 28.612 25.347 32.055v16.103h-15.208v29.402H219.5v15.208h28.895v-29.402h15.208v29.402h114.059c12.578 0 22.812-10.233 22.812-22.812v-17.743h15.208v17.743c0 20.965-17.055 38.02-38.02 38.02H263.604v94.796c0 4.193-3.411 7.604-7.604 7.604s-7.604-3.411-7.604-7.604v-94.796H134.337c-20.965 0-38.02-17.055-38.02-38.02v-17.743h15.208v17.743c0 12.579 10.234 22.812 22.812 22.812h9.125v-15.208h-9.125c-4.193 0-7.604-3.411-7.604-7.604v-17.743h12.673c12.578 0 22.812-10.233 22.812-22.812v-5.069H147.01v5.069c0 4.193-3.411 7.604-7.604 7.604h-70.97c-4.193 0-7.604-3.411-7.604-7.604v-5.069H45.624v5.069c0 12.579 10.234 22.812 22.812 22.812h12.673v17.743c0 29.35 23.878 53.228 53.228 53.228h98.852v79.588c0 12.579 10.234 22.812 22.812 22.812 12.578 0 22.812-10.233 22.812-22.812V338.63h98.852c29.349 0 53.228-23.877 53.228-53.228v-17.743h12.673c12.578 0 22.812-10.233 22.812-22.812v-5.069h-15.21zM256 233.188c-9.783 0-17.743-7.96-17.743-17.743s7.96-17.743 17.743-17.743c9.783 0 17.743 7.96 17.743 17.743s-7.96 17.743-17.743 17.743z"/><path d="M460.076 0H356.082l-33.115 186.55h62.3v50.693h45.624V186.55h62.3L460.076 0zm-44.393 222.036h-15.208V186.55h15.208v35.486zm-74.571-50.693 27.717-156.135h78.501l27.717 156.135H341.112zM359.414 425.822h15.208v15.208h-15.208zM420.246 425.822h15.208v15.208h-15.208zM389.83 425.822h15.208v15.208H389.83zM76.546 425.822h15.208v15.208H76.546zM137.378 425.822h15.208v15.208h-15.208zM106.962 425.822h15.208v15.208h-15.208zM300.905 368.972l-8.701 12.474c17.008 11.862 27.162 31.295 27.162 51.981 0 34.94-28.426 63.366-63.366 63.366s-63.366-28.427-63.366-63.366c0-20.686 10.155-40.119 27.162-51.982l-8.701-12.474c-21.082 14.706-33.669 38.802-33.669 64.455C177.426 476.751 212.675 512 256 512c43.325 0 78.574-35.249 78.574-78.574 0-25.654-12.587-49.749-33.669-64.454z"/><path d="m303.301 424.373-14.936 2.855a33.094 33.094 0 0 1 .05 12.137l14.961 2.736c.52-2.846.784-5.766.784-8.676a48.469 48.469 0 0 0-.859-9.052zM283.985 450.803c-6.083 9.752-16.544 15.574-27.986 15.574-18.169 0-32.951-14.782-32.951-32.951 0-2.076.197-4.161.586-6.197l-14.935-2.857a48.219 48.219 0 0 0-.858 9.053c0 26.554 21.604 48.158 48.158 48.158 16.724 0 32.009-8.498 40.888-22.732l-12.902-8.048z"/></svg>