<svg height="512" width="512" xmlns="http://www.w3.org/2000/svg"><path d="M346 236c5.522 0 10-4.478 10-10v-30c0-5.522-4.478-10-10-10H226c-5.522 0-10 4.478-10 10v240c0 5.522 4.478 10 10 10h120c5.522 0 10-4.478 10-10s-4.478-10-10-10H236v-40h50c5.522 0 10-4.478 10-10s-4.478-10-10-10h-50v-40h100v50c0 5.522 4.478 10 10 10s10-4.478 10-10v-90c0-5.522-4.478-10-10-10s-10 4.478-10 10v20H236V206h40v50c0 5.522 4.478 10 10 10s10-4.478 10-10v-50h40v20c0 5.522 4.478 10 10 10z"/><circle cx="296" cy="502" r="10"/><path d="M457 66c-30.327 0-55 24.673-55 55v5H170V85c0-46.869-38.131-85-85-85S0 38.131 0 85v342c0 46.869 38.131 85 85 85h165.999c5.522 0 10-4.478 10-10s-4.478-10-10-10H139.658C158.681 476.023 170 452.554 170 427V146h232v311c0 5.522 4.478 10 10 10s10-4.478 10-10c0-19.299 15.701-35 35-35s35 15.701 35 35-15.701 35-35 35H341.001c-5.522 0-10 4.478-10 10s4.478 10 10 10H457c30.327 0 55-24.673 55-55V121c0-30.327-24.673-55-55-55zM85 492c-35.841 0-65-29.159-65-65 0-26.534 16.24-50.082 40-60.005V412c0 22.056 17.944 40 40 39.99h45.004C135.08 475.761 111.533 492 85 492zm64.789-60H100c-11.028 0-20-8.972-20-20v-49.789a65.685 65.685 0 0 1 5-.211c35.841 0 65 29.159 65 65 0 1.669-.084 3.337-.211 5zm.211-59.69C134.395 353.793 111.054 342 85 342c-25.547 0-49.019 11.314-65 30.342V85c0-35.841 29.159-65 65-65s65 29.159 65 65zm342 42.294c-9.517-7.87-21.715-12.604-35-12.604s-25.483 4.733-35 12.604V121c0-19.299 15.701-35 35-35s35 15.701 35 35z"/></svg>