<svg xmlns="http://www.w3.org/2000/svg" viewBox="0 0 423.271 423.271"><path d="M288.795 51.787c0 4.756-1.37 6.708-3.639 9.942-1.219 1.736-2.599 3.703-3.768 6.191a7.5 7.5 0 0 0 13.579 6.376c.615-1.312 1.474-2.535 2.468-3.951 2.685-3.825 6.36-9.064 6.36-18.558s-3.677-14.733-6.361-18.558c-2.269-3.234-3.639-5.186-3.639-9.941 0-4.754 1.37-6.705 3.639-9.938.385-.549.77-1.097 1.146-1.657a7.501 7.501 0 0 0-2.029-10.411 7.499 7.499 0 0 0-10.41 2.029c-.324.48-.654.95-.984 1.421-2.685 3.825-6.361 9.063-6.361 18.556 0 9.494 3.677 14.733 6.36 18.558 2.269 3.233 3.639 5.185 3.639 9.941zM196.635 51.787c0 4.756-1.37 6.708-3.639 9.942-1.218 1.736-2.599 3.703-3.767 6.191a7.5 7.5 0 0 0 13.577 6.377c.616-1.312 1.475-2.535 2.468-3.951 2.685-3.825 6.361-9.064 6.361-18.558s-3.676-14.733-6.361-18.558c-2.27-3.234-3.639-5.186-3.639-9.941 0-4.754 1.37-6.706 3.639-9.939.385-.548.77-1.097 1.146-1.656a7.5 7.5 0 0 0-2.03-10.411 7.5 7.5 0 0 0-10.411 2.029c-.323.48-.654.95-.984 1.42-2.685 3.825-6.361 9.063-6.361 18.556 0 9.494 3.676 14.733 6.361 18.558 2.271 3.233 3.64 5.185 3.64 9.941zM104.475 51.787c0 4.756-1.37 6.708-3.639 9.942-1.218 1.736-2.599 3.703-3.767 6.191a7.5 7.5 0 0 0 13.577 6.377c.616-1.312 1.475-2.535 2.468-3.951 2.685-3.825 6.361-9.064 6.361-18.558s-3.676-14.733-6.361-18.558c-2.27-3.234-3.639-5.186-3.639-9.941 0-4.755 1.37-6.707 3.639-9.94.385-.548.769-1.096 1.146-1.655a7.501 7.501 0 0 0-12.44-8.382c-.323.48-.653.949-.983 1.419-2.685 3.825-6.362 9.064-6.362 18.558s3.676 14.733 6.361 18.558c2.27 3.232 3.639 5.184 3.639 9.94zM351.129 112.784c-8.375 0-15.553 5.18-18.528 12.5h-11.972c-4.143 0-7.5 3.358-7.5 7.5s3.357 7.5 7.5 7.5h11.972c2.974 7.32 10.152 12.5 18.528 12.5 11.028 0 20-8.972 20-20s-8.972-20-20-20zm0 25c-2.757 0-5-2.243-5-5s2.243-5 5-5 5 2.243 5 5-2.243 5-5 5zM346.129 384.744v-11.972c0-4.142-3.357-7.5-7.5-7.5s-7.5 3.358-7.5 7.5v11.972c-7.32 2.974-12.5 10.153-12.5 18.528 0 11.028 8.972 20 20 20s20-8.972 20-20c0-8.376-5.18-15.554-12.5-18.528zm-7.5 23.527c-2.757 0-5-2.243-5-5s2.243-5 5-5 5 2.243 5 5-2.243 5-5 5zM253.2 140.284h36.115c4.143 0 7.5-3.358 7.5-7.5s-3.357-7.5-7.5-7.5H253.2c-4.143 0-7.5 3.358-7.5 7.5s3.357 7.5 7.5 7.5zM181.642 254.278h-36.115a7.5 7.5 0 0 0 0 15h36.115a7.5 7.5 0 0 0 0-15zM188.901 197.281a7.5 7.5 0 0 0 7.5 7.5h36.115c4.143 0 7.5-3.358 7.5-7.5s-3.357-7.5-7.5-7.5h-36.115a7.5 7.5 0 0 0-7.5 7.5zM248.855 254.278h-36.114a7.5 7.5 0 0 0 0 15h36.114c4.143 0 7.5-3.358 7.5-7.5s-3.357-7.5-7.5-7.5zM334.874 246.412a7.49 7.49 0 0 0 9.412-4.89 39.733 39.733 0 0 0 1.843-11.992c0-10.871-4.529-21.393-12.426-28.869a7.5 7.5 0 1 0-10.313 10.893c4.99 4.724 7.738 11.108 7.738 17.976a24.76 24.76 0 0 1-1.146 7.471 7.502 7.502 0 0 0 4.892 9.411zM263.615 189.781c-4.143 0-7.5 3.358-7.5 7.5s3.357 7.5 7.5 7.5h36.114c4.143 0 7.5-3.358 7.5-7.5s-3.357-7.5-7.5-7.5h-36.114zM313.707 253.177c-2.36.73-4.826 1.1-7.327 1.1h-26.425c-4.143 0-7.5 3.358-7.5 7.5s3.357 7.5 7.5 7.5h26.425c4.005 0 7.961-.596 11.759-1.77a7.5 7.5 0 0 0-4.432-14.33zM327.833 346.172a7.498 7.498 0 0 0 10.245 2.745 7.5 7.5 0 0 0 2.745-10.246c-7.087-12.273-20.285-19.897-34.443-19.897h-2.307c-4.143 0-7.5 3.358-7.5 7.5s3.357 7.5 7.5 7.5h2.307c8.817 0 17.037 4.751 21.453 12.398zM111.272 132.784a7.5 7.5 0 0 0 7.5 7.5h36.115a7.5 7.5 0 0 0 0-15h-36.115a7.5 7.5 0 0 0-7.5 7.5zM121.928 261.778a7.5 7.5 0 0 0-7.5-7.5H91.89a39.458 39.458 0 0 0-16.244 3.463 7.5 7.5 0 0 0 6.135 13.688 24.563 24.563 0 0 1 10.109-2.15h22.537a7.502 7.502 0 0 0 7.501-7.501zM77.169 313.923c-6.372-4.725-10.027-11.977-10.027-19.896 0-1.542.142-3.085.422-4.584a7.499 7.499 0 0 0-5.994-8.75 7.494 7.494 0 0 0-8.75 5.994 40.04 40.04 0 0 0-.678 7.341c0 12.531 6.016 24.474 16.092 31.945a7.465 7.465 0 0 0 4.461 1.476 7.5 7.5 0 0 0 4.474-13.526zM58.914 161.987a7.5 7.5 0 0 0 2.363.384 7.502 7.502 0 0 0 7.117-5.14c2.971-8.952 10.923-15.522 20.259-16.738a7.5 7.5 0 0 0-1.936-14.874c-15.007 1.954-27.788 12.508-32.559 26.887a7.501 7.501 0 0 0 4.756 9.481zM138.546 318.774h-36.115a7.5 7.5 0 0 0 0 15h36.115a7.5 7.5 0 0 0 0-15zM205.76 318.774h-36.115a7.5 7.5 0 0 0 0 15h36.115a7.5 7.5 0 0 0 0-15zM185.986 140.284H222.1c4.143 0 7.5-3.358 7.5-7.5s-3.357-7.5-7.5-7.5h-36.115a7.5 7.5 0 1 0 .001 15zM121.687 197.281a7.5 7.5 0 0 0 7.5 7.5h36.115a7.5 7.5 0 0 0 0-15h-36.115a7.5 7.5 0 0 0-7.5 7.5zM98.088 189.781h-6.197c-7.858 0-15.077-3.61-19.804-9.904a7.5 7.5 0 0 0-11.994 9.008c7.588 10.102 19.178 15.896 31.798 15.896h6.197a7.5 7.5 0 0 0 0-15zM272.974 318.774h-36.115c-4.143 0-7.5 3.358-7.5 7.5s3.357 7.5 7.5 7.5h36.115c4.143 0 7.5-3.358 7.5-7.5s-3.357-7.5-7.5-7.5z"/></svg>