<svg height="512" viewBox="0 0 480.165 480.165" width="512" xmlns="http://www.w3.org/2000/svg"><path d="M400.738 349.657c-9.445 9.446-2.665 25.606 10.606 25.606 13.26 0 20.063-16.15 10.607-25.606-5.861-5.863-15.35-5.864-21.213 0zm47.377-26.163a8 8 0 0 1-11.314 11.314c-14.068-14.069-36.842-14.07-50.911 0a8 8 0 1 1-11.314-11.314c20.321-20.321 53.214-20.326 73.539 0zm24.041-16.042a7.974 7.974 0 0 1-5.657-2.343c-30.482-30.484-79.823-30.486-110.308 0a8 8 0 0 1-11.314-11.314c36.738-36.737 96.195-36.74 132.937 0 5.046 5.047 1.417 13.656-5.658 13.657zm-65.155 100.13c0 26.467-21.532 48-48 48h-259c-26.468 0-48-21.533-48-48V165.091l-39.646 25.722a8 8 0 0 1-11.065-2.357 8 8 0 0 1 2.356-11.065L190.082 56.43c23.502-15.248 53.87-15.248 77.372 0l46.547 30.2V40.582a8 8 0 0 1 0-16h85a8 8 0 0 1 0 16h-1v54a8 8 0 0 1-16 0v-54h-52v56.429l123.889 80.38c6.682 4.335 3.56 14.712-4.362 14.712-3.508 0 9.142 7.462-190.782-122.251-18.21-11.814-41.742-11.815-59.954 0L68.001 154.71v252.872c0 17.645 14.355 32 32 32h190V307.055c0-9.635-7.839-17.473-17.474-17.473h-87.053c-9.635 0-17.474 7.838-17.474 17.473v99.527a8 8 0 0 1-16 0v-99.527c0-18.457 15.017-33.473 33.474-33.473h87.053c18.457 0 33.474 15.016 33.474 33.473v132.527h53c17.645 0 32-14.355 32-32a8 8 0 0 1 16 0zm-8-214a8 8 0 0 1 8 8v32.5a8 8 0 0 1-16 0v-32.5a8 8 0 0 1 8-8z"/></svg>