<svg height="512" viewBox="0 0 511.999 511.999" width="512" xmlns="http://www.w3.org/2000/svg"><circle cx="256" cy="256" r="10"/><path d="M13.15 315.379a10 10 0 0 0-2.189 15.611l85.98 88.92a10 10 0 0 0 12.189 1.709c36.605-21.133 69.015-47.569 96.755-78.832C192.68 382.447 186 423.736 186 466v36a9.998 9.998 0 0 0 12.426 9.701l120-30A9.999 9.999 0 0 0 326 472c0-43.542-7.291-89.133-20.435-129.885a390.744 390.744 0 0 0 19.026 20.054c3.938 3.861 10.27 3.809 14.142-.14 3.866-3.943 3.804-10.275-.14-14.142a372.438 372.438 0 0 1-35.417-40.152c10.798-9.794 18.174-22.575 21.231-36.771 46.426 5.921 90.644 20.329 131.679 42.91l-28.328 99.021c-14.123-8.168-15.692-9.027-19.878-11.528-4.74-2.837-10.88-1.292-13.715 3.447-2.836 4.739-1.292 10.88 3.447 13.715 4.358 2.61 5.485 3.207 31.237 18.091 5.638 3.254 12.829.334 14.614-5.91l34.021-118.92a10 10 0 0 0-4.614-11.41c-36.593-21.126-75.673-35.984-116.598-44.38 40.925-8.396 80.005-23.254 116.598-44.38l25.979-15a10 10 0 0 0 2.188-15.611l-85.979-88.92a9.998 9.998 0 0 0-12.188-1.709c-36.605 21.134-69.015 47.57-96.755 78.831C319.32 129.552 326 88.264 326 46V10A10 10 0 0 0 313.574.299l-120 30A9.999 9.999 0 0 0 186 40c0 43.518 7.283 89.082 20.413 129.817-27.858-31.525-60.444-58.169-97.283-79.438l-25.98-15a9.997 9.997 0 0 0-14.614 5.911l-34.02 118.92a10 10 0 0 0 4.614 11.41c36.593 21.126 75.673 35.984 116.598 44.38-40.925 8.396-80.005 23.254-116.598 44.38zM206 489.192V466c0-49.563 9.673-97.716 28.764-143.279C241.578 324.896 248.685 326 256 326c7.308 0 14.408-1.101 21.208-3.269 17.425 42.255 27.712 92.88 28.712 141.48zM256 306c-27.355 0-50-22.006-50-50 0-27.987 22.671-50 50-50 26.997 0 50 21.694 50 50 0 28.323-23.019 50-50 50zm150.166-194.337 71.592 74.041-14.888 8.596c-42.933 24.787-89.471 40.488-138.468 46.736-3.063-14.213-10.441-26.991-21.239-36.782 28.341-37.251 62.927-68.345 103.003-92.591zM306 22.807V46c0 49.564-9.673 97.717-28.763 143.279C270.422 187.103 263.315 186 256 186c-7.308 0-14.408 1.101-21.208 3.268-17.425-42.256-27.712-92.88-28.712-141.48zM84.242 99.104 99.13 107.7c42.93 24.785 79.795 57.241 109.706 96.554-10.804 9.795-18.185 22.58-21.242 36.781-46.425-5.921-90.644-20.329-131.679-42.91zm103.356 171.86c3.063 14.212 10.44 26.99 21.239 36.782-28.342 37.252-62.928 68.346-103.002 92.591l-71.593-74.041L49.13 317.7c42.933-24.787 89.471-40.488 138.468-46.736z"/><circle cx="366" cy="384" r="10"/></svg>