<svg xmlns="http://www.w3.org/2000/svg" viewBox="0 0 496 496" style="enable-background:new 0 0 496 496" xml:space="preserve"><path d="M488 128H333.072l-8-16H360a8 8 0 0 0 8-8V8a8 8 0 0 0-8-8H136a8 8 0 0 0-8 8v96a8 8 0 0 0 8 8h34.952l-8 16H8a8 8 0 0 0-8 8v96a8 8 0 0 0 8 8h116.448A31.896 31.896 0 0 0 152 256h72v39.2l-15.84 79.2a7.967 7.967 0 0 0-.16 1.6v80c0 22.091 17.909 40 40 40s40-17.909 40-40v-80a7.967 7.967 0 0 0-.16-1.6L272 295.2V256h72a31.896 31.896 0 0 0 27.552-16H488a8 8 0 0 0 8-8v-96a8 8 0 0 0-8-8zM352 96h-34.96l-24.056-48H352v48zm0-80v16h-67.032l-7.2-14.336c-.296-.584-.664-1.104-.984-1.664H352zm-208 0h75.2c-.328.56-.696 1.08-.992 1.664L211.024 32H144V16zm0 80V48h59.008l-24.04 48H144zM16 144h138.92l-8 16H16v-16zm107.2 63.408a33.899 33.899 0 0 0-3.2 14.352V224H16v-48h122.888L123.2 207.408zM272 456c0 13.255-10.745 24-24 24s-24-10.745-24-24v-79.2l8.16-40.8h31.68l8.16 40.8V456zm-14.552-152 3.2 16h-25.296l3.2-16h18.896zM240 288v-68.688l8-8 8 8V288h-16zm48-48h-16v-24a8 8 0 0 0-2.344-5.656l-16-16a8 8 0 0 0-11.312 0l-16 16A8 8 0 0 0 224 216v24h-16v-36.688l40-40 40 40V240zm72-16c0 8.837-7.163 16-16 16h-40v-40a8 8 0 0 0-2.344-5.656l-48-48a8 8 0 0 0-11.312 0l-48 48A8 8 0 0 0 192 200v40h-40c-8.837 0-16-7.163-16-16v-2.24a17.758 17.758 0 0 1 1.6-7.408L232.504 24.8a15.945 15.945 0 0 1 14.32-8.8h2.352a15.919 15.919 0 0 1 14.312 8.8l94.84 189.328A18.023 18.023 0 0 1 360 221.76V224zm120 0H376v-2.24a34.305 34.305 0 0 0-3.256-14.576L357.12 176H480v48zm0-64H349.104l-8-16H480v16z"/><path d="M8 112h96a8 8 0 0 0 8-8V8a8 8 0 0 0-8-8H8a8 8 0 0 0-8 8v96a8 8 0 0 0 8 8zm8-96h80v16H16V16zm0 32h80v48H16V48z"/></svg>