<svg height="512" width="512" xmlns="http://www.w3.org/2000/svg"><path d="M260.996 70.626a10.001 10.001 0 0 0-9.992 0l-148 85.35A10.002 10.002 0 0 0 98 164.639V347.36c0 3.574 1.908 6.877 5.004 8.663l148 85.35c1.546.892 3.271 1.337 4.996 1.337s3.45-.445 4.996-1.337l148-85.35A10.002 10.002 0 0 0 414 347.36V164.639c0-3.574-1.908-6.877-5.004-8.663zM394 341.583l-138 79.582-138-79.582V170.416l138-79.582 138 79.582z"/><path d="m216.512 162.837-30 90c-1.746 5.239 1.086 10.902 6.325 12.649l80.513 26.837-26.838 80.514a10 10 0 0 0 4.847 12.02A10 10 0 0 0 264 382l90-120c3.939-5.254 1.83-12.837-4.286-15.285l-64.909-25.963 25.14-50.28c3.32-6.64-1.518-14.472-8.944-14.472h-75a10 10 0 0 0-9.489 6.837zM284.819 176l-22.764 45.528c-2.61 5.218-.211 11.579 5.23 13.757l62.885 25.153-45.197 60.264 10.514-31.54c1.746-5.239-1.086-10.902-6.325-12.649l-80.513-26.837L233.208 176z"/><circle cx="464" cy="256" r="10"/><path d="M474 130a10 10 0 0 0-5.003-8.662l-208-120a10.005 10.005 0 0 0-9.994 0l-208 120A9.998 9.998 0 0 0 38 130v252a10 10 0 0 0 5.003 8.662l208 120a9.991 9.991 0 0 0 9.994 0l208-120A10 10 0 0 0 474 382v-81c0-5.522-4.478-10-10-10s-10 4.478-10 10v75.225l-198 114.23L58 376.224V135.775l198-114.23 198 114.23V211c0 5.522 4.478 10 10 10s10-4.478 10-10z"/></svg>