<svg xmlns="http://www.w3.org/2000/svg" viewBox="0 0 480 480" style="enable-background:new 0 0 480 480" xml:space="preserve"><path d="M440 32H40C17.92 32.026.026 49.92 0 72v160c.026 22.08 17.92 39.974 40 40h400c22.08-.026 39.974-17.92 40-40V72c-.026-22.08-17.92-39.974-40-40zM56 48h368v24c0 13.255-10.745 24-24 24H80c-13.255 0-24-10.745-24-24V48zm368 208H56v-8h368v8zm0-24H56v-8h368v8zm0-24H56v-8h368v8zm40 24c0 13.255-10.745 24-24 24v-64a8 8 0 0 0-8-8H48a8 8 0 0 0-8 8v64c-13.255 0-24-10.745-24-24V72c0-13.255 10.745-24 24-24v24c.026 22.08 17.92 39.974 40 40h320c22.08-.026 39.974-17.92 40-40V48c13.255 0 24 10.745 24 24v160z"/><path d="M264 160h-64a8 8 0 0 0 0 16h64a8 8 0 0 0 0-16zM408 128h-8a8 8 0 0 0 0 16h8a8 8 0 0 0 0-16zM440 128h-8a8 8 0 0 0 0 16h8a8 8 0 0 0 0-16zM256 296a8 8 0 0 0-16 0 30.235 30.235 0 0 1-6.656 19.552c-12.458 16.911-12.458 39.961 0 56.872 8.873 11.536 8.873 27.599 0 39.136A45.951 45.951 0 0 0 224 440a8 8 0 0 0 16 0 30.267 30.267 0 0 1 6.656-19.568c12.447-16.92 12.447-39.968 0-56.888-8.873-11.53-8.873-27.59 0-39.12A45.904 45.904 0 0 0 256 296zM192 296a8 8 0 0 0-16 0 30.235 30.235 0 0 1-6.656 19.552c-12.458 16.911-12.458 39.961 0 56.872 8.873 11.536 8.873 27.599 0 39.136A45.951 45.951 0 0 0 160 440a8 8 0 0 0 16 0 30.267 30.267 0 0 1 6.656-19.568c12.447-16.92 12.447-39.968 0-56.888-8.873-11.53-8.873-27.59 0-39.12A45.904 45.904 0 0 0 192 296zM320 296a8 8 0 0 0-16 0 30.235 30.235 0 0 1-6.656 19.552c-12.458 16.911-12.458 39.961 0 56.872 8.873 11.536 8.873 27.599 0 39.136A45.951 45.951 0 0 0 288 440a8 8 0 0 0 16 0 30.267 30.267 0 0 1 6.656-19.568c12.447-16.92 12.447-39.968 0-56.888-8.873-11.53-8.873-27.59 0-39.12A45.904 45.904 0 0 0 320 296z"/></svg>