<svg height="512" viewBox="0 0 56 60" width="512" xmlns="http://www.w3.org/2000/svg"><path d="M19 16h-4a3 3 0 0 0-3 3v3H3a2.992 2.992 0 0 0-.958 5.829C2.487 36.875 9.943 43.985 19 44h3v3a3 3 0 0 0 2 2.816V56a4 4 0 0 0 8 0v-6.184A3 3 0 0 0 34 47v-3h3c9.057-.015 16.513-7.125 16.958-16.171A2.992 2.992 0 0 0 53 22h-9v-3a3 3 0 0 0-3-3h-4a3 3 0 0 0-3 3v3h-3V8A8.009 8.009 0 0 0 21.951.067 8.144 8.144 0 0 0 15 8.244V9a2 2 0 0 0 2 2h2a2 2 0 0 0 2-2V8a2 2 0 0 1 2.407-1.96A2.091 2.091 0 0 1 25 8.118V22h-3v-3a3 3 0 0 0-3-3zm-5 3a1 1 0 0 1 1-1h4a1 1 0 0 1 1 1v3h-6zm16 37a2 2 0 1 1-4 0v-6h4zm2-9a1 1 0 0 1-1 1h-6a1 1 0 0 1-1-1v-3h8zm5-5H19c-7.892-.01-14.43-6.126-14.967-14h47.934C51.431 35.874 44.892 41.99 37 42zm17-17a1 1 0 0 1-1 1H3a1 1 0 0 1 0-2h50a1 1 0 0 1 1 1zm-18-6a1 1 0 0 1 1-1h4a1 1 0 0 1 1 1v3h-6zM23.789 4.077A4 4 0 0 0 19 8v1h-2v-.756a6.141 6.141 0 0 1 5.206-6.193A6.009 6.009 0 0 1 29 8v14h-2V8.118a4.066 4.066 0 0 0-3.211-4.041z" fill="#000" fill-rule="nonzero"/></svg>