<svg id="Capa_1" enable-background="new 0 0 511 511" height="512" viewBox="0 0 511 511" width="512" xmlns="http://www.w3.org/2000/svg"><g id="Outline_1_"><path d="m511 63.5c0-4.142-3.358-7.5-7.5-7.5h-496c-4.142 0-7.5 3.358-7.5 7.5v128c0 4.142 3.358 7.5 7.5 7.5h217.116l-220.556 113.835c-2.465 1.274-4.06 3.889-4.06 6.665v128c0 4.142 3.358 7.5 7.5 7.5h372.478c4.142 0 7.5-3.358 7.5-7.5s-3.358-7.5-7.5-7.5h-364.978v-113h41v24.5c0 4.142 3.358 7.5 7.5 7.5s7.5-3.358 7.5-7.5v-24.5h81v56.5c0 4.142 3.358 7.5 7.5 7.5s7.5-3.358 7.5-7.5v-56.5h81v24.5c0 4.142 3.358 7.5 7.5 7.5s7.5-3.358 7.5-7.5v-24.5h81v56.5c0 4.142 3.358 7.5 7.5 7.5s7.5-3.358 7.5-7.5v-56.5h81v24.5c0 4.142 3.358 7.5 7.5 7.5s7.5-3.358 7.5-7.5v-24.5h41v113h-79.5c-4.142 0-7.5 3.358-7.5 7.5s3.358 7.5 7.5 7.5h87c4.142 0 7.5-3.358 7.5-7.5v-128c0-4.142-3.358-7.5-7.5-7.5h-217.116l220.556-113.835c2.462-1.277 4.06-3.888 4.06-6.665zm-15 120.5h-409v-24.5c0-4.142-3.358-7.5-7.5-7.5-13.509 0-24.5-10.991-24.5-24.5s10.991-24.5 24.5-24.5c4.142 0 7.5-3.358 7.5-7.5v-24.5h65v24.5c0 4.142 3.358 7.5 7.5 7.5s7.5-3.358 7.5-7.5v-24.5h81v56.5c0 4.142 3.358 7.5 7.5 7.5s7.5-3.358 7.5-7.5v-56.5h81v24.5c0 4.142 3.358 7.5 7.5 7.5s7.5-3.358 7.5-7.5v-24.5h81v56.5c0 4.142 3.358 7.5 7.5 7.5s7.5-3.358 7.5-7.5v-56.5h41zm-481 0v-113h57v17.714c-18.207 3.513-32 19.568-32 38.786s13.793 35.273 32 38.786v17.714zm457.616 15s-217.083 112.272-217.699 113h-216.533l218.938-113z"/></g></svg>