<?xml version="1.0" encoding="iso-8859-1"?>
<!-- Generator: Adobe Illustrator 19.0.0, SVG Export Plug-In . SVG Version: 6.00 Build 0)  -->
<svg version="1.1" id="Capa_1" xmlns="http://www.w3.org/2000/svg" xmlns:xlink="http://www.w3.org/1999/xlink" x="0px" y="0px"
	 viewBox="0 0 480 480" style="enable-background:new 0 0 480 480;" xml:space="preserve">
<g>
	<g>
		<g>
			<path d="M129.2,304.002c0-0.001-0.001-0.001-0.001-0.002c-2.207-3.827-7.099-5.141-10.927-2.933
				c-0.003,0.002-0.006,0.004-0.009,0.005l-83.128,48c-3.841,2.183-5.185,7.067-3.002,10.908c2.183,3.841,7.067,5.185,10.908,3.002
				c0.031-0.018,0.062-0.036,0.093-0.054l83.128-48C130.091,312.722,131.406,307.83,129.2,304.002z"/>
			<path d="M176.056,350.853c-0.003-0.002-0.006-0.004-0.009-0.005c-3.827-2.207-8.72-0.894-10.927,2.934
				c0,0.001-0.001,0.002-0.001,0.002l-48,83.128c-2.234,3.812-0.956,8.713,2.856,10.947c3.812,2.234,8.713,0.956,10.947-2.856
				c0.018-0.03,0.035-0.061,0.053-0.092l48-83.128C181.187,357.96,179.88,353.066,176.056,350.853z"/>
			<path d="M240.047,368c-4.418,0-8,3.582-8,8v96c0,4.418,3.582,8,8,8s8-3.582,8-8v-96C248.047,371.582,244.465,368,240.047,368z"/>
			<path d="M314.975,353.784c-2.183-3.841-7.067-5.185-10.908-3.002c-3.841,2.183-5.185,7.067-3.002,10.908
				c0.018,0.031,0.036,0.062,0.054,0.093l48,83.128c2.235,3.811,7.136,5.089,10.948,2.854c3.775-2.214,5.071-7.05,2.908-10.854
				L314.975,353.784z"/>
			<path d="M444.959,349.072l-83.128-48c-3.811-2.235-8.713-0.957-10.948,2.854s-0.957,8.713,2.854,10.948
				c0.031,0.018,0.062,0.036,0.093,0.054l83.128,48c3.841,2.183,8.725,0.839,10.908-3.002
				C450.03,356.122,448.734,351.286,444.959,349.072z"/>
			<path d="M335.951,280h40.096c13.219,0.029,23.959-10.664,23.988-23.884c0.023-10.29-6.534-19.443-16.284-22.732
				c-2.821-64.644-48.585-119.391-111.704-133.632V80c0.042-14.58-9.859-27.313-24-30.864V0h-16v49.136
				c-14.085,3.637-23.945,16.317-24,30.864v19.76c-63.108,14.237-108.869,68.968-111.704,133.6c-3.454,1.11-6.592,3.03-9.152,5.6
				c-4.608,4.466-7.19,10.623-7.144,17.04c0,13.255,10.745,24,24,24h40.096c22.012,52.966,82.794,78.06,135.76,56.048
				C305.26,325.51,325.413,305.358,335.951,280z M224.047,80c0-8.837,7.163-16,16-16s16,7.163,16,16v16.888
				c-0.48-0.048-0.984,0-1.464-0.08c-4.267-0.432-8.589-0.672-12.968-0.72c-0.528,0-1.04-0.088-1.6-0.088s-0.96,0.072-1.448,0.08
				c-4.408,0.04-8.8,0.296-13.112,0.728c-0.472,0.048-0.968,0-1.44,0.08L224.047,80z M217.511,114.024
				c14.904-2.688,30.168-2.688,45.072,0h0.168C320.824,124.347,364.258,173.123,367.807,232h-255.52
				C115.861,173.074,159.375,124.286,217.511,114.024z M104.047,264c-4.418,0-8-3.582-8-8c-0.004-2.159,0.885-4.224,2.456-5.704
				c1.46-1.486,3.461-2.315,5.544-2.296h272c4.418,0,8,3.582,8,8s-3.582,8-8,8H104.047z M240.047,328
				c-33.074-0.007-63.355-18.546-78.4-48h156.8C303.402,309.454,273.121,327.993,240.047,328z"/>
		</g>
	</g>
</g>
<g>
</g>
<g>
</g>
<g>
</g>
<g>
</g>
<g>
</g>
<g>
</g>
<g>
</g>
<g>
</g>
<g>
</g>
<g>
</g>
<g>
</g>
<g>
</g>
<g>
</g>
<g>
</g>
<g>
</g>
</svg>
