<?xml version="1.0" encoding="utf-8"?><svg xmlns="http://www.w3.org/2000/svg" xmlns:xlink="http://www.w3.org/1999/xlink"><symbol viewBox="0 0 320 512" class="asvg-inline--fa afa-long-arrow-down afa-w-10" id="arrow-down" xmlns="http://www.w3.org/2000/svg"><path d="M300.3 327.5l-19.6-19.6c-4.8-4.8-12.5-4.7-17.1.2L186 388.8V44c0-6.6-5.4-12-12-12h-28c-6.6 0-12 5.4-12 12v344.8l-77.5-80.7c-4.7-4.8-12.4-4.9-17.1-.2l-19.6 19.6c-4.7 4.7-4.7 12.3 0 17l131.8 131.8c4.7 4.7 12.3 4.7 17 0l131.8-131.8c4.6-4.7 4.6-12.3-.1-17z"/></symbol><symbol viewBox="0 0 512 512" id="arrow-left" xmlns="http://www.w3.org/2000/svg"><path d="M492 236H68.442l70.164-69.824c7.829-7.792 7.859-20.455.067-28.284-7.792-7.83-20.456-7.859-28.285-.068l-104.504 104-.018.019c-7.809 7.792-7.834 20.496-.002 28.314l.018.019 104.504 104c7.828 7.79 20.492 7.763 28.285-.068 7.792-7.829 7.762-20.492-.067-28.284L68.442 276H492c11.046 0 20-8.954 20-20s-8.954-20-20-20z"/></symbol><symbol viewBox="0 0 512 512" id="arrow-right" xmlns="http://www.w3.org/2000/svg"><path d="M506.134 241.843l-.018-.019-104.504-104c-7.829-7.791-20.492-7.762-28.285.068-7.792 7.829-7.762 20.492.067 28.284L443.558 236H20c-11.046 0-20 8.954-20 20s8.954 20 20 20h423.557l-70.162 69.824c-7.829 7.792-7.859 20.455-.067 28.284 7.793 7.831 20.457 7.858 28.285.068l104.504-104 .018-.019c7.833-7.818 7.808-20.522-.001-28.314z"/></symbol><symbol viewBox="0 0 22 24" id="basket" xmlns="http://www.w3.org/2000/svg"><g clip-path="url(#dclip0)"><path d="M10.363 18.443a2.046 2.046 0 00-2.045 2.042 2.046 2.046 0 004.09 0 2.046 2.046 0 00-2.045-2.042zm6.134 0a2.046 2.046 0 00-2.045 2.042 2.046 2.046 0 004.089 0 2.046 2.046 0 00-2.044-2.042zm3.978-8.199L7.413 6.891a.614.614 0 00-.75.73L8.67 16.4h-.786L5.482 5.895a.613.613 0 00-.474-.464l-4.27-.882A.614.614 0 00.489 5.75l3.885.802L6.797 17.15a.613.613 0 00.598.477h12.07a.615.615 0 00.607-.53l.858-6.175a.613.613 0 00-.455-.678zm-8.14 3.91a.613.613 0 01-1.227 0v-2.696a.613.613 0 011.227 0v2.696zm2.625 0a.613.613 0 01-1.227 0v-1.88a.613.613 0 011.227 0v1.88zm2.625 0a.613.613 0 01-1.227 0v-1.226a.613.613 0 011.227 0v1.226z"/></g><path fill-rule="evenodd" clip-rule="evenodd" d="M16.268 4.568a2.996 2.996 0 00-1.693-.523c-.627 0-1.21.193-1.693.523-.28-.843-.492-1.752-.492-2.383C12.39.98 13.37 0 14.575 0s2.185.98 2.185 2.185c0 .631-.212 1.54-.492 2.383zm-4.722 2.274l.024.006v-.011l-.024.005zm4.972 1.217c-1.333-.33-2.766-.681-4.129-1.013a2.185 2.185 0 114.129 1.013zm4.436 1.103c-.866-.217-2.155-.538-3.618-.9a2.995 2.995 0 00.243-1.425c.87.18 1.762.45 2.308.765.596.344.969.928 1.067 1.56zM9.869 6.439c-.36-.086-.706-.167-1.03-.243a2.19 2.19 0 01-.376-2.667 2.188 2.188 0 013.147-.7c.098.738.338 1.599.61 2.353a3.01 3.01 0 00-.449.774c-.628.113-1.305.278-1.902.483zm10.124.075a3.43 3.43 0 01-.217.114c-.696-.295-1.587-.526-2.397-.672a3.01 3.01 0 00-.449-.774c.262-.727.494-1.553.599-2.273.095-.067.189-.128.278-.18a2.188 2.188 0 012.986.8 2.188 2.188 0 01-.8 2.985z"/><defs><clipPath id="dclip0"><path transform="translate(0 3.064)" d="M0 0h20.936v20.936H0z"/></clipPath></defs></symbol><symbol viewBox="0 0 512 512" id="chevron-down" xmlns="http://www.w3.org/2000/svg"><path d="M6.3 153.8L241 388.5c8.3 8.3 21.8 8.3 30.2 0l234.7-234.7c8.3-8.3 8.3-21.8 0-30.2s-21.8-8.3-30.2 0L256 343.2 36.4 123.6c-4.2-4.2-9.6-6.3-15.1-6.3s-10.9 2.1-15.1 6.3c-8.3 8.3-8.3 21.8.1 30.2z"/></symbol><symbol viewBox="0 0 512 512" id="circle-cross" xmlns="http://www.w3.org/2000/svg"><path d="M256 0C114.51 0 0 114.497 0 256c0 141.49 114.497 256 256 256 141.49 0 256-114.497 256-256C512 114.51 397.503 0 256 0zm0 477.867c-122.337 0-221.867-99.529-221.867-221.867S133.663 34.133 256 34.133 477.867 133.663 477.867 256 378.337 477.867 256 477.867z"/><path d="M280.136 256l79.986-79.987c6.665-6.664 6.665-17.471 0-24.136-6.664-6.664-17.471-6.664-24.136 0L256 231.864l-79.986-79.987c-6.664-6.665-17.469-6.665-24.136 0-6.665 6.664-6.665 17.471 0 24.136L231.864 256l-79.986 79.987c-6.665 6.664-6.665 17.471 0 24.136s17.471 6.665 24.136 0L256 280.136l79.986 79.987c6.663 6.664 17.469 6.666 24.136 0 6.665-6.664 6.665-17.471 0-24.136L280.136 256z"/></symbol><symbol viewBox="0 0 8 8" id="cross" xmlns="http://www.w3.org/2000/svg"><path d="M4 4.733l3.115 3.115a.518.518 0 10.733-.733L4.733 4 7.848.885a.518.518 0 10-.733-.733L4 3.267.885.152a.518.518 0 10-.733.733L3.267 4 .152 7.115a.517.517 0 000 .733c.202.203.53.203.733 0L4 4.733z"/></symbol><symbol viewBox="0 0 512 512" class="hsvg-inline--fa hfa-question-circle hfa-w-16" id="question" xmlns="http://www.w3.org/2000/svg"><path d="M256 8C119.043 8 8 119.083 8 256c0 136.997 111.043 248 248 248s248-111.003 248-248C504 119.083 392.957 8 256 8zm0 448c-110.532 0-200-89.431-200-200 0-110.495 89.472-200 200-200 110.491 0 200 89.471 200 200 0 110.53-89.431 200-200 200zm107.244-255.2c0 67.052-72.421 68.084-72.421 92.863V300c0 6.627-5.373 12-12 12h-45.647c-6.627 0-12-5.373-12-12v-8.659c0-35.745 27.1-50.034 47.579-61.516 17.561-9.845 28.324-16.541 28.324-29.579 0-17.246-21.999-28.693-39.784-28.693-23.189 0-33.894 10.977-48.942 29.969-4.057 5.12-11.46 6.071-16.666 2.124l-27.824-21.098c-5.107-3.872-6.251-11.066-2.644-16.363C184.846 131.491 214.94 112 261.794 112c49.071 0 101.45 38.304 101.45 88.8zM298 368c0 23.159-18.841 42-42 42s-42-18.841-42-42 18.841-42 42-42 42 18.841 42 42z"/></symbol></svg>