<svg id="Capa_1" enable-background="new 0 0 512 512" height="512" viewBox="0 0 512 512" width="512" xmlns="http://www.w3.org/2000/svg"><path d="m497 162h-227v-72h20v35c0 8.284 6.716 15 15 15s15-6.716 15-15v-50c0-8.284-6.716-15-15-15h-35v-25c0-19.299-15.701-35-35-35h-20c-19.299 0-35 15.701-35 35v127h-31.509c-6.968-34.192-37.272-60-73.491-60-41.355 0-75 33.645-75 75v260c0 41.355 33.645 75 75 75h360c8.284 0 15-6.716 15-15v-45h47c8.284 0 15-6.716 15-15v-260c0-8.284-6.716-15-15-15zm-287-127c0-2.757 2.243-5 5-5h20c2.757 0 5 2.243 5 5v25h-30zm0 55h30v157c0 21.447-5.238 42.756-15 61.788-9.762-19.032-15-40.341-15-61.788zm-180 87c0-24.813 20.187-45 45-45s45 20.187 45 45v200.041c-12.544-9.438-28.129-15.041-45-15.041s-32.456 5.603-45 15.041zm390 305h-345c-24.813 0-45-20.187-45-45s20.187-45 45-45 45 20.187 45 45c0 8.284 6.716 15 15 15h285zm62-60h-332v-230h30v55c0 33.76 10.625 67.235 30 94.85v15.15c0 8.284 6.716 15 15 15s15-6.716 15-15v-15.15c19.375-27.615 30-61.091 30-94.85v-55h212z"/><path d="m315 252h120c8.284 0 15-6.716 15-15s-6.716-15-15-15h-120c-8.284 0-15 6.716-15 15s6.716 15 15 15z"/><path d="m315 312h120c8.284 0 15-6.716 15-15s-6.716-15-15-15h-120c-8.284 0-15 6.716-15 15s6.716 15 15 15z"/><path d="m435 362h-60c-8.284 0-15 6.716-15 15s6.716 15 15 15h60c8.284 0 15-6.716 15-15s-6.716-15-15-15z"/></svg>