<?xml version="1.0" encoding="utf-8"?>
<!-- Generator: Adobe Illustrator 21.0.2, SVG Export Plug-In . SVG Version: 6.00 Build 0)  -->
<svg version="1.1" id="Capa_1" xmlns="http://www.w3.org/2000/svg" xmlns:xlink="http://www.w3.org/1999/xlink" x="0px" y="0px"
	 viewBox="0 0 512 512" style="enable-background:new 0 0 512 512;" xml:space="preserve">
<style type="text/css">
	.st0{fill:#176337;}
</style>
<g>
	<g>
		<path class="st0" d="M488.1,367.4h-6.7V270c0-4.1-3.3-7.3-7.3-7.3s-7.3,3.3-7.3,7.3v104.7v33.1v32.9c0,12.1-9.9,22-22,22
			c-12.1,0-22-9.8-22-22V71.3c0-12.1,9.8-22,22-22c12.1,0,22,9.8,22,22v32.9v33.1V235c0,4.1,3.3,7.3,7.3,7.3s7.3-3.3,7.3-7.3v-90.4
			h6.7c13.2,0,23.9-10.7,23.9-23.9s-10.7-23.9-23.9-23.9h-6.7V71.3c0-20.2-16.4-36.6-36.6-36.6c-12,0-22.6,5.8-29.3,14.7
			c-6.7-8.9-17.3-14.7-29.3-14.7s-22.6,5.8-29.3,14.7c-6.7-8.9-17.3-14.7-29.3-14.7c-12,0-22.6,5.8-29.3,14.7
			c-6.7-8.9-17.3-14.7-29.3-14.7s-22.6,5.8-29.3,14.7c-6.7-8.9-17.3-14.7-29.3-14.7s-22.6,5.8-29.3,14.7
			c-6.7-8.9-17.3-14.7-29.3-14.7c-20.2,0-36.6,16.4-36.6,36.6v25.5h-15V52.5c0-9.8-8-17.8-17.8-17.8H17.8C8,34.6,0,42.6,0,52.5
			v331.1c0,4.1,3.3,7.3,7.3,7.3s7.3-3.3,7.3-7.3V52.5c0-1.7,1.4-3.2,3.2-3.2h64.5c1.7,0,3.2,1.4,3.2,3.2v51.7v33.1v237.5v33.1v51.7
			c0,1.7-1.4,3.1-3.2,3.1H17.8c-1.7,0-3.1-1.4-3.1-3.1v-41c0-4.1-3.3-7.3-7.3-7.3S0,414.5,0,418.6v41c0,9.8,8,17.8,17.8,17.8h64.5
			c9.8,0,17.8-8,17.8-17.8v-44.3h15v25.5c0,20.2,16.4,36.6,36.6,36.6c12,0,22.6-5.8,29.3-14.7c6.7,8.9,17.3,14.7,29.3,14.7
			s22.6-5.8,29.3-14.7c6.7,8.9,17.3,14.7,29.3,14.7s22.6-5.8,29.3-14.7c6.7,8.9,17.3,14.7,29.3,14.7s22.6-5.8,29.3-14.7
			c6.7,8.9,17.3,14.7,29.3,14.7s22.6-5.8,29.3-14.7c6.7,8.9,17.3,14.7,29.3,14.7c20.2,0,36.6-16.4,36.6-36.6v-25.5h6.7
			c13.2,0,23.9-10.7,23.9-23.9S501.3,367.4,488.1,367.4z M481.4,111.5h6.7c5.1,0,9.2,4.1,9.2,9.2c0,5.1-4.1,9.2-9.2,9.2h-6.7V111.5z
			 M115.1,400.5h-15v-18.4h15C115.1,382.1,115.1,400.5,115.1,400.5z M115.1,367.4h-15V144.6h15C115.1,144.6,115.1,367.4,115.1,367.4
			z M115.1,129.9h-15v-18.4h15C115.1,111.5,115.1,129.9,115.1,129.9z M173.7,440.7c0,12.1-9.9,22-22,22c-12.1,0-22-9.8-22-22v-32.9
			v-33.1V137.3v-33.1V71.3c0-12.1,9.8-22,22-22c12.1,0,22,9.8,22,22V440.7z M232.3,440.7c0,12.1-9.8,22-22,22c-12.1,0-22-9.8-22-22
			V71.3c0-12.1,9.8-22,22-22c12.1,0,22,9.8,22,22V440.7z M269,462.7c-12.1,0-22-9.8-22-22V71.3c0-12.1,9.8-22,22-22s22,9.8,22,22
			v369.4h0C290.9,452.8,281.1,462.7,269,462.7z M349.5,440.7c0,12.1-9.8,22-22,22s-22-9.8-22-22V71.3c0-12.1,9.9-22,22-22
			s22,9.8,22,22V440.7z M408.1,440.7c0,12.1-9.8,22-22,22c-12.1,0-22-9.8-22-22V71.3c0-12.1,9.8-22,22-22c12.1,0,22,9.8,22,22V440.7
			z M488.1,400.5h-6.7v-18.4h6.7c5.1,0,9.2,4.1,9.2,9.2S493.2,400.5,488.1,400.5z"/>
	</g>
</g>
<g>
	<g>
		<path d="M66.5,68.1H33.6c-6.4,0-11.6,5.2-11.6,11.6v32.9c0,6.4,5.2,11.6,11.6,11.6h32.9c6.4,0,11.6-5.2,11.6-11.6V79.7
			C78.1,73.3,72.9,68.1,66.5,68.1z M63.4,109.4H36.8V82.8h26.6V109.4z"/>
	</g>
</g>
</svg>
